<?xml version="1.0" encoding="UTF-8" standalone="no"?>
<!-- Created with Inkscape (http://www.inkscape.org/) -->

<svg
   xmlns:dc="http://purl.org/dc/elements/1.1/"
   xmlns:cc="http://creativecommons.org/ns#"
   xmlns:rdf="http://www.w3.org/1999/02/22-rdf-syntax-ns#"
   xmlns:svg="http://www.w3.org/2000/svg"
   xmlns="http://www.w3.org/2000/svg"
   xmlns:sodipodi="http://sodipodi.sourceforge.net/DTD/sodipodi-0.dtd"
   xmlns:inkscape="http://www.inkscape.org/namespaces/inkscape"
   width="28mm"
   height="28mm"
   viewBox="0 0 28 28"
   version="1.1"
   id="svg2363"
   inkscape:version="0.92.5 (2060ec1f9f, 2020-04-08)"
   sodipodi:docname="lc4_cir0000_cluster.svg">
  <defs
     id="defs2357">
    <radialGradient
       id="paint10_radial"
       cx="0"
       cy="0"
       r="1"
       gradientUnits="userSpaceOnUse"
       gradientTransform="matrix(0,7.38426,-7.38426,0,151.66897,883.12976)">
      <stop
         stop-color="#A5CBE7"
         id="stop922" />
      <stop
         offset="1"
         stop-color="#2677B2"
         id="stop924" />
    </radialGradient>
    <radialGradient
       id="paint9_radial"
       cx="0"
       cy="0"
       r="1"
       gradientUnits="userSpaceOnUse"
       gradientTransform="matrix(0,7.38426,-7.38426,0,178.00676,844.384)">
      <stop
         stop-color="#A5CBE7"
         id="stop917" />
      <stop
         offset="1"
         stop-color="#2677B2"
         id="stop919" />
    </radialGradient>
    <radialGradient
       id="paint11_radial"
       cx="0"
       cy="0"
       r="1"
       gradientUnits="userSpaceOnUse"
       gradientTransform="matrix(0,7.38426,-7.38426,0,143.26306,844.462)">
      <stop
         stop-color="#A5CBE7"
         id="stop927" />
      <stop
         offset="1"
         stop-color="#2677B2"
         id="stop929" />
    </radialGradient>
    <radialGradient
       id="paint8_radial"
       cx="0"
       cy="0"
       r="1"
       gradientUnits="userSpaceOnUse"
       gradientTransform="matrix(0,7.38426,-7.38426,0,116.92497,883.12976)">
      <stop
         stop-color="#A5CBE7"
         id="stop912" />
      <stop
         offset="1"
         stop-color="#2677B2"
         id="stop914" />
    </radialGradient>
    <radialGradient
       id="paint10_radial-56"
       cx="0"
       cy="0"
       r="1"
       gradientUnits="userSpaceOnUse"
       gradientTransform="matrix(0,7.38426,-7.38426,0,151.66897,883.12976)">
      <stop
         stop-color="#A5CBE7"
         id="stop922-1" />
      <stop
         offset="1"
         stop-color="#2677B2"
         id="stop924-4" />
    </radialGradient>
    <radialGradient
       id="paint9_radial-0"
       cx="0"
       cy="0"
       r="1"
       gradientUnits="userSpaceOnUse"
       gradientTransform="matrix(0,7.38426,-7.38426,0,178.00676,844.384)">
      <stop
         stop-color="#A5CBE7"
         id="stop917-3" />
      <stop
         offset="1"
         stop-color="#2677B2"
         id="stop919-1" />
    </radialGradient>
    <radialGradient
       id="paint11_radial-2"
       cx="0"
       cy="0"
       r="1"
       gradientUnits="userSpaceOnUse"
       gradientTransform="matrix(0,7.38426,-7.38426,0,143.26306,844.462)">
      <stop
         stop-color="#A5CBE7"
         id="stop927-7" />
      <stop
         offset="1"
         stop-color="#2677B2"
         id="stop929-79" />
    </radialGradient>
    <radialGradient
       id="paint8_radial-8"
       cx="0"
       cy="0"
       r="1"
       gradientUnits="userSpaceOnUse"
       gradientTransform="matrix(0,7.38426,-7.38426,0,116.92497,883.12976)">
      <stop
         stop-color="#A5CBE7"
         id="stop912-1" />
      <stop
         offset="1"
         stop-color="#2677B2"
         id="stop914-0" />
    </radialGradient>
    <radialGradient
       id="paint15_radial-4-8-4"
       cx="0"
       cy="0"
       r="1"
       gradientUnits="userSpaceOnUse"
       gradientTransform="matrix(0,1.9537521,-1.9537521,0,2.5584531,283.89254)">
      <stop
         stop-color="#A5CBE7"
         id="stop1094-8-1-8" />
      <stop
         offset="1"
         stop-color="#2677B2"
         id="stop1096-7-6-9" />
    </radialGradient>
    <radialGradient
       id="paint14_radial-0-8-6"
       cx="0"
       cy="0"
       r="1"
       gradientUnits="userSpaceOnUse"
       gradientTransform="matrix(0,1.9537521,-1.9537521,0,22.199003,283.87138)">
      <stop
         stop-color="#A5CBE7"
         id="stop1089-8-5-7" />
      <stop
         offset="1"
         stop-color="#2677B2"
         id="stop1091-6-2-7" />
    </radialGradient>
    <radialGradient
       id="paint13_radial-2-1-3"
       cx="0"
       cy="0"
       r="1"
       gradientUnits="userSpaceOnUse"
       gradientTransform="matrix(0,1.9537521,-1.9537521,0,9.1053028,283.87138)">
      <stop
         stop-color="#A5CBE7"
         id="stop1084-4-9-7" />
      <stop
         offset="1"
         stop-color="#2677B2"
         id="stop1086-7-9-1" />
    </radialGradient>
    <radialGradient
       id="paint12_radial-9-6-2"
       cx="0"
       cy="0"
       r="1"
       gradientUnits="userSpaceOnUse"
       gradientTransform="matrix(0,1.9537521,-1.9537521,0,15.652153,283.87138)">
      <stop
         stop-color="#A5CBE7"
         id="stop1079-3-0-2" />
      <stop
         offset="1"
         stop-color="#2677B2"
         id="stop1081-9-6-1" />
    </radialGradient>
  </defs>
  <sodipodi:namedview
     id="base"
     pagecolor="#ffffff"
     bordercolor="#666666"
     borderopacity="1.0"
     inkscape:pageopacity="0.0"
     inkscape:pageshadow="2"
     inkscape:zoom="2.8"
     inkscape:cx="17.439735"
     inkscape:cy="90.512719"
     inkscape:document-units="mm"
     inkscape:current-layer="g3330"
     showgrid="false"
     inkscape:window-width="1366"
     inkscape:window-height="704"
     inkscape:window-x="0"
     inkscape:window-y="27"
     inkscape:window-maximized="1" />
  <metadata
     id="metadata2360">
    <rdf:RDF>
      <cc:Work
         rdf:about="">
        <dc:format>image/svg+xml</dc:format>
        <dc:type
           rdf:resource="http://purl.org/dc/dcmitype/StillImage" />
        <dc:title />
      </cc:Work>
    </rdf:RDF>
  </metadata>
  <g
     inkscape:label="Layer 1"
     inkscape:groupmode="layer"
     id="layer1"
     transform="translate(0,-269)">
    <g
       id="g3330"
       transform="translate(1.6212636,-2.9067984)">
      <path
         inkscape:connector-curvature="0"
         style="fill:none;stroke:#fafafa;stroke-width:0.13229166"
         d="M 4.5097552,283.8714 H 20.247701"
         id="path522-99-1-2" />
      <circle
         style="fill:url(#paint12_radial-9-6-2);stroke-width:0.26458332"
         cx="15.652164"
         cy="283.8714"
         r="1.9537522"
         id="circle524-4-3-2" />
      <circle
         style="fill:url(#paint13_radial-2-1-3);stroke-width:0.26458332"
         cx="9.1053095"
         cy="283.8714"
         r="1.9537522"
         id="circle526-5-7-1" />
      <circle
         style="fill:url(#paint14_radial-0-8-6);stroke-width:0.26458332"
         cx="22.199018"
         cy="283.8714"
         r="1.9537522"
         id="circle528-1-4-7" />
      <circle
         style="fill:url(#paint15_radial-4-8-4);stroke-width:0.26458332"
         cx="2.5584543"
         cy="283.89255"
         r="1.9537522"
         id="circle530-0-1-2" />
      <path
         inkscape:connector-curvature="0"
         style="fill:#ffffff;stroke-width:0.26458332"
         d="M 2.8304448,289.85625 H 2.2314281 v -1.64041 l 0.00582,-0.26723 0.00979,-0.29634 c -0.099483,0.10055 -0.1685396,0.16405 -0.2074334,0.1958 l -0.3254375,0.26193 -0.2886604,-0.35983 0.9125479,-0.7276 h 0.4923901 z"
         id="path532-3-1-4" />
      <path
         inkscape:connector-curvature="0"
         style="fill:#ffffff;stroke-width:0.26458332"
         d="m 9.9448258,289.85625 h -1.980406 v -0.41539 l 0.7112,-0.71967 c 0.210608,-0.21696 0.348192,-0.36512 0.41275,-0.44715 0.06456,-0.0847 0.111125,-0.16139 0.139435,-0.23283 0.02858,-0.0714 0.0426,-0.14552 0.0426,-0.22225 0,-0.11377 -0.03148,-0.19844 -0.09472,-0.254 -0.06218,-0.0556 -0.145521,-0.082 -0.250032,-0.082 -0.109802,0 -0.2164289,0.0238 -0.319881,0.0741 -0.1031875,0.0503 -0.2111375,0.12171 -0.3235854,0.21696 l -0.3254375,-0.38629 c 0.1394354,-0.11906 0.2550583,-0.20373 0.3468687,-0.25135 0.091546,-0.0503 0.191823,-0.0873 0.3003021,-0.11377 0.1084792,-0.0265 0.2299231,-0.0397 0.3643311,-0.0397 0.177006,0 0.333375,0.0317 0.468842,0.0952 0.135731,0.0661 0.241035,0.1561 0.315912,0.27252 0.07488,0.11642 0.112448,0.24871 0.112448,0.39952 0,0.12965 -0.02328,0.254 -0.06985,0.36777 -0.04524,0.11377 -0.116152,0.23019 -0.212989,0.3519 -0.09578,0.11906 -0.264848,0.29104 -0.507736,0.51329 l -0.364331,0.34131 v 0.0291 h 1.234281 z"
         id="path534-7-3-1" />
      <path
         inkscape:connector-curvature="0"
         style="fill:#ffffff;stroke-width:0.26458332"
         d="m 16.449078,287.65757 c 0,0.17727 -0.05371,0.32543 -0.160866,0.44979 -0.107157,0.12435 -0.257704,0.20902 -0.451644,0.25664 v 0.0106 c 0.228865,0.0291 0.401902,0.10054 0.519377,0.21166 0.11774,0.10848 0.176477,0.25665 0.176477,0.4445 0,0.27252 -0.09895,0.48419 -0.296598,0.63765 -0.197644,0.15081 -0.479954,0.22754 -0.846931,0.22754 -0.307446,0 -0.579967,-0.0529 -0.817563,-0.15346 v -0.51064 c 0.109803,0.0556 0.230453,0.10054 0.362215,0.13493 0.131763,0.0371 0.262202,0.0529 0.391583,0.0529 0.197644,0 0.343694,-0.0317 0.437886,-0.10054 0.09419,-0.0661 0.141552,-0.17463 0.141552,-0.32279 0,-0.13229 -0.05424,-0.22754 -0.162983,-0.28311 -0.10848,-0.0556 -0.281517,-0.0847 -0.519113,-0.0847 h -0.215106 v -0.45773 h 0.21881 c 0.219604,0 0.379942,-0.0291 0.480748,-0.0847 0.101865,-0.0582 0.152929,-0.15875 0.152929,-0.29633 0,-0.21696 -0.134408,-0.32279 -0.40296,-0.32279 -0.09313,0 -0.188119,0.0159 -0.284956,0.0476 -0.09552,0.0291 -0.202142,0.082 -0.319617,0.15875 l -0.277283,-0.41275 c 0.258498,-0.18521 0.566473,-0.27781 0.924454,-0.27781 0.293158,0 0.524404,0.0582 0.693737,0.17727 0.170657,0.11906 0.255852,0.28575 0.255852,0.49742 z"
         id="path536-8-0-6" />
      <path
         inkscape:connector-curvature="0"
         style="fill:#ffffff;stroke-width:0.26458332"
         d="m 23.238022,289.26888 h -0.341048 v 0.58737 h -0.585258 v -0.58737 H 21.10257 v -0.4154 l 1.242219,-1.83091 h 0.552185 v 1.78064 h 0.341048 z m -0.926306,-0.46567 v -0.47889 c 0,-0.082 0.0032,-0.19844 0.0098,-0.34925 0.0063,-0.15346 0.01164,-0.24078 0.01535,-0.26723 h -0.01535 c -0.04789,0.10848 -0.105304,0.21166 -0.172508,0.3122 l -0.519377,0.78317 z"
         id="path538-8-3-5" />
    </g>
  </g>
</svg>
