<svg width="24" height="24" viewBox="0 0 24 24" fill="none" xmlns="http://www.w3.org/2000/svg">
<g clip-path="url(#clip0_1031_680)">
<path d="M11.7202 15.789C12.6102 15.789 13.2401 15.537 13.6301 15.031C14.0201 14.521 14.2202 13.698 14.2202 12.563V12.446C14.2202 11.253 14.0201 10.399 13.6201 9.883C13.2301 9.362 12.5902 9.10199 11.7102 9.10199C10.1302 9.10199 9.34009 10.227 9.34009 12.477C9.34009 13.581 9.53016 14.409 9.91016 14.961C10.3002 15.513 10.9002 15.789 11.7202 15.789ZM11.53 16.875C10.41 16.875 9.55018 16.49 8.93018 15.719C8.31018 14.943 8 13.857 8 12.461C8 11.034 8.3202 9.935 8.9502 9.164C9.5902 8.388 10.4902 8 11.6602 8C12.2902 8 12.82 8.11 13.23 8.328C13.65 8.547 14.01 8.87499 14.29 9.31299H14.3801C14.5101 8.83399 14.6801 8.44798 14.8901 8.15698H15.9001C15.7901 8.49998 15.7001 8.992 15.6201 9.633C15.5501 10.274 15.51 10.896 15.51 11.5V14.93C15.51 15.524 15.7302 15.821 16.1702 15.821C16.3202 15.821 16.4801 15.795 16.6501 15.742V16.672C16.4101 16.808 16.13 16.875 15.79 16.875C15.37 16.875 15.04 16.771 14.8 16.563C14.57 16.349 14.4101 16.018 14.3201 15.571H14.2202C13.9102 16.018 13.5401 16.349 13.1001 16.563C12.6701 16.771 12.14 16.875 11.53 16.875ZM12.25 31.477C13.39 31.477 14.2902 31.748 14.9402 32.289C15.5902 32.831 15.9102 33.578 15.9102 34.531C15.9102 36.063 15.1002 36.961 13.4702 37.227V37.289C15.4302 37.508 16.4102 38.573 16.4102 40.485C16.4102 41.573 16.0701 42.412 15.3801 43C14.6901 43.584 13.73 43.875 12.49 43.875C11.92 43.875 11.43 43.834 11.01 43.75C10.6 43.672 10.18 43.534 9.77002 43.336V47.563H8.47998V35.157C8.47998 33.985 8.80021 33.078 9.46021 32.438C10.1202 31.797 11.05 31.477 12.25 31.477ZM12.23 32.571C11.41 32.571 10.7901 32.795 10.3801 33.242C9.98013 33.69 9.77002 34.344 9.77002 35.203V42.133C10.26 42.388 10.7101 42.565 11.1201 42.664C11.5401 42.758 11.9802 42.805 12.4302 42.805C13.3202 42.805 13.9902 42.61 14.4402 42.219C14.8902 41.828 15.1201 41.224 15.1201 40.407C15.1201 39.589 14.8701 38.966 14.3701 38.539C13.8801 38.112 13.17 37.899 12.25 37.899H11.3701V36.789H12.0901C12.9001 36.789 13.5102 36.599 13.9402 36.219C14.3602 35.834 14.5701 35.284 14.5701 34.571C14.5701 33.93 14.3702 33.438 13.9602 33.094C13.5502 32.745 12.98 32.571 12.23 32.571Z" fill="white"/>
</g>
<defs>
<clipPath id="clip0_1031_680">
<rect width="24" height="24" fill="white"/>
</clipPath>
</defs>
</svg>
