<svg width="24" height="24" viewBox="0 0 24 24" fill="none" xmlns="http://www.w3.org/2000/svg">
<g clip-path="url(#clip0_1031_679)">
<path d="M11.7202 -11.211C12.6102 -11.211 13.2401 -11.463 13.6301 -11.969C14.0201 -12.479 14.2202 -13.302 14.2202 -14.437V-14.554C14.2202 -15.747 14.0201 -16.601 13.6201 -17.117C13.2301 -17.638 12.5902 -17.898 11.7102 -17.898C10.1302 -17.898 9.34009 -16.773 9.34009 -14.523C9.34009 -13.419 9.53016 -12.591 9.91016 -12.039C10.3002 -11.487 10.9002 -11.211 11.7202 -11.211ZM11.53 -10.125C10.41 -10.125 9.55018 -10.51 8.93018 -11.281C8.31018 -12.057 8 -13.143 8 -14.539C8 -15.966 8.3202 -17.065 8.9502 -17.836C9.5902 -18.612 10.4902 -19 11.6602 -19C12.2902 -19 12.82 -18.89 13.23 -18.672C13.65 -18.453 14.01 -18.125 14.29 -17.687H14.3801C14.5101 -18.166 14.6801 -18.552 14.8901 -18.843H15.9001C15.7901 -18.5 15.7001 -18.008 15.6201 -17.367C15.5501 -16.726 15.51 -16.104 15.51 -15.5V-12.07C15.51 -11.476 15.7302 -11.179 16.1702 -11.179C16.3202 -11.179 16.4801 -11.205 16.6501 -11.258V-10.328C16.4101 -10.192 16.13 -10.125 15.79 -10.125C15.37 -10.125 15.04 -10.229 14.8 -10.437C14.57 -10.651 14.4101 -10.982 14.3201 -11.429H14.2202C13.9102 -10.982 13.5401 -10.651 13.1001 -10.437C12.6701 -10.229 12.14 -10.125 11.53 -10.125ZM12.25 4.47699C13.39 4.47699 14.2902 4.748 14.9402 5.289C15.5902 5.831 15.9102 6.57801 15.9102 7.53101C15.9102 9.06301 15.1002 9.96099 13.4702 10.227V10.289C15.4302 10.508 16.4102 11.573 16.4102 13.485C16.4102 14.573 16.0701 15.412 15.3801 16C14.6901 16.584 13.73 16.875 12.49 16.875C11.92 16.875 11.43 16.834 11.01 16.75C10.6 16.672 10.18 16.534 9.77002 16.336V20.563H8.47998V8.15698C8.47998 6.98498 8.80021 6.07799 9.46021 5.43799C10.1202 4.79699 11.05 4.47699 12.25 4.47699ZM12.23 5.57098C11.41 5.57098 10.7901 5.795 10.3801 6.242C9.98013 6.69 9.77002 7.344 9.77002 8.203V15.133C10.26 15.388 10.7101 15.565 11.1201 15.664C11.5401 15.758 11.9802 15.805 12.4302 15.805C13.3202 15.805 13.9902 15.61 14.4402 15.219C14.8902 14.828 15.1201 14.224 15.1201 13.407C15.1201 12.589 14.8701 11.966 14.3701 11.539C13.8801 11.112 13.17 10.899 12.25 10.899H11.3701V9.789H12.0901C12.9001 9.789 13.5102 9.59899 13.9402 9.21899C14.3602 8.83399 14.5701 8.28398 14.5701 7.57098C14.5701 6.92998 14.3702 6.43799 13.9602 6.09399C13.5502 5.74499 12.98 5.57098 12.23 5.57098Z" fill="white"/>
</g>
<defs>
<clipPath id="clip0_1031_679">
<rect width="24" height="24" fill="white"/>
</clipPath>
</defs>
</svg>
