<svg width="265" height="191" viewBox="0 0 265 191" fill="none" xmlns="http://www.w3.org/2000/svg">
<g filter="url(#filter0_d_447_524)">
<path d="M56.9392 56.8669C58.216 55.59 57.7848 54.99 59.2374 48.6954C60.3571 43.8437 61.5356 56.6115 62.5571 56.867" stroke="#2677B2"/>
<rect x="74.8872" y="96.6071" width="17.7291" height="61.4749" fill="#ECF2F5"/>
<rect x="74.8872" y="99.6809" width="17.7291" height="4.30324" fill="#47A0E1" fill-opacity="0.1"/>
<rect x="74.8872" y="105.828" width="17.7291" height="4.30324" fill="#47A0E1" fill-opacity="0.1"/>
<rect x="74.8872" y="111.976" width="17.7291" height="4.30324" fill="#47A0E1" fill-opacity="0.1"/>
<rect x="74.8872" y="118.123" width="17.7291" height="4.30324" fill="#47A0E1" fill-opacity="0.1"/>
<rect x="74.8872" y="132.877" width="17.7291" height="4.30324" fill="#47A0E1" fill-opacity="0.1"/>
<rect x="74.8872" y="139.025" width="17.7291" height="4.30324" fill="#47A0E1" fill-opacity="0.1"/>
<rect x="74.8872" y="145.172" width="17.7291" height="4.30324" fill="#47A0E1" fill-opacity="0.1"/>
<rect x="74.8872" y="151.32" width="17.7291" height="4.30324" fill="#47A0E1" fill-opacity="0.1"/>
<path d="M82.7357 126.049C83.1088 125.732 83.656 125.732 84.0292 126.049L86.7413 128.348C87.4514 128.95 87.0256 130.111 86.0946 130.111H80.6703C79.7393 130.111 79.3135 128.95 80.0236 128.348L82.7357 126.049Z" fill="#2677B2"/>
<rect x="63.0679" y="158.082" width="41.3679" height="4.91799" fill="#ECF2F5"/>
<rect x="77.3679" y="50.1321" width="13.2786" height="13.2786" fill="#EAA356"/>
<line x1="77.7145" y1="50.2824" x2="90.993" y2="63.0503" stroke="#ECF2F5"/>
<circle cx="94.9874" cy="26.8946" r="2.29821" fill="#2677B2"/>
<circle cx="104.18" cy="26.8946" r="2.29821" fill="#2677B2"/>
<circle cx="113.373" cy="26.8946" r="2.29821" fill="#2677B2"/>
<circle cx="122.566" cy="26.8946" r="2.29821" fill="#2677B2"/>
<circle cx="189.47" cy="29.9589" r="2.29821" fill="#2677B2"/>
<circle cx="189.47" cy="58.559" r="2.29821" fill="#2677B2"/>
<circle cx="189.47" cy="89.7125" r="2.29821" fill="#2677B2"/>
<circle cx="189.47" cy="123.42" r="2.29821" fill="#2677B2"/>
<circle cx="234.412" cy="58.559" r="2.29821" fill="#2677B2"/>
<circle cx="234.412" cy="89.7125" r="2.29821" fill="#2677B2"/>
<circle cx="234.412" cy="123.42" r="2.29821" fill="#2677B2"/>
<circle cx="234.412" cy="149.977" r="2.29821" fill="#2677B2"/>
<rect width="12.7108" height="1.53214" transform="matrix(-0.707107 -0.707107 -0.707107 0.707107 220.225 159.731)" fill="#ECF2F5"/>
<line x1="83.5071" y1="96.0964" x2="83.5071" y2="63.4107" stroke="#2677B2"/>
<line x1="83.5071" y1="50.1321" x2="83.5071" y2="32.2571" stroke="#2677B2"/>
<line x1="215.782" y1="154.829" x2="215.782" y2="32.7678" stroke="#2677B2"/>
<line x1="128.439" y1="32.7571" x2="84.0071" y2="32.7571" stroke="#2677B2"/>
<line x1="214.239" y1="33.2678" x2="169.807" y2="33.2678" stroke="#2677B2"/>
<line x1="240.796" y1="62.3785" x2="169.807" y2="62.3785" stroke="#2677B2"/>
<line x1="77.3679" y1="57.2714" x2="48.7679" y2="57.2714" stroke="#2677B2"/>
<line x1="240.796" y1="94.5536" x2="169.807" y2="94.5536" stroke="#2677B2"/>
<line x1="240.796" y1="128.261" x2="169.807" y2="128.261" stroke="#2677B2"/>
<line x1="240.796" y1="155.329" x2="215.771" y2="155.329" stroke="#2677B2"/>
<line x1="82.4116" y1="77.9978" x2="83.9437" y2="81.0621" stroke="#2677B2"/>
<line y1="-0.5" x2="3.42598" y2="-0.5" transform="matrix(-0.447214 0.894427 0.894427 0.447214 85.5393 78.2214)" stroke="#2677B2"/>
<line y1="-0.5" x2="3.42598" y2="-0.5" transform="matrix(0.447214 -0.894427 -0.894427 -0.447214 81.9644 92.0107)" stroke="#2677B2"/>
<line x1="85.0921" y1="92.2343" x2="83.56" y2="89.1701" stroke="#2677B2"/>
<line y1="-0.5" x2="3.42598" y2="-0.5" transform="matrix(0.447214 -0.894427 -0.894427 -0.447214 81.9644 41.9607)" stroke="#2677B2"/>
<line x1="85.0921" y1="42.1843" x2="83.56" y2="39.12" stroke="#2677B2"/>
<line y1="-0.5" x2="3.42598" y2="-0.5" transform="matrix(0.91332 0.407243 0.407243 -0.91332 182.064 31.2357)" stroke="#2677B2"/>
<line x1="181.979" y1="34.3704" x2="184.973" y2="32.7043" stroke="#2677B2"/>
<line y1="-0.5" x2="3.42598" y2="-0.5" transform="matrix(0.91332 0.407243 0.407243 -0.91332 182.064 60.3464)" stroke="#2677B2"/>
<line x1="181.979" y1="63.4811" x2="184.973" y2="61.815" stroke="#2677B2"/>
<line y1="-0.5" x2="3.42598" y2="-0.5" transform="matrix(0.91332 0.407243 0.407243 -0.91332 65.1107 55.2393)" stroke="#2677B2"/>
<line x1="65.0256" y1="58.3739" x2="68.0192" y2="56.7078" stroke="#2677B2"/>
<line y1="-0.5" x2="3.42598" y2="-0.5" transform="matrix(0.91332 0.407243 0.407243 -0.91332 182.064 92.5214)" stroke="#2677B2"/>
<line x1="181.979" y1="95.656" x2="184.973" y2="93.9899" stroke="#2677B2"/>
<line y1="-0.5" x2="3.42598" y2="-0.5" transform="matrix(0.91332 0.407243 0.407243 -0.91332 181.554 126.229)" stroke="#2677B2"/>
<line x1="181.469" y1="129.363" x2="184.462" y2="127.697" stroke="#2677B2"/>
<rect x="128.95" y="20" width="40.8571" height="121.039" rx="8" fill="#2677B2"/>
<rect x="78.3082" y="36.9968" width="12.7108" height="1.53214" transform="rotate(-45 78.3082 36.9968)" fill="#ECF2F5"/>
<rect x="208.621" y="55.75" width="13.2786" height="13.2786" fill="#EAA356"/>
<line x1="208.968" y1="55.9003" x2="222.247" y2="68.6682" stroke="#ECF2F5"/>
<rect x="208.621" y="87.925" width="13.2786" height="13.2786" fill="#EAA356"/>
<line x1="208.968" y1="88.0753" x2="222.247" y2="100.843" stroke="#ECF2F5"/>
<rect x="208.621" y="121.121" width="13.2786" height="13.2786" fill="#EAA356"/>
<line x1="208.968" y1="121.272" x2="222.247" y2="134.04" stroke="#ECF2F5"/>
<rect x="77.3679" y="72.0929" width="13.2786" height="1.53214" fill="#ECF2F5"/>
<rect x="208.621" y="111.418" width="13.2786" height="1.53214" fill="#ECF2F5"/>
<rect x="77.3679" y="68.0071" width="13.2786" height="1.53214" fill="#ECF2F5"/>
<rect width="12.7108" height="1.53214" transform="matrix(-0.707107 -0.707107 -0.707107 0.707107 221.246 36.6486)" fill="#ECF2F5"/>
<rect x="200.45" y="25.6179" width="2.04286" height="14.3" fill="#9B9FB0"/>
<rect x="200.45" y="54.7286" width="2.04286" height="14.3" fill="#9B9FB0"/>
<rect x="200.45" y="87.4143" width="2.04286" height="14.3" fill="#9B9FB0"/>
<rect x="200.45" y="121.121" width="2.04286" height="14.3" fill="#9B9FB0"/>
<path d="M29.5078 62.9414C29.5078 63.6641 29.2604 64.2207 28.7656 64.6113C28.2741 64.9987 27.5693 65.1924 26.6514 65.1924H25.8115V68H24.9814V60.8613H26.832C28.6159 60.8613 29.5078 61.5547 29.5078 62.9414ZM25.8115 64.4795H26.5586C27.2943 64.4795 27.8265 64.3607 28.1553 64.123C28.484 63.8854 28.6484 63.5046 28.6484 62.9805C28.6484 62.5085 28.4938 62.1569 28.1846 61.9258C27.8753 61.6947 27.3936 61.5791 26.7393 61.5791H25.8115V64.4795ZM31.6465 62.6484V66.1201C31.6465 66.5563 31.7458 66.8818 31.9443 67.0967C32.1429 67.3115 32.4538 67.4189 32.877 67.4189C33.4368 67.4189 33.8454 67.266 34.1025 66.96C34.363 66.654 34.4932 66.1543 34.4932 65.4609V62.6484H35.3037V68H34.6348L34.5176 67.2822H34.4736C34.3076 67.5459 34.0765 67.7477 33.7803 67.8877C33.4873 68.0277 33.152 68.0977 32.7744 68.0977C32.1234 68.0977 31.6351 67.943 31.3096 67.6338C30.9873 67.3245 30.8262 66.8298 30.8262 66.1494V62.6484H31.6465ZM37.8379 68H37.0273V60.4023H37.8379V68ZM43.0088 66.54C43.0088 67.0381 42.8232 67.4222 42.4521 67.6924C42.0811 67.9626 41.5602 68.0977 40.8896 68.0977C40.18 68.0977 39.6266 67.9854 39.2295 67.7607V67.0088C39.4867 67.139 39.7617 67.2415 40.0547 67.3164C40.3509 67.3913 40.6357 67.4287 40.9092 67.4287C41.3324 67.4287 41.6579 67.362 41.8857 67.2285C42.1136 67.0918 42.2275 66.8851 42.2275 66.6084C42.2275 66.4001 42.1364 66.2227 41.9541 66.0762C41.7751 65.9264 41.4235 65.7507 40.8994 65.5488C40.4014 65.3633 40.0465 65.2021 39.835 65.0654C39.6266 64.9255 39.4704 64.7676 39.3662 64.5918C39.2653 64.416 39.2148 64.2061 39.2148 63.9619C39.2148 63.5257 39.3923 63.1823 39.7471 62.9316C40.1019 62.6777 40.5885 62.5508 41.207 62.5508C41.7832 62.5508 42.3464 62.668 42.8965 62.9023L42.6084 63.5615C42.0713 63.3402 41.5846 63.2295 41.1484 63.2295C40.7643 63.2295 40.4746 63.2897 40.2793 63.4102C40.084 63.5306 39.9863 63.6966 39.9863 63.9082C39.9863 64.0514 40.0221 64.1735 40.0938 64.2744C40.1686 64.3753 40.2874 64.4714 40.4502 64.5625C40.613 64.6536 40.9255 64.7855 41.3877 64.958C42.0225 65.1891 42.4505 65.4219 42.6719 65.6562C42.8965 65.8906 43.0088 66.1852 43.0088 66.54ZM46.5928 68.0977C45.8018 68.0977 45.1768 67.8568 44.7178 67.375C44.262 66.8932 44.0342 66.2243 44.0342 65.3682C44.0342 64.5055 44.2458 63.8203 44.6689 63.3125C45.0954 62.8047 45.6667 62.5508 46.3828 62.5508C47.0534 62.5508 47.584 62.7721 47.9746 63.2148C48.3652 63.6543 48.5605 64.2354 48.5605 64.958V65.4707H44.874C44.8903 66.099 45.0482 66.5758 45.3477 66.9014C45.6504 67.2269 46.0752 67.3896 46.6221 67.3896C47.1982 67.3896 47.7679 67.2692 48.3311 67.0283V67.751C48.0446 67.8747 47.7728 67.9626 47.5156 68.0146C47.2617 68.07 46.9541 68.0977 46.5928 68.0977ZM46.373 63.2295C45.9434 63.2295 45.5999 63.3695 45.3428 63.6494C45.0889 63.9294 44.9391 64.3167 44.8936 64.8115H47.6914C47.6914 64.3005 47.5775 63.9098 47.3496 63.6396C47.1217 63.3662 46.7962 63.2295 46.373 63.2295ZM53.3555 68H52.5449V60.4023H53.3555V68ZM58.3652 68L58.2041 67.2383H58.165C57.8981 67.5736 57.6312 67.8014 57.3643 67.9219C57.1006 68.0391 56.7702 68.0977 56.373 68.0977C55.8424 68.0977 55.4258 67.9609 55.123 67.6875C54.8236 67.4141 54.6738 67.0251 54.6738 66.5205C54.6738 65.4398 55.5381 64.8734 57.2666 64.8213L58.1748 64.792V64.46C58.1748 64.04 58.0837 63.7308 57.9014 63.5322C57.7223 63.3304 57.4342 63.2295 57.0371 63.2295C56.5911 63.2295 56.0866 63.3662 55.5234 63.6396L55.2744 63.0195C55.5381 62.8763 55.8262 62.764 56.1387 62.6826C56.4544 62.6012 56.7702 62.5605 57.0859 62.5605C57.724 62.5605 58.196 62.7021 58.502 62.9854C58.8112 63.2686 58.9658 63.7227 58.9658 64.3477V68H58.3652ZM56.5342 67.4287C57.0387 67.4287 57.4342 67.2904 57.7207 67.0137C58.0104 66.737 58.1553 66.3496 58.1553 65.8516V65.3682L57.3447 65.4023C56.7002 65.4251 56.2347 65.526 55.9482 65.7051C55.665 65.8809 55.5234 66.1559 55.5234 66.5303C55.5234 66.8232 55.6113 67.0462 55.7871 67.1992C55.9661 67.3522 56.2152 67.4287 56.5342 67.4287ZM64.0928 66.54C64.0928 67.0381 63.9072 67.4222 63.5361 67.6924C63.165 67.9626 62.6442 68.0977 61.9736 68.0977C61.264 68.0977 60.7106 67.9854 60.3135 67.7607V67.0088C60.5706 67.139 60.8457 67.2415 61.1387 67.3164C61.4349 67.3913 61.7197 67.4287 61.9932 67.4287C62.4163 67.4287 62.7419 67.362 62.9697 67.2285C63.1976 67.0918 63.3115 66.8851 63.3115 66.6084C63.3115 66.4001 63.2204 66.2227 63.0381 66.0762C62.859 65.9264 62.5075 65.7507 61.9834 65.5488C61.4854 65.3633 61.1305 65.2021 60.9189 65.0654C60.7106 64.9255 60.5544 64.7676 60.4502 64.5918C60.3493 64.416 60.2988 64.2061 60.2988 63.9619C60.2988 63.5257 60.4762 63.1823 60.8311 62.9316C61.1859 62.6777 61.6725 62.5508 62.291 62.5508C62.8672 62.5508 63.4303 62.668 63.9805 62.9023L63.6924 63.5615C63.1553 63.3402 62.6686 63.2295 62.2324 63.2295C61.8483 63.2295 61.5586 63.2897 61.3633 63.4102C61.168 63.5306 61.0703 63.6966 61.0703 63.9082C61.0703 64.0514 61.1061 64.1735 61.1777 64.2744C61.2526 64.3753 61.3714 64.4714 61.5342 64.5625C61.6969 64.6536 62.0094 64.7855 62.4717 64.958C63.1064 65.1891 63.5345 65.4219 63.7559 65.6562C63.9805 65.8906 64.0928 66.1852 64.0928 66.54ZM67.6768 68.0977C66.8857 68.0977 66.2607 67.8568 65.8018 67.375C65.346 66.8932 65.1182 66.2243 65.1182 65.3682C65.1182 64.5055 65.3298 63.8203 65.7529 63.3125C66.1794 62.8047 66.7507 62.5508 67.4668 62.5508C68.1374 62.5508 68.668 62.7721 69.0586 63.2148C69.4492 63.6543 69.6445 64.2354 69.6445 64.958V65.4707H65.958C65.9743 66.099 66.1322 66.5758 66.4316 66.9014C66.7344 67.2269 67.1592 67.3896 67.7061 67.3896C68.2822 67.3896 68.8519 67.2692 69.415 67.0283V67.751C69.1286 67.8747 68.8568 67.9626 68.5996 68.0146C68.3457 68.07 68.0381 68.0977 67.6768 68.0977ZM67.457 63.2295C67.0273 63.2295 66.6839 63.3695 66.4268 63.6494C66.1729 63.9294 66.0231 64.3167 65.9775 64.8115H68.7754C68.7754 64.3005 68.6615 63.9098 68.4336 63.6396C68.2057 63.3662 67.8802 63.2295 67.457 63.2295ZM73.4727 62.5508C73.7103 62.5508 73.9235 62.5703 74.1123 62.6094L74 63.3613C73.7786 63.3125 73.5833 63.2881 73.4141 63.2881C72.9811 63.2881 72.61 63.4639 72.3008 63.8154C71.9948 64.167 71.8418 64.6048 71.8418 65.1289V68H71.0312V62.6484H71.7002L71.793 63.6396H71.832C72.0306 63.2913 72.2699 63.0228 72.5498 62.834C72.8298 62.6452 73.1374 62.5508 73.4727 62.5508Z" fill="#2677B2"/>
<path d="M104.178 130.421C104.178 131.336 103.994 132.096 103.626 132.701C103.258 133.307 102.739 133.717 102.068 133.932L103.768 135.699H102.562L101.17 134.088L100.901 134.098C99.8499 134.098 99.0378 133.777 98.4648 133.136C97.8952 132.491 97.6104 131.583 97.6104 130.411C97.6104 129.249 97.8968 128.349 98.4697 127.711C99.0426 127.07 99.8564 126.749 100.911 126.749C101.937 126.749 102.737 127.075 103.313 127.726C103.89 128.377 104.178 129.275 104.178 130.421ZM98.4893 130.421C98.4893 131.388 98.6943 132.122 99.1045 132.623C99.5179 133.121 100.117 133.37 100.901 133.37C101.692 133.37 102.29 133.121 102.693 132.623C103.097 132.125 103.299 131.391 103.299 130.421C103.299 129.461 103.097 128.733 102.693 128.238C102.293 127.74 101.699 127.491 100.911 127.491C100.12 127.491 99.5179 127.742 99.1045 128.243C98.6943 128.741 98.4893 129.467 98.4893 130.421ZM111.473 130.362C111.473 131.541 111.152 132.442 110.511 133.067C109.873 133.689 108.953 134 107.752 134H105.774V126.861H107.962C109.072 126.861 109.935 127.169 110.55 127.784C111.165 128.399 111.473 129.259 111.473 130.362ZM110.594 130.392C110.594 129.461 110.359 128.759 109.891 128.287C109.425 127.815 108.732 127.579 107.811 127.579H106.604V133.282H107.615C108.605 133.282 109.349 133.04 109.847 132.555C110.345 132.066 110.594 131.345 110.594 130.392Z" fill="#2677B2"/>
<path d="M148.9 43.5509C147.25 43.5509 145.988 43.102 145.113 42.2042C144.242 41.311 143.807 40.0235 143.807 38.3419V35.5734H153.801V38.6359C153.801 40.1899 153.371 41.3976 152.509 42.2589C151.648 43.1202 150.445 43.5509 148.9 43.5509ZM148.859 42.3204C150.162 42.3204 151.144 41.9923 151.805 41.336C152.466 40.6844 152.796 39.7137 152.796 38.4239V36.7355H144.812V38.1505C144.812 39.5359 145.152 40.5773 145.831 41.2745C146.514 41.9718 147.524 42.3204 148.859 42.3204ZM143.67 48.7804C143.67 47.673 144.008 46.798 144.682 46.1554C145.357 45.5174 146.293 45.1984 147.492 45.1984C148.699 45.1984 149.659 45.4946 150.37 46.087C151.081 46.684 151.436 47.4838 151.436 48.4864C151.436 49.4252 151.126 50.1681 150.506 50.715C149.891 51.2618 149.078 51.5353 148.066 51.5353H147.348V46.3741C146.469 46.3969 145.801 46.6179 145.345 47.0372C144.889 47.461 144.662 48.0558 144.662 48.8214C144.662 49.628 144.83 50.4256 145.167 51.214H144.156C143.983 50.8129 143.86 50.4324 143.787 50.0724C143.709 49.7169 143.67 49.2862 143.67 48.7804ZM150.486 48.4728C150.486 47.8712 150.29 47.3904 149.898 47.0304C149.506 46.6749 148.964 46.4653 148.271 46.4015V50.3185C148.986 50.3185 149.533 50.159 149.912 49.84C150.294 49.5209 150.486 49.0652 150.486 48.4728ZM143.807 63.0265H148.681C149.278 63.0265 149.725 62.8989 150.021 62.6437C150.322 62.3885 150.472 61.992 150.472 61.4542C150.472 60.7478 150.269 60.226 149.864 59.8888C149.458 59.5515 148.834 59.3829 147.991 59.3829H143.807V58.2482H148.681C149.278 58.2482 149.725 58.1206 150.021 57.8653C150.322 57.6101 150.472 57.2114 150.472 56.6691C150.472 55.9581 150.258 55.4363 149.83 55.1036C149.406 54.7755 148.708 54.6114 147.738 54.6114H143.807V53.4767H151.299V54.3995L150.274 54.5841V54.6388C150.639 54.853 150.923 55.1538 151.128 55.5411C151.333 55.9331 151.436 56.3706 151.436 56.8536C151.436 58.0249 151.012 58.7905 150.165 59.1505V59.2052C150.556 59.4285 150.866 59.7521 151.094 60.1759C151.322 60.5997 151.436 61.0828 151.436 61.6251C151.436 62.4728 151.217 63.1062 150.78 63.5255C150.347 63.9493 149.652 64.1612 148.695 64.1612H143.807V63.0265ZM151.299 67.5724H146.439C145.828 67.5724 145.373 67.7114 145.072 67.9894C144.771 68.2674 144.621 68.7026 144.621 69.295C144.621 70.0789 144.835 70.6508 145.263 71.0109C145.692 71.3754 146.391 71.5577 147.362 71.5577H151.299V72.6925H143.807V71.756L144.812 71.5919V71.5304C144.443 71.298 144.16 70.9744 143.964 70.5597C143.768 70.1495 143.67 69.6801 143.67 69.1515C143.67 68.24 143.887 67.5564 144.32 67.1007C144.753 66.6495 145.445 66.4239 146.398 66.4239H151.299V67.5724ZM143.807 76.2403V75.1056H154.444V76.2403H143.807ZM144.607 81.0665C144.607 81.267 144.621 81.4607 144.648 81.6476C144.68 81.8344 144.712 81.9825 144.744 82.0919H143.875C143.816 81.9689 143.768 81.7866 143.732 81.545C143.691 81.3081 143.67 81.0939 143.67 80.9025C143.67 79.4532 144.434 78.7286 145.96 78.7286H150.417V77.6554H150.964L151.436 78.7286L153.036 79.2071V79.8634H151.299V82.0372H150.417V79.8634H146.008C145.557 79.8634 145.211 79.9705 144.969 80.1847C144.728 80.3989 144.607 80.6928 144.607 81.0665ZM143.807 84.7306V83.5958H151.299V84.7306H143.807ZM153.33 83.5001C153.589 83.5001 153.778 83.5639 153.897 83.6915C154.02 83.8191 154.082 83.9786 154.082 84.17C154.082 84.3523 154.02 84.5096 153.897 84.6417C153.774 84.7739 153.585 84.84 153.33 84.84C153.074 84.84 152.883 84.7739 152.755 84.6417C152.632 84.5096 152.571 84.3523 152.571 84.17C152.571 83.9786 152.632 83.8191 152.755 83.6915C152.883 83.5639 153.074 83.5001 153.33 83.5001ZM143.67 90.6232C143.67 90.1355 143.759 89.6889 143.937 89.2833C144.119 88.8823 144.397 88.545 144.771 88.2716V88.1896C144.333 88.2442 143.919 88.2716 143.527 88.2716H140.444V87.1368H151.299V88.0597L150.274 88.2169V88.2716C150.684 88.5633 150.98 88.9028 151.163 89.2901C151.345 89.6775 151.436 90.1219 151.436 90.6232C151.436 91.6166 151.097 92.3823 150.417 92.92C149.738 93.4623 148.786 93.7335 147.56 93.7335C146.33 93.7335 145.373 93.4578 144.689 92.9064C144.01 92.3595 143.67 91.5984 143.67 90.6232ZM150.472 90.4591C150.472 89.6935 150.26 89.1398 149.836 88.798C149.413 88.4562 148.738 88.2807 147.813 88.2716H147.56C146.507 88.2716 145.753 88.447 145.297 88.798C144.846 89.1489 144.621 89.7117 144.621 90.4864C144.621 91.1336 144.883 91.6394 145.407 92.004C145.931 92.3732 146.653 92.5577 147.574 92.5577C148.508 92.5577 149.223 92.3732 149.72 92.004C150.222 91.6394 150.472 91.1245 150.472 90.4591ZM143.807 96.8575V95.7228H154.444V96.8575H143.807ZM143.67 102.429C143.67 101.321 144.008 100.446 144.682 99.8038C145.357 99.1658 146.293 98.8468 147.492 98.8468C148.699 98.8468 149.659 99.143 150.37 99.7355C151.081 100.332 151.436 101.132 151.436 102.135C151.436 103.074 151.126 103.817 150.506 104.363C149.891 104.91 149.078 105.184 148.066 105.184H147.348V100.023C146.469 100.045 145.801 100.266 145.345 100.686C144.889 101.109 144.662 101.704 144.662 102.47C144.662 103.276 144.83 104.074 145.167 104.862H144.156C143.983 104.461 143.86 104.081 143.787 103.721C143.709 103.365 143.67 102.935 143.67 102.429ZM150.486 102.121C150.486 101.52 150.29 101.039 149.898 100.679C149.506 100.323 148.964 100.114 148.271 100.05V103.967C148.986 103.967 149.533 103.807 149.912 103.488C150.294 103.169 150.486 102.714 150.486 102.121ZM147.642 108.93L151.299 106.325V107.617L148.428 109.593L151.299 111.562V112.84L147.642 110.235L143.807 112.977V111.692L146.842 109.593L143.807 107.474V106.189L147.642 108.93ZM143.67 117.632C143.67 116.525 144.008 115.65 144.682 115.007C145.357 114.369 146.293 114.05 147.492 114.05C148.699 114.05 149.659 114.346 150.37 114.939C151.081 115.536 151.436 116.335 151.436 117.338C151.436 118.277 151.126 119.02 150.506 119.567C149.891 120.113 149.078 120.387 148.066 120.387H147.348V115.226C146.469 115.248 145.801 115.47 145.345 115.889C144.889 116.313 144.662 116.907 144.662 117.673C144.662 118.48 144.83 119.277 145.167 120.066H144.156C143.983 119.664 143.86 119.284 143.787 118.924C143.709 118.568 143.67 118.138 143.67 117.632ZM150.486 117.324C150.486 116.723 150.29 116.242 149.898 115.882C149.506 115.526 148.964 115.317 148.271 115.253V119.17C148.986 119.17 149.533 119.011 149.912 118.692C150.294 118.373 150.486 117.917 150.486 117.324ZM151.436 125.746C151.436 126.079 151.409 126.377 151.354 126.642L150.301 126.484C150.37 126.175 150.404 125.901 150.404 125.664C150.404 125.058 150.158 124.539 149.666 124.106C149.173 123.677 148.56 123.463 147.827 123.463H143.807V122.328H151.299V123.265L149.912 123.395V123.449C150.399 123.727 150.775 124.062 151.04 124.454C151.304 124.846 151.436 125.277 151.436 125.746Z" fill="#ECF2F5"/>
</g>
<defs>
<filter id="filter0_d_447_524" x="0.981445" y="0" width="263.815" height="191" filterUnits="userSpaceOnUse" color-interpolation-filters="sRGB">
<feFlood flood-opacity="0" result="BackgroundImageFix"/>
<feColorMatrix in="SourceAlpha" type="matrix" values="0 0 0 0 0 0 0 0 0 0 0 0 0 0 0 0 0 0 127 0" result="hardAlpha"/>
<feOffset dy="4"/>
<feGaussianBlur stdDeviation="12"/>
<feComposite in2="hardAlpha" operator="out"/>
<feColorMatrix type="matrix" values="0 0 0 0 0.780938 0 0 0 0 0.781181 0 0 0 0 0.7875 0 0 0 0.7 0"/>
<feBlend mode="normal" in2="BackgroundImageFix" result="effect1_dropShadow_447_524"/>
<feBlend mode="normal" in="SourceGraphic" in2="effect1_dropShadow_447_524" result="shape"/>
</filter>
</defs>
</svg>
