<svg width="24" height="24" viewBox="0 0 24 24" fill="none" xmlns="http://www.w3.org/2000/svg">
<path d="M6.46997 8.48804C6.15997 8.48804 6 8.41802 6 8.27802C6 8.01302 6.1201 7.654 6.3501 7.203C6.5801 6.751 6.90003 6.27504 7.28003 5.77704C7.67003 5.27804 8.17001 4.86502 8.76001 4.53802C9.35001 4.21102 9.95006 4.031 10.5601 4C10.9801 4 11.2301 4.00799 11.3301 4.02399C12.0801 4.19499 12.6899 4.61601 13.1699 5.28601C13.6599 5.95601 14.0699 6.97702 14.4099 8.34802C14.6299 9.28302 14.74 9.94502 14.74 10.335C14.74 10.397 14.75 10.428 14.76 10.428L15.04 9.797C15.36 9.002 15.7101 8.16902 16.1001 7.29602C16.4901 6.42302 16.8201 5.71401 17.1001 5.16901C17.3801 4.62401 17.5499 4.32002 17.6199 4.25702C17.6499 4.24202 17.77 4.23401 17.99 4.23401H18.29C18.39 4.32801 18.4299 4.39803 18.4299 4.44403C18.4299 4.50703 18.2699 4.85002 17.9399 5.47302C17.6199 6.09602 17.1601 7.08604 16.5601 8.44104C15.9701 9.79704 15.4099 11.199 14.8799 12.649C14.7899 12.898 14.6901 13.404 14.5801 14.168C14.4701 14.931 14.3001 15.757 14.0901 16.645C13.8401 17.658 13.63 18.359 13.46 18.749C13.28 19.139 13.0701 19.341 12.8201 19.357C12.5601 19.357 12.4299 19.139 12.4299 18.702C12.4299 17.923 12.8499 16.209 13.6899 13.56L13.8301 13.116L13.8501 12.695C13.8701 12.539 13.8799 12.298 13.8799 11.971C13.8799 9.52401 13.43 7.83399 12.54 6.89899C11.92 6.30699 11.1801 6.01001 10.3201 6.01001C9.58007 6.01001 8.89002 6.21304 8.27002 6.61804C7.64002 7.02304 7.19993 7.56102 6.92993 8.23102C6.89993 8.37102 6.87009 8.44104 6.84009 8.44104C6.81009 8.47204 6.67997 8.48804 6.46997 8.48804Z" fill="white"/>
</svg>
