<svg width="10" height="15" viewBox="0 0 10 15" fill="none" xmlns="http://www.w3.org/2000/svg">
<path d="M6.61857 0.0999756C6.66027 0.0399756 6.72277 0.0100098 6.80607 0.0100098H6.93097H7.13407C7.19657 0.0700098 7.22787 0.110005 7.22787 0.130005C7.22787 0.200005 7.07157 0.840049 6.75917 2.05005C6.68627 2.34005 6.61337 2.64997 6.54047 2.96997C6.46757 3.29997 6.40507 3.53994 6.35307 3.68994L6.29057 3.93994C6.29057 3.94994 6.33737 3.95996 6.43117 3.95996C6.52487 3.95996 6.69147 3.99005 6.93097 4.05005C7.17057 4.12005 7.42047 4.19995 7.68087 4.31995C8.13907 4.53995 8.51917 4.85002 8.82127 5.27002C9.12327 5.69002 9.27427 6.19004 9.27427 6.79004C9.27427 7.38004 9.11287 7.94999 8.78997 8.48999C8.46717 9.02999 8.06617 9.47996 7.58717 9.82996C7.10807 10.19 6.60297 10.4701 6.07187 10.6801C5.54067 10.8801 5.04607 10.99 4.58777 11H4.52527L4.15037 12.49C4.08787 12.73 4.02017 13.01 3.94727 13.35C3.86397 13.68 3.80677 13.8799 3.77547 13.9399C3.74427 13.9999 3.68177 14.04 3.58807 14.05H3.49427C3.28597 14.05 3.18187 14.0099 3.18187 13.9399C3.18187 13.8899 3.29637 13.39 3.52557 12.46L3.88487 11.02C3.88487 11.01 3.84317 11 3.75987 11C3.70777 11 3.60367 10.99 3.44747 10.97C3.29117 10.95 3.05687 10.88 2.74447 10.75C2.43207 10.63 2.15087 10.47 1.90087 10.29C1.65097 10.1 1.41667 9.81996 1.19797 9.45996C0.979269 9.08996 0.88027 8.67005 0.90117 8.18005C0.90117 7.55005 1.07297 6.96003 1.41667 6.41003C1.76027 5.86003 2.18207 5.40995 2.68197 5.06995C3.18187 4.71995 3.68697 4.45001 4.19727 4.26001C4.70757 4.06001 5.16577 3.95996 5.57197 3.95996C5.62407 3.95996 5.65527 3.94002 5.66567 3.90002L6.13437 1.98999C6.45717 0.74999 6.61857 0.119976 6.61857 0.0999756ZM2.13527 8.5C2.13527 8.86 2.19767 9.17005 2.32267 9.43005C2.44767 9.69005 2.61947 9.88002 2.83817 10.02C3.05687 10.16 3.24437 10.25 3.40057 10.3C3.55677 10.35 3.73387 10.3901 3.93167 10.4301H4.04107L5.49387 4.54004C5.45217 4.54004 5.39487 4.54005 5.32197 4.55005C5.24907 4.56005 5.09807 4.60005 4.86897 4.68005C4.63987 4.75005 4.42117 4.83005 4.21287 4.93005C4.00457 5.02005 3.77547 5.17 3.52557 5.38C3.27557 5.59 3.06207 5.82998 2.88507 6.09998C2.69757 6.38998 2.52577 6.74002 2.36957 7.15002C2.21337 7.62002 2.13527 8.08 2.13527 8.5ZM8.04017 6.43994C8.04017 6.04994 7.95687 5.71005 7.79017 5.43005C7.62357 5.15005 7.41527 4.94996 7.16537 4.82996C6.91537 4.71996 6.71227 4.63998 6.55607 4.59998C6.39987 4.55998 6.27487 4.54004 6.18117 4.54004H6.13437L5.41577 7.45996L4.66587 10.39C4.66587 10.42 4.67107 10.4301 4.68157 10.4301C4.76487 10.4301 4.93147 10.39 5.18137 10.33C5.43137 10.27 5.63967 10.2 5.80627 10.11C6.25407 9.91999 6.63937 9.64004 6.96227 9.29004C7.28507 8.93004 7.51427 8.56994 7.64957 8.18994C7.78497 7.81994 7.88397 7.47994 7.94637 7.18994C8.00887 6.89994 8.04017 6.64994 8.04017 6.43994Z" fill="white"/>
</svg>
