<svg width="9" height="14" viewBox="0 0 9 14" fill="none" xmlns="http://www.w3.org/2000/svg">
<path d="M0.898438 9.69995C0.898438 8.46995 1.13374 7.17006 1.60434 5.81006C2.07494 4.44006 2.71444 3.27003 3.52294 2.28003C4.33134 1.29003 5.16993 0.719956 6.03873 0.579956C6.05073 0.579956 6.09904 0.579956 6.18354 0.579956C6.26794 0.579956 6.34034 0.570059 6.40074 0.560059C7.05224 0.610059 7.55904 0.899941 7.92104 1.43994C8.39164 2.16994 8.62694 3.13999 8.62694 4.35999C8.62694 5.74999 8.35544 7.15997 7.81244 8.58997C7.26944 10.03 6.57564 11.21 5.73104 12.12C4.88634 13.04 4.07794 13.5 3.30574 13.5H3.17904C2.74464 13.5 2.37054 13.38 2.05684 13.14C1.74314 12.9 1.50784 12.5801 1.35094 12.1801C1.19414 11.7801 1.07944 11.38 1.00704 10.96C0.934642 10.55 0.898438 10.13 0.898438 9.69995ZM7.19704 3.06995C7.19704 1.83995 6.87734 1.22998 6.23784 1.22998C5.80344 1.22998 5.38114 1.50004 4.97084 2.04004C4.56064 2.58004 4.22274 3.20001 3.95724 3.89001C3.69184 4.58001 3.48674 5.17995 3.34194 5.69995C3.19714 6.21995 3.11864 6.51998 3.10664 6.59998C3.69784 6.60998 4.28304 6.62 4.86224 6.62L6.61794 6.59998C6.62994 6.58998 6.67824 6.39001 6.76264 6.01001C6.84714 5.62001 6.94364 5.14006 7.05224 4.56006C7.16084 3.98006 7.20914 3.47995 7.19704 3.06995ZM2.31024 10.9301C2.31024 12.2101 2.62994 12.85 3.26954 12.85C3.45054 12.85 3.64354 12.79 3.84864 12.67C4.05384 12.55 4.30114 12.32 4.59074 11.98C4.88034 11.64 5.16994 11.12 5.45954 10.4C5.74914 9.69002 6.03874 8.81001 6.32834 7.76001L6.41884 7.44995H2.88943C2.88943 7.48995 2.83514 7.72001 2.72654 8.14001C2.61794 8.56001 2.52144 9.03005 2.43694 9.55005C2.35244 10.07 2.31024 10.5301 2.31024 10.9301Z" fill="white"/>
</svg>
