<?xml version="1.0" encoding="UTF-8" standalone="no"?>
<!-- Created with Inkscape (http://www.inkscape.org/) -->

<svg
   xmlns:dc="http://purl.org/dc/elements/1.1/"
   xmlns:cc="http://creativecommons.org/ns#"
   xmlns:rdf="http://www.w3.org/1999/02/22-rdf-syntax-ns#"
   xmlns:svg="http://www.w3.org/2000/svg"
   xmlns="http://www.w3.org/2000/svg"
   xmlns:xlink="http://www.w3.org/1999/xlink"
   xmlns:sodipodi="http://sodipodi.sourceforge.net/DTD/sodipodi-0.dtd"
   xmlns:inkscape="http://www.inkscape.org/namespaces/inkscape"
   width="28mm"
   height="28mm"
   viewBox="0 0 28 28"
   version="1.1"
   id="svg2363"
   inkscape:version="0.92.5 (2060ec1f9f, 2020-04-08)"
   sodipodi:docname="GHZ4_cir0002_cluster.svg">
  <defs
     id="defs2357">
    <radialGradient
       id="paint10_radial"
       cx="0"
       cy="0"
       r="1"
       gradientUnits="userSpaceOnUse"
       gradientTransform="matrix(0,7.38426,-7.38426,0,151.66897,883.12976)">
      <stop
         stop-color="#A5CBE7"
         id="stop922" />
      <stop
         offset="1"
         stop-color="#2677B2"
         id="stop924" />
    </radialGradient>
    <radialGradient
       id="paint9_radial"
       cx="0"
       cy="0"
       r="1"
       gradientUnits="userSpaceOnUse"
       gradientTransform="matrix(0,7.38426,-7.38426,0,178.00676,844.384)">
      <stop
         stop-color="#A5CBE7"
         id="stop917" />
      <stop
         offset="1"
         stop-color="#2677B2"
         id="stop919" />
    </radialGradient>
    <radialGradient
       id="paint11_radial"
       cx="0"
       cy="0"
       r="1"
       gradientUnits="userSpaceOnUse"
       gradientTransform="matrix(0,7.38426,-7.38426,0,143.26306,844.462)">
      <stop
         stop-color="#A5CBE7"
         id="stop927" />
      <stop
         offset="1"
         stop-color="#2677B2"
         id="stop929" />
    </radialGradient>
    <radialGradient
       id="paint8_radial"
       cx="0"
       cy="0"
       r="1"
       gradientUnits="userSpaceOnUse"
       gradientTransform="matrix(0,7.38426,-7.38426,0,116.92497,883.12976)">
      <stop
         stop-color="#A5CBE7"
         id="stop912" />
      <stop
         offset="1"
         stop-color="#2677B2"
         id="stop914" />
    </radialGradient>
    <radialGradient
       id="paint10_radial-56"
       cx="0"
       cy="0"
       r="1"
       gradientUnits="userSpaceOnUse"
       gradientTransform="matrix(0,7.38426,-7.38426,0,151.66897,883.12976)">
      <stop
         stop-color="#A5CBE7"
         id="stop922-1" />
      <stop
         offset="1"
         stop-color="#2677B2"
         id="stop924-4" />
    </radialGradient>
    <radialGradient
       id="paint9_radial-0"
       cx="0"
       cy="0"
       r="1"
       gradientUnits="userSpaceOnUse"
       gradientTransform="matrix(0,7.38426,-7.38426,0,178.00676,844.384)">
      <stop
         stop-color="#A5CBE7"
         id="stop917-3" />
      <stop
         offset="1"
         stop-color="#2677B2"
         id="stop919-1" />
    </radialGradient>
    <radialGradient
       id="paint11_radial-2"
       cx="0"
       cy="0"
       r="1"
       gradientUnits="userSpaceOnUse"
       gradientTransform="matrix(0,7.38426,-7.38426,0,143.26306,844.462)">
      <stop
         stop-color="#A5CBE7"
         id="stop927-7" />
      <stop
         offset="1"
         stop-color="#2677B2"
         id="stop929-79" />
    </radialGradient>
    <radialGradient
       id="paint8_radial-8"
       cx="0"
       cy="0"
       r="1"
       gradientUnits="userSpaceOnUse"
       gradientTransform="matrix(0,7.38426,-7.38426,0,116.92497,883.12976)">
      <stop
         stop-color="#A5CBE7"
         id="stop912-1" />
      <stop
         offset="1"
         stop-color="#2677B2"
         id="stop914-0" />
    </radialGradient>
    <radialGradient
       id="paint15_radial-4-8-4"
       cx="0"
       cy="0"
       r="1"
       gradientUnits="userSpaceOnUse"
       gradientTransform="matrix(0,1.9537521,-1.9537521,0,2.5584531,283.89254)">
      <stop
         stop-color="#A5CBE7"
         id="stop1094-8-1-8" />
      <stop
         offset="1"
         stop-color="#2677B2"
         id="stop1096-7-6-9" />
    </radialGradient>
    <radialGradient
       id="paint14_radial-0-8-6"
       cx="0"
       cy="0"
       r="1"
       gradientUnits="userSpaceOnUse"
       gradientTransform="matrix(0,1.9537521,-1.9537521,0,22.199003,283.87138)">
      <stop
         stop-color="#A5CBE7"
         id="stop1089-8-5-7" />
      <stop
         offset="1"
         stop-color="#2677B2"
         id="stop1091-6-2-7" />
    </radialGradient>
    <radialGradient
       id="paint13_radial-2-1-3"
       cx="0"
       cy="0"
       r="1"
       gradientUnits="userSpaceOnUse"
       gradientTransform="matrix(0,1.9537521,-1.9537521,0,9.1053028,283.87138)">
      <stop
         stop-color="#A5CBE7"
         id="stop1084-4-9-7" />
      <stop
         offset="1"
         stop-color="#2677B2"
         id="stop1086-7-9-1" />
    </radialGradient>
    <radialGradient
       id="paint12_radial-9-6-2"
       cx="0"
       cy="0"
       r="1"
       gradientUnits="userSpaceOnUse"
       gradientTransform="matrix(0,1.9537521,-1.9537521,0,15.652153,283.87138)">
      <stop
         stop-color="#A5CBE7"
         id="stop1079-3-0-2" />
      <stop
         offset="1"
         stop-color="#2677B2"
         id="stop1081-9-6-1" />
    </radialGradient>
    <radialGradient
       inkscape:collect="always"
       xlink:href="#paint9_radial-0-3"
       id="radialGradient20460"
       gradientUnits="userSpaceOnUse"
       gradientTransform="matrix(0,7.38426,-7.38426,0,178.00676,879.84404)"
       cx="0"
       cy="0"
       r="1" />
    <radialGradient
       id="paint9_radial-0-3"
       cx="0"
       cy="0"
       r="1"
       gradientUnits="userSpaceOnUse"
       gradientTransform="matrix(0,7.38426,-7.38426,0,178.00676,844.384)">
      <stop
         stop-color="#A5CBE7"
         id="stop917-3-6" />
      <stop
         offset="1"
         stop-color="#2677B2"
         id="stop919-1-7" />
    </radialGradient>
    <radialGradient
       inkscape:collect="always"
       xlink:href="#paint11_radial-2-5"
       id="radialGradient20462"
       gradientUnits="userSpaceOnUse"
       gradientTransform="matrix(0,7.38426,-7.38426,0,143.26306,844.462)"
       cx="0"
       cy="0"
       r="1" />
    <radialGradient
       id="paint11_radial-2-5"
       cx="0"
       cy="0"
       r="1"
       gradientUnits="userSpaceOnUse"
       gradientTransform="matrix(0,7.38426,-7.38426,0,143.26306,844.462)">
      <stop
         stop-color="#A5CBE7"
         id="stop927-7-3" />
      <stop
         offset="1"
         stop-color="#2677B2"
         id="stop929-79-5" />
    </radialGradient>
    <radialGradient
       inkscape:collect="always"
       xlink:href="#paint8_radial-8-6"
       id="radialGradient20464"
       gradientUnits="userSpaceOnUse"
       gradientTransform="matrix(0,7.38426,-7.38426,0,116.92497,883.12976)"
       cx="0"
       cy="0"
       r="1" />
    <radialGradient
       id="paint8_radial-8-6"
       cx="0"
       cy="0"
       r="1"
       gradientUnits="userSpaceOnUse"
       gradientTransform="matrix(0,7.38426,-7.38426,0,116.92497,883.12976)">
      <stop
         stop-color="#A5CBE7"
         id="stop912-1-2" />
      <stop
         offset="1"
         stop-color="#2677B2"
         id="stop914-0-9" />
    </radialGradient>
    <radialGradient
       inkscape:collect="always"
       xlink:href="#paint10_radial-56-1"
       id="radialGradient20458"
       gradientUnits="userSpaceOnUse"
       gradientTransform="matrix(0,7.38426,-7.38426,0,151.66897,883.12976)"
       cx="0"
       cy="0"
       r="1" />
    <radialGradient
       id="paint10_radial-56-1"
       cx="0"
       cy="0"
       r="1"
       gradientUnits="userSpaceOnUse"
       gradientTransform="matrix(0,7.38426,-7.38426,0,151.66897,883.12976)">
      <stop
         stop-color="#A5CBE7"
         id="stop922-1-2" />
      <stop
         offset="1"
         stop-color="#2677B2"
         id="stop924-4-7" />
    </radialGradient>
  </defs>
  <sodipodi:namedview
     id="base"
     pagecolor="#ffffff"
     bordercolor="#666666"
     borderopacity="1.0"
     inkscape:pageopacity="0.0"
     inkscape:pageshadow="2"
     inkscape:zoom="2.8"
     inkscape:cx="63.916699"
     inkscape:cy="27.565708"
     inkscape:document-units="mm"
     inkscape:current-layer="layer1"
     showgrid="false"
     inkscape:window-width="1366"
     inkscape:window-height="704"
     inkscape:window-x="0"
     inkscape:window-y="27"
     inkscape:window-maximized="1" />
  <metadata
     id="metadata2360">
    <rdf:RDF>
      <cc:Work
         rdf:about="">
        <dc:format>image/svg+xml</dc:format>
        <dc:type
           rdf:resource="http://purl.org/dc/dcmitype/StillImage" />
        <dc:title />
      </cc:Work>
    </rdf:RDF>
  </metadata>
  <g
     inkscape:label="Layer 1"
     inkscape:groupmode="layer"
     id="layer1"
     transform="translate(0,-269)">
    <g
       id="g3514"
       transform="rotate(-90,14.174107,283)">
      <g
         transform="matrix(0.26458333,0,0,0.26458333,-25.954933,53.719906)"
         id="g20478"
         style="fill:none">
        <path
           style="fill:#ffffff"
           inkscape:connector-curvature="0"
           id="path20432"
           d="m 147.4822,832.09203 v -2.2632 h 6.196 l 1.018,0.022 1.114,0.0366 c -0.376,-0.3759 -0.623,-0.6372 -0.74,-0.7837 l -0.989,-1.2304 1.362,-1.0913 2.747,3.4497 v 1.8603 z" />
        <path
           style="fill:#ffffff"
           inkscape:connector-curvature="0"
           id="path20434"
           d="m 147.4052,906.21776 v -7.485 h 1.575 l 2.717,2.688 c 0.815,0.796 1.379,1.316 1.692,1.56 0.317,0.244 0.61,0.42 0.879,0.527 0.268,0.108 0.547,0.161 0.835,0.161 0.429,0 0.749,-0.119 0.959,-0.358 0.21,-0.235 0.315,-0.55 0.315,-0.945 0,-0.415 -0.095,-0.818 -0.285,-1.209 -0.191,-0.39 -0.462,-0.798 -0.813,-1.223 l 1.457,-1.23 c 0.449,0.527 0.767,0.964 0.952,1.311 0.186,0.346 0.327,0.725 0.425,1.135 0.103,0.41 0.154,0.869 0.154,1.377 0,0.669 -0.122,1.26 -0.366,1.772 -0.245,0.513 -0.586,0.911 -1.026,1.194 -0.439,0.283 -0.942,0.425 -1.509,0.425 -0.493,0 -0.957,-0.088 -1.391,-0.264 -0.43,-0.171 -0.872,-0.439 -1.326,-0.805 -0.454,-0.362 -1.101,-1.001 -1.941,-1.919 l -1.296,-1.377 h -0.103 v 4.665 z" />
        <path
           style="fill:#ffffff"
           inkscape:connector-curvature="0"
           id="path20436"
           d="m 190.01408,905.92876 c -0.669,0 -1.238,-0.203 -1.707,-0.608 -0.468,-0.405 -0.791,-0.974 -0.966,-1.707 h -0.044 c -0.108,0.865 -0.371,1.519 -0.791,1.963 -0.415,0.445 -0.977,0.667 -1.685,0.667 -1.03,0 -1.833,-0.374 -2.41,-1.121 -0.571,-0.747 -0.856,-1.814 -0.856,-3.201 0,-1.162 0.192,-2.192 0.578,-3.09 h 1.926 c -0.21,0.415 -0.38,0.871 -0.512,1.369 -0.132,0.498 -0.198,0.991 -0.198,1.48 0,0.747 0.127,1.299 0.381,1.655 0.254,0.356 0.661,0.535 1.223,0.535 0.503,0 0.859,-0.205 1.069,-0.616 0.21,-0.41 0.315,-1.064 0.315,-1.962 v -0.813 h 1.736 v 0.827 c 0,0.83 0.107,1.436 0.322,1.817 0.22,0.385 0.594,0.578 1.121,0.578 0.81,0 1.216,-0.508 1.216,-1.523 0,-0.352 -0.059,-0.711 -0.176,-1.077 -0.117,-0.361 -0.32,-0.764 -0.608,-1.208 l 1.56,-1.048 c 0.703,0.977 1.055,2.141 1.055,3.494 0,1.108 -0.225,1.982 -0.674,2.622 -0.449,0.645 -1.074,0.967 -1.875,0.967 z" />
        <path
           style="fill:#ffffff"
           inkscape:connector-curvature="0"
           id="path20438"
           d="m 111.78996,906.57326 v -1.289 h -2.219 v -2.212 h 2.219 v -4.57 h 1.575 l 6.914,4.695 v 2.087 h -6.731 v 1.289 z m 1.758,-3.501 h 1.816 c 0.303,0 0.743,0.012 1.319,0.037 0.576,0.024 0.91,0.044 1.003,0.058 v -0.058 c -0.4,-0.181 -0.791,-0.398 -1.172,-0.652 l -2.966,-1.963 z" />
        <path
           sodipodi:nodetypes="cc"
           style="stroke:#fafafa;stroke-width:0.5"
           inkscape:connector-curvature="0"
           d="m 123.69072,883.92776 h 21.14774"
           id="path20440" />
        <path
           id="path20442"
           d="m 151.66897,854.89063 v 20.85484"
           inkscape:connector-curvature="0"
           style="stroke:#fafafa;stroke-width:0.5"
           sodipodi:nodetypes="cc" />
        <g
           transform="translate(8.405899,3.285752)"
           id="g20452">
          <path
             d="m 150.63776,880.64201 h 21.14773"
             id="path20446"
             inkscape:connector-curvature="0"
             style="stroke:#fafafa;stroke-width:0.5"
             sodipodi:nodetypes="cc" />
          <circle
             cx="178.00676"
             cy="879.84399"
             r="7.3842602"
             id="circle20448"
             style="fill:url(#radialGradient20460)" />
          <circle
             cx="143.26306"
             cy="844.46198"
             r="7.3842602"
             id="circle20450"
             style="fill:url(#radialGradient20462)" />
        </g>
        <circle
           style="fill:url(#radialGradient20464)"
           id="circle20454"
           r="7.3842602"
           cy="883.12976"
           cx="116.92496" />
        <circle
           style="fill:url(#radialGradient20458)"
           id="circle20444"
           r="7.3842602"
           cy="883.12976"
           cx="151.66896" />
      </g>
    </g>
  </g>
</svg>
