<?xml version="1.0" encoding="UTF-8" standalone="no"?>
<!-- Created with Inkscape (http://www.inkscape.org/) -->

<svg
   xmlns:dc="http://purl.org/dc/elements/1.1/"
   xmlns:cc="http://creativecommons.org/ns#"
   xmlns:rdf="http://www.w3.org/1999/02/22-rdf-syntax-ns#"
   xmlns:svg="http://www.w3.org/2000/svg"
   xmlns="http://www.w3.org/2000/svg"
   xmlns:sodipodi="http://sodipodi.sourceforge.net/DTD/sodipodi-0.dtd"
   xmlns:inkscape="http://www.inkscape.org/namespaces/inkscape"
   width="28mm"
   height="28mm"
   viewBox="0 0 28 28"
   version="1.1"
   id="svg2363"
   inkscape:version="0.92.5 (2060ec1f9f, 2020-04-08)"
   sodipodi:docname="lc4_cir0002_cluster.svg">
  <defs
     id="defs2357">
    <radialGradient
       id="paint10_radial"
       cx="0"
       cy="0"
       r="1"
       gradientUnits="userSpaceOnUse"
       gradientTransform="matrix(0,7.38426,-7.38426,0,151.66897,883.12976)">
      <stop
         stop-color="#A5CBE7"
         id="stop922" />
      <stop
         offset="1"
         stop-color="#2677B2"
         id="stop924" />
    </radialGradient>
    <radialGradient
       id="paint9_radial"
       cx="0"
       cy="0"
       r="1"
       gradientUnits="userSpaceOnUse"
       gradientTransform="matrix(0,7.38426,-7.38426,0,151.66896,847.66975)">
      <stop
         stop-color="#A5CBE7"
         id="stop917" />
      <stop
         offset="1"
         stop-color="#2677B2"
         id="stop919" />
    </radialGradient>
    <radialGradient
       id="paint11_radial"
       cx="0"
       cy="0"
       r="1"
       gradientUnits="userSpaceOnUse"
       gradientTransform="matrix(0,7.38426,-7.38426,0,116.92526,847.74775)">
      <stop
         stop-color="#A5CBE7"
         id="stop927" />
      <stop
         offset="1"
         stop-color="#2677B2"
         id="stop929" />
    </radialGradient>
    <radialGradient
       id="paint8_radial"
       cx="0"
       cy="0"
       r="1"
       gradientUnits="userSpaceOnUse"
       gradientTransform="matrix(0,7.38426,-7.38426,0,116.92497,883.12976)">
      <stop
         stop-color="#A5CBE7"
         id="stop912" />
      <stop
         offset="1"
         stop-color="#2677B2"
         id="stop914" />
    </radialGradient>
  </defs>
  <sodipodi:namedview
     id="base"
     pagecolor="#ffffff"
     bordercolor="#666666"
     borderopacity="1.0"
     inkscape:pageopacity="0.0"
     inkscape:pageshadow="2"
     inkscape:zoom="7.9195959"
     inkscape:cx="20.728915"
     inkscape:cy="51.054902"
     inkscape:document-units="mm"
     inkscape:current-layer="g8222"
     showgrid="false"
     inkscape:window-width="1366"
     inkscape:window-height="704"
     inkscape:window-x="0"
     inkscape:window-y="27"
     inkscape:window-maximized="1" />
  <metadata
     id="metadata2360">
    <rdf:RDF>
      <cc:Work
         rdf:about="">
        <dc:format>image/svg+xml</dc:format>
        <dc:type
           rdf:resource="http://purl.org/dc/dcmitype/StillImage" />
        <dc:title />
      </cc:Work>
    </rdf:RDF>
  </metadata>
  <g
     inkscape:label="Layer 1"
     inkscape:groupmode="layer"
     id="layer1"
     transform="translate(0,-269)">
    <g
       id="g3011"
       transform="translate(-0.17410763,-1.1488108)">
      <g
         id="g8222"
         transform="matrix(0.26458333,0,0,0.26458333,-21.37767,55.132419)"
         style="fill:none">
        <path
           style="fill:#ffffff"
           inkscape:connector-curvature="0"
           id="path222"
           d="m 106.17178,840.11779 h -2.2632 v -6.196 l 0.022,-1.018 0.0366,-1.114 c -0.3759,0.376 -0.6372,0.623 -0.7837,0.74 l -1.2304,0.989 -1.0913,-1.362 3.4497,-2.747 h 1.8603 z" />
        <path
           style="fill:#ffffff"
           inkscape:connector-curvature="0"
           id="path224"
           d="m 167.36309,840.11779 h -7.485 v -1.575 l 2.688,-2.717 c 0.796,-0.815 1.316,-1.379 1.56,-1.692 0.244,-0.317 0.42,-0.61 0.527,-0.879 0.108,-0.268 0.161,-0.547 0.161,-0.835 0,-0.429 -0.119,-0.749 -0.358,-0.959 -0.235,-0.21 -0.55,-0.315 -0.945,-0.315 -0.415,0 -0.818,0.095 -1.209,0.285 -0.39,0.191 -0.798,0.462 -1.223,0.813 l -1.23,-1.457 c 0.527,-0.449 0.964,-0.767 1.311,-0.952 0.346,-0.186 0.725,-0.327 1.135,-0.425 0.41,-0.103 0.869,-0.154 1.377,-0.154 0.669,0 1.26,0.122 1.772,0.366 0.513,0.245 0.911,0.586 1.194,1.026 0.283,0.439 0.425,0.942 0.425,1.509 0,0.493 -0.088,0.957 -0.264,1.391 -0.171,0.43 -0.439,0.872 -0.805,1.326 -0.362,0.454 -1.001,1.101 -1.919,1.941 l -1.377,1.296 v 0.103 h 4.665 z" />
        <path
           style="fill:#ffffff"
           inkscape:connector-curvature="0"
           id="path226"
           d="m 167.25338,893.43676 c 0,0.669 -0.203,1.238 -0.608,1.707 -0.405,0.468 -0.974,0.791 -1.707,0.966 v 0.044 c 0.865,0.108 1.519,0.371 1.963,0.791 0.445,0.415 0.667,0.977 0.667,1.685 0,1.03 -0.374,1.833 -1.121,2.41 -0.747,0.571 -1.814,0.856 -3.201,0.856 -1.162,0 -2.192,-0.192 -3.09,-0.578 v -1.926 c 0.415,0.21 0.871,0.38 1.369,0.512 0.498,0.132 0.991,0.198 1.48,0.198 0.747,0 1.299,-0.127 1.655,-0.381 0.356,-0.254 0.535,-0.661 0.535,-1.223 0,-0.503 -0.205,-0.859 -0.616,-1.069 -0.41,-0.21 -1.064,-0.315 -1.962,-0.315 h -0.813 v -1.736 h 0.827 c 0.83,0 1.436,-0.107 1.817,-0.322 0.385,-0.22 0.578,-0.594 0.578,-1.121 0,-0.81 -0.508,-1.216 -1.523,-1.216 -0.352,0 -0.711,0.059 -1.077,0.176 -0.361,0.117 -0.764,0.32 -1.208,0.608 l -1.048,-1.56 c 0.977,-0.703 2.141,-1.055 3.494,-1.055 1.108,0 1.982,0.225 2.622,0.674 0.645,0.449 0.967,1.074 0.967,1.875 z" />
        <path
           style="fill:#ffffff"
           inkscape:connector-curvature="0"
           id="path228"
           d="m 108.58147,899.52276 h -1.289 v 2.219 h -2.212 v -2.219 h -4.57 v -1.575 l 4.695,-6.914 h 2.087 v 6.731 h 1.289 z m -3.501,-1.758 v -1.816 c 0,-0.303 0.012,-0.743 0.037,-1.319 0.024,-0.576 0.044,-0.91 0.058,-1.003 h -0.058 c -0.181,0.4 -0.398,0.791 -0.652,1.172 l -1.963,2.966 z" />
        <path
           sodipodi:nodetypes="cc"
           style="stroke:#fafafa;stroke-width:0.5"
           inkscape:connector-curvature="0"
           d="m 123.69072,883.12976 h 21.14774"
           id="path8201" />
        <path
           id="path8203"
           d="m 151.66896,854.89063 v 20.85484"
           inkscape:connector-curvature="0"
           style="stroke:#fafafa;stroke-width:0.5"
           sodipodi:nodetypes="cc" />
        <circle
           style="fill:url(#paint10_radial)"
           id="circle218"
           r="7.3842602"
           cy="883.12976"
           cx="151.66896" />
        <path
           sodipodi:nodetypes="cc"
           style="stroke:#fafafa;stroke-width:0.5"
           inkscape:connector-curvature="0"
           id="path212"
           d="m 124.29996,847.66972 h 21.14773" />
        <circle
           style="fill:url(#paint9_radial)"
           id="circle216"
           r="7.3842602"
           cy="847.66974"
           cx="151.66896" />
        <circle
           style="fill:url(#paint11_radial)"
           id="circle220"
           r="7.3842602"
           cy="847.74774"
           cx="116.92526" />
        <circle
           style="fill:url(#paint8_radial)"
           id="circle214"
           r="7.3842602"
           cy="883.12976"
           cx="116.92496" />
      </g>
    </g>
  </g>
</svg>
