<?xml version="1.0" encoding="UTF-8" standalone="no"?>
<!-- Created with Inkscape (http://www.inkscape.org/) -->

<svg
   xmlns:dc="http://purl.org/dc/elements/1.1/"
   xmlns:cc="http://creativecommons.org/ns#"
   xmlns:rdf="http://www.w3.org/1999/02/22-rdf-syntax-ns#"
   xmlns:svg="http://www.w3.org/2000/svg"
   xmlns="http://www.w3.org/2000/svg"
   xmlns:sodipodi="http://sodipodi.sourceforge.net/DTD/sodipodi-0.dtd"
   xmlns:inkscape="http://www.inkscape.org/namespaces/inkscape"
   width="386"
   height="113"
   viewBox="0 0 102.12916 29.897918"
   version="1.1"
   id="svg2705"
   inkscape:version="0.92.5 (2060ec1f9f, 2020-04-08)"
   sodipodi:docname="qm_d4_blue.svg">
  <defs
     id="defs2699" />
  <sodipodi:namedview
     id="base"
     pagecolor="#ffffff"
     bordercolor="#666666"
     borderopacity="1.0"
     inkscape:pageopacity="0.0"
     inkscape:pageshadow="2"
     inkscape:zoom="0.98994949"
     inkscape:cx="220.37883"
     inkscape:cy="16.515865"
     inkscape:document-units="mm"
     inkscape:current-layer="g3401"
     showgrid="false"
     units="px"
     inkscape:window-width="1366"
     inkscape:window-height="704"
     inkscape:window-x="0"
     inkscape:window-y="27"
     inkscape:window-maximized="1" />
  <metadata
     id="metadata2702">
    <rdf:RDF>
      <cc:Work
         rdf:about="">
        <dc:format>image/svg+xml</dc:format>
        <dc:type
           rdf:resource="http://purl.org/dc/dcmitype/StillImage" />
        <dc:title />
      </cc:Work>
    </rdf:RDF>
  </metadata>
  <g
     inkscape:label="Layer 1"
     inkscape:groupmode="layer"
     id="layer1"
     transform="translate(0,-267.10207)">
    <g
       id="g3401"
       transform="translate(-15.459226,136.2415)">
      <path
         id="path314-3"
         d="m 37.648511,135.90799 h -0.437999 v -1.19917 l 0.0043,-0.19692 0.0071,-0.21545 c -0.07273,0.0727 -0.123206,0.12047 -0.151585,0.14305 l -0.238202,0.19142 -0.211097,-0.26367 0.66748,-0.53153 h 0.360104 z"
         inkscape:connector-curvature="0"
         style="fill:#fafafa;stroke:none;stroke-width:0.16126597"
         sodipodi:nodetypes="ccccccccccc" />
      <path
         style="fill:none;stroke:#2677b2;stroke-width:0.35490075;stroke-opacity:1"
         inkscape:connector-curvature="0"
         id="path426"
         d="M 40.293483,134.99095 H 67.926411" />
      <path
         style="fill:none;stroke:#2677b2;stroke-width:0.35490075;stroke-opacity:1"
         inkscape:connector-curvature="0"
         id="path432"
         d="m 42.383849,134.13418 1.127519,0.78256 -1.127519,0.94049" />
      <rect
         style="fill:#eaa356;stroke:none;stroke-width:0.17745037"
         id="rect434"
         rx="0.35490075"
         height="5.1460609"
         width="14.164213"
         y="132.41968"
         x="47.492111" />
      <rect
         style="fill:#eaa356;stroke:none;stroke-width:0.17745037"
         id="rect436"
         rx="0.35490075"
         height="5.1460609"
         width="14.164213"
         y="132.41968"
         x="47.492111" />
      <rect
         style="fill:#2677b2;stroke:none;stroke-width:0.17745037;fill-opacity:1"
         id="rect438"
         rx="0.35490075"
         height="5.1460609"
         width="14.164213"
         y="132.41968"
         x="47.492111" />
      <path
         style="fill:#2677b2;stroke:none;stroke-width:0.17745037;fill-opacity:1"
         inkscape:connector-curvature="0"
         id="path446"
         d="m 67.693596,136.94468 v -3.81519 c 1.586762,0 4.527823,0.44363 4.644051,1.77451 0.116055,1.33087 -3.134835,1.95195 -4.644051,2.04068 z" />
      <path
         style="fill:#2677b2;stroke:none;stroke-width:0.17745037;fill-opacity:1"
         inkscape:connector-curvature="0"
         id="path448"
         d="m 67.693596,136.94468 v -3.81519 c 1.586762,0 4.527823,0.44363 4.644051,1.77451 0.116055,1.33087 -3.134835,1.95195 -4.644051,2.04068 z" />
      <path
         style="fill:none;stroke:#fafafa;stroke-width:0.08872519"
         inkscape:connector-curvature="0"
         id="path458"
         d="m 49.349841,133.66184 v 2.57303" />
      <path
         style="fill:none;stroke:#fafafa;stroke-width:0.08872519"
         inkscape:connector-curvature="0"
         id="path460"
         d="m 60.030934,133.66184 v 2.57303" />
      <path
         style="fill:#fafafa;stroke:none;stroke-width:0.17745037"
         inkscape:connector-curvature="0"
         id="path464"
         d="m 51.22833,135.79125 h -1.146507 v -2.02649 h 1.146507 v 0.28037 h -0.815206 v 0.55188 h 0.763923 v 0.27682 h -0.763923 v 0.63528 h 0.815206 z m 0.847681,0 h -0.203536 v -0.81804 c 0,-0.0976 0.0023,-0.17568 0.0069,-0.23247 -0.01331,0.0142 -0.02981,0.0302 -0.04951,0.0462 -0.01899,0.0178 -0.08376,0.0692 -0.193953,0.1597 l -0.102389,-0.12954 0.372646,-0.29279 h 0.16982 z" />
      <path
         style="fill:#fafafa;stroke:none;stroke-width:0.17745037"
         inkscape:connector-curvature="0"
         id="path466"
         d="m 57.729935,135.79125 h -1.146507 v -2.02649 h 1.146507 v 0.28037 h -0.815207 v 0.55188 h 0.763924 v 0.27682 h -0.763924 v 0.63528 h 0.815207 z m 0.847681,0 h -0.203714 v -0.81804 c 0,-0.0976 0.0025,-0.17568 0.0071,-0.23247 -0.01331,0.0142 -0.02981,0.0302 -0.04951,0.0462 -0.01899,0.0178 -0.08376,0.0692 -0.194132,0.1597 l -0.102211,-0.12954 0.372646,-0.29279 h 0.16982 z" />
      <path
         style="fill:none;stroke:#fafafa;stroke-width:0.08872519"
         inkscape:connector-curvature="0"
         id="path468"
         d="m 53.065119,133.66184 0.928776,1.267 -0.928776,1.39476" />
      <path
         style="fill:none;stroke:#fafafa;stroke-width:0.08872519"
         inkscape:connector-curvature="0"
         id="path470"
         d="m 53.065119,133.66184 0.928776,1.267 -0.928776,1.39476" />
      <path
         style="fill:none;stroke:#fafafa;stroke-width:0.08872519"
         inkscape:connector-curvature="0"
         id="path472"
         d="m 55.619162,133.66184 -0.928775,1.267 0.928775,1.39476" />
      <path
         style="fill:none;stroke:#fafafa;stroke-width:0.08872519"
         inkscape:connector-curvature="0"
         id="path474"
         d="m 55.619162,133.66184 -0.928775,1.267 0.928775,1.39476" />
      <path
         id="path316-6"
         d="m 38.014101,143.01223 h -1.448487 v -0.30479 l 0.520083,-0.52589 c 0.154169,-0.15771 0.254799,-0.26689 0.302047,-0.32736 0.04724,-0.0614 0.08112,-0.11805 0.101923,-0.17014 0.02079,-0.0519 0.03127,-0.10579 0.03127,-0.16159 0,-0.0831 -0.02323,-0.14498 -0.06951,-0.18562 -0.04529,-0.0406 -0.106274,-0.0609 -0.182877,-0.0609 -0.08031,0 -0.158198,0.0184 -0.233832,0.0554 -0.07563,0.0367 -0.154492,0.0893 -0.236739,0.15724 l -0.238026,-0.28206 c 0.102081,-0.0869 0.186583,-0.14835 0.253672,-0.18415 0.06709,-0.036 0.140296,-0.0634 0.219642,-0.0823 0.07934,-0.0198 0.168201,-0.0298 0.266569,-0.0298 0.129338,0 0.243676,0.0237 0.343014,0.071 0.09918,0.0472 0.176105,0.11337 0.230936,0.19836 0.05486,0.0851 0.08224,0.18239 0.08224,0.29205 0,0.0955 -0.01694,0.18513 -0.05096,0.26931 -0.03322,0.0831 -0.08515,0.16868 -0.155943,0.25658 -0.06999,0.0879 -0.193678,0.21303 -0.371392,0.37559 l -0.266416,0.25076 v 0.02 h 0.902768 z"
         inkscape:connector-curvature="0"
         style="fill:#fafafa;stroke:none;stroke-width:0.16126597"
         sodipodi:nodetypes="ccccccscscccccsccsccccccc" />
      <path
         style="fill:none;stroke:#2677b2;stroke-width:0.35490075;stroke-opacity:1"
         inkscape:connector-curvature="0"
         id="path428"
         d="m 40.294016,142.44436 h 27.63275" />
      <path
         style="fill:none;stroke:#2677b2;stroke-width:0.35490075;stroke-opacity:1"
         inkscape:connector-curvature="0"
         id="path430"
         d="m 42.383849,141.58759 1.127519,0.78256 -1.127519,0.94048" />
      <rect
         style="fill:#eaa356;stroke:none;stroke-width:0.17745037"
         id="rect440"
         rx="0.35490075"
         height="5.1460609"
         width="14.164213"
         y="139.60513"
         x="47.492111" />
      <rect
         style="fill:#eaa356;stroke:none;stroke-width:0.17745037"
         id="rect442"
         rx="0.35490075"
         height="5.1460609"
         width="14.164213"
         y="139.60513"
         x="47.492111" />
      <rect
         style="fill:#2677b2;stroke:none;stroke-width:0.17745037;fill-opacity:1"
         id="rect444"
         rx="0.35490075"
         height="5.1460609"
         width="14.164213"
         y="139.60513"
         x="47.492111" />
      <path
         style="fill:#2677b2;stroke:none;stroke-width:0.17745037;fill-opacity:1"
         inkscape:connector-curvature="0"
         id="path450"
         d="m 67.693596,144.30759 v -3.81519 c 1.586762,0 4.527823,0.44363 4.644051,1.77451 0.116055,1.33087 -3.134835,1.95195 -4.644051,2.04068 z" />
      <path
         style="fill:#2677b2;stroke:none;stroke-width:0.17745037;fill-opacity:1"
         inkscape:connector-curvature="0"
         id="path452"
         d="m 67.693596,144.30759 v -3.81519 c 1.586762,0 4.527823,0.44363 4.644051,1.77451 0.116055,1.33087 -3.134835,1.95195 -4.644051,2.04068 z" />
      <path
         style="fill:none;stroke:#fafafa;stroke-width:0.08872519"
         inkscape:connector-curvature="0"
         id="path462"
         d="m 49.349841,141.20221 v 2.57303" />
      <path
         style="fill:none;stroke:#fafafa;stroke-width:0.08872519"
         inkscape:connector-curvature="0"
         id="path476"
         d="m 49.349841,141.20221 v 2.57303" />
      <path
         style="fill:none;stroke:#fafafa;stroke-width:0.08872519"
         inkscape:connector-curvature="0"
         id="path478"
         d="m 60.030934,141.20221 v 2.57303" />
      <path
         style="fill:#fafafa;stroke:none;stroke-width:0.17745037"
         inkscape:connector-curvature="0"
         id="path480"
         d="m 51.22833,143.33161 h -1.146507 v -2.02648 h 1.146507 v 0.28037 h -0.815206 v 0.55187 h 0.763923 v 0.27682 h -0.763923 v 0.63527 h 0.815206 z m 1.108533,0 h -0.858682 v -0.15438 l 0.326686,-0.32829 c 0.09635,-0.0994 0.160237,-0.16857 0.191469,-0.20939 0.03176,-0.0426 0.05483,-0.0816 0.06921,-0.11711 0.01455,-0.0373 0.02182,-0.0763 0.02182,-0.11712 0,-0.0568 -0.01739,-0.10293 -0.05199,-0.13486 -0.03424,-0.0337 -0.08145,-0.0497 -0.142138,-0.0497 -0.04862,0 -0.09565,0.009 -0.14125,0.0266 -0.04507,0.0178 -0.09742,0.0497 -0.156867,0.0976 l -0.110019,-0.13486 c 0.07045,-0.0585 0.138944,-0.10114 0.20531,-0.12598 0.06655,-0.0248 0.137169,-0.0373 0.212231,-0.0373 0.118004,0 0.212408,0.0302 0.283388,0.0923 0.07116,0.0621 0.106648,0.14374 0.106648,0.24843 0,0.0568 -0.01047,0.1118 -0.03123,0.16326 -0.02023,0.0514 -0.05163,0.10292 -0.0944,0.15793 -0.04223,0.055 -0.112681,0.12954 -0.211521,0.22181 l -0.220038,0.21294 v 0.009 h 0.601379 z" />
      <path
         style="fill:#fafafa;stroke:none;stroke-width:0.17745037"
         inkscape:connector-curvature="0"
         id="path482"
         d="m 57.729935,143.33161 h -1.146507 v -2.02648 h 1.146507 v 0.28037 h -0.815207 v 0.55187 h 0.763924 v 0.27682 h -0.763924 v 0.63527 h 0.815207 z m 1.108532,0 h -0.858682 v -0.15438 l 0.326686,-0.32829 c 0.09636,-0.0994 0.160238,-0.16857 0.191469,-0.20939 0.03176,-0.0426 0.05483,-0.0816 0.06921,-0.11711 0.01455,-0.0373 0.02165,-0.0763 0.02165,-0.11712 0,-0.0568 -0.01721,-0.10293 -0.05199,-0.13486 -0.03407,-0.0337 -0.08145,-0.0497 -0.14196,-0.0497 -0.04863,0 -0.09565,0.009 -0.141251,0.0266 -0.04507,0.0178 -0.09742,0.0497 -0.156866,0.0976 l -0.11002,-0.13486 c 0.07045,-0.0585 0.138944,-0.10114 0.205311,-0.12598 0.06636,-0.0248 0.137169,-0.0373 0.21223,-0.0373 0.117827,0 0.212408,0.0302 0.283388,0.0923 0.07098,0.0621 0.106648,0.14374 0.106648,0.24843 0,0.0568 -0.01047,0.1118 -0.03123,0.16326 -0.02023,0.0514 -0.05164,0.10292 -0.0944,0.15793 -0.04223,0.055 -0.11268,0.12954 -0.21152,0.22181 l -0.220039,0.21294 v 0.009 h 0.601379 z" />
      <path
         style="fill:none;stroke:#fafafa;stroke-width:0.08872519"
         inkscape:connector-curvature="0"
         id="path484"
         d="m 53.065119,141.20221 0.928776,1.26699 -0.928776,1.39476" />
      <path
         style="fill:none;stroke:#fafafa;stroke-width:0.08872519"
         inkscape:connector-curvature="0"
         id="path486"
         d="m 53.065119,141.20221 0.928776,1.26699 -0.928776,1.39476" />
      <path
         style="fill:none;stroke:#fafafa;stroke-width:0.08872519"
         inkscape:connector-curvature="0"
         id="path488"
         d="m 55.619162,141.20221 -0.928775,1.26699 0.928775,1.39476" />
      <path
         style="fill:none;stroke:#fafafa;stroke-width:0.08872519"
         inkscape:connector-curvature="0"
         id="path490"
         d="m 55.619162,141.20221 -0.928775,1.26699 0.928775,1.39476" />
      <path
         style="fill:#ffffff;stroke:none;stroke-width:0.19101898"
         inkscape:connector-curvature="0"
         d="m 37.957947,148.92544 c 0,0.11939 -0.03611,0.22063 -0.108308,0.3043 -0.07221,0.0835 -0.173636,0.14097 -0.304293,0.17229 v 0.008 c 0.154152,0.0193 0.270674,0.0663 0.349947,0.14116 0.07927,0.0739 0.118813,0.17402 0.118813,0.30029 0,0.18356 -0.06647,0.32683 -0.199806,0.4296 -0.13314,0.10181 -0.323394,0.15281 -0.570573,0.15281 -0.207256,0 -0.390825,-0.0344 -0.55109,-0.10315 v -0.34345 c 0.07411,0.0375 0.15549,0.0678 0.244122,0.0913 0.08882,0.0235 0.176884,0.0353 0.263797,0.0353 0.133332,0 0.231707,-0.0227 0.295125,-0.068 0.06361,-0.0453 0.09532,-0.11786 0.09532,-0.21795 0,-0.0898 -0.03648,-0.1532 -0.109644,-0.19064 -0.07316,-0.0375 -0.189683,-0.0562 -0.349947,-0.0562 h -0.144984 v -0.30945 h 0.147658 c 0.147849,0 0.255965,-0.0193 0.323777,-0.0575 0.06877,-0.0391 0.10315,-0.10583 0.10315,-0.19981 0,-0.14441 -0.09054,-0.21681 -0.271629,-0.21681 -0.06265,0 -0.126645,0.0105 -0.191974,0.0313 -0.06437,0.021 -0.136196,0.0571 -0.215469,0.10851 l -0.186626,-0.27813 c 0.174019,-0.1255 0.381656,-0.18815 0.622913,-0.18815 0.197514,0 0.353386,0.0401 0.467424,0.12015 0.114802,0.08 0.172299,0.19159 0.172299,0.33428 z"
         id="path22044-5" />
      <path
         d="m 40.294016,149.6298 h 27.63275"
         id="path1069"
         inkscape:connector-curvature="0"
         style="fill:none;stroke:#2677b2;stroke-width:0.35490075;stroke-opacity:1" />
      <path
         d="m 42.383849,148.77304 1.127519,0.78255 -1.127519,0.94049"
         id="path1071"
         inkscape:connector-curvature="0"
         style="fill:none;stroke:#2677b2;stroke-width:0.35490075;stroke-opacity:1" />
      <rect
         x="47.492111"
         y="146.79059"
         width="14.164213"
         height="5.1460609"
         rx="0.35490075"
         id="rect1073"
         style="fill:#eaa356;stroke:none;stroke-width:0.17745037" />
      <rect
         x="47.492111"
         y="146.79059"
         width="14.164213"
         height="5.1460609"
         rx="0.35490075"
         id="rect1075"
         style="fill:#eaa356;stroke:none;stroke-width:0.17745037" />
      <rect
         x="47.492111"
         y="146.79059"
         width="14.164213"
         height="5.1460609"
         rx="0.35490075"
         id="rect1077"
         style="fill:#2677b2;stroke:none;stroke-width:0.17745037;fill-opacity:1" />
      <path
         d="m 67.693596,151.49303 v -3.81518 c 1.586762,0 4.527823,0.44362 4.644051,1.7745 0.116055,1.33088 -3.134835,1.95195 -4.644051,2.04068 z"
         id="path1079"
         inkscape:connector-curvature="0"
         style="fill:#2677b2;stroke:none;stroke-width:0.17745037;fill-opacity:1" />
      <path
         d="m 67.693596,151.49303 v -3.81518 c 1.586762,0 4.527823,0.44362 4.644051,1.7745 0.116055,1.33088 -3.134835,1.95195 -4.644051,2.04068 z"
         id="path1081"
         inkscape:connector-curvature="0"
         style="fill:#2677b2;stroke:none;stroke-width:0.17745037;fill-opacity:1" />
      <path
         d="m 49.349841,148.38765 v 2.57303"
         id="path1083"
         inkscape:connector-curvature="0"
         style="fill:none;stroke:#fafafa;stroke-width:0.08872519" />
      <path
         d="m 49.349841,148.38765 v 2.57303"
         id="path1085"
         inkscape:connector-curvature="0"
         style="fill:none;stroke:#fafafa;stroke-width:0.08872519" />
      <path
         d="m 60.030934,148.38765 v 2.57303"
         id="path1087"
         inkscape:connector-curvature="0"
         style="fill:none;stroke:#fafafa;stroke-width:0.08872519" />
      <path
         sodipodi:nodetypes="ccccccccccccc"
         d="m 51.22833,150.51706 h -1.146507 v -2.02649 h 1.146507 v 0.28037 h -0.815206 v 0.55187 h 0.763923 v 0.27682 h -0.763923 v 0.63528 h 0.815206 z"
         id="path1089"
         inkscape:connector-curvature="0"
         style="fill:#fafafa;stroke:none;stroke-width:0.17745037" />
      <path
         sodipodi:nodetypes="ccccccccccccc"
         d="m 57.729935,150.51706 h -1.146507 v -2.02649 h 1.146507 v 0.28037 h -0.815207 v 0.55187 h 0.763924 v 0.27682 h -0.763924 v 0.63528 h 0.815207 z"
         id="path1091"
         inkscape:connector-curvature="0"
         style="fill:#fafafa;stroke:none;stroke-width:0.17745037" />
      <path
         d="m 53.065119,148.38765 0.928776,1.26699 -0.928776,1.39477"
         id="path1093"
         inkscape:connector-curvature="0"
         style="fill:none;stroke:#fafafa;stroke-width:0.08872519" />
      <path
         d="m 53.065119,148.38765 0.928776,1.26699 -0.928776,1.39477"
         id="path1095"
         inkscape:connector-curvature="0"
         style="fill:none;stroke:#fafafa;stroke-width:0.08872519" />
      <path
         d="m 55.619162,148.38765 -0.928775,1.26699 0.928775,1.39477"
         id="path1097"
         inkscape:connector-curvature="0"
         style="fill:none;stroke:#fafafa;stroke-width:0.08872519" />
      <path
         d="m 55.619162,148.38765 -0.928775,1.26699 0.928775,1.39477"
         id="path1099"
         inkscape:connector-curvature="0"
         style="fill:none;stroke:#fafafa;stroke-width:0.08872519" />
      <g
         style="fill:#ffffff;stroke:none"
         id="g1122"
         transform="matrix(0.07418792,0,0,0.07418792,51.37905,148.27705)">
        <path
           style="fill:#ffffff"
           id="path1120"
           d="m 1.509,25.549 2.109,-0.281 c 0.242,1.195 0.654,2.057 1.236,2.584 0.582,0.527 1.291,0.791 2.127,0.791 0.992,0 1.83,-0.344 2.514,-1.031 0.684,-0.687 1.025,-1.539 1.025,-2.555 0,-0.969 -0.316,-1.768 -0.949,-2.396 -0.633,-0.628 -1.438,-0.943 -2.414,-0.943 -0.398,0 -0.895,0.078 -1.488,0.234 L 5.903,20.1 c 0.141,0.016 0.254,0.023 0.34,0.023 0.898,0 1.707,-0.234 2.426,-0.703 0.719,-0.469 1.078,-1.191 1.078,-2.168 0,-0.773 -0.262,-1.414 -0.785,-1.922 -0.523,-0.508 -1.199,-0.762 -2.027,-0.762 -0.82,0 -1.504,0.258 -2.051,0.773 -0.547,0.515 -0.898,1.289 -1.055,2.32 L 1.72,17.288 c 0.258,-1.414 0.844,-2.51 1.758,-3.287 0.914,-0.777 2.051,-1.166 3.41,-1.166 0.938,0 1.801,0.201 2.59,0.604 0.789,0.403 1.393,0.951 1.811,1.646 0.418,0.695 0.627,1.434 0.627,2.215 0,0.742 -0.199,1.418 -0.598,2.027 -0.399,0.609 -0.988,1.094 -1.77,1.453 1.016,0.234 1.805,0.721 2.367,1.459 0.562,0.738 0.844,1.662 0.844,2.771 0,1.5 -0.547,2.771 -1.641,3.814 -1.094,1.043 -2.477,1.564 -4.148,1.564 -1.508,0 -2.76,-0.449 -3.756,-1.348 C 2.218,28.141 1.649,26.979 1.509,25.549 Z"
           inkscape:connector-curvature="0" />
      </g>
      <g
         transform="matrix(0.07418792,0,0,0.07418792,51.37905,148.27705)"
         id="g1697"
         style="fill:#ffffff;stroke:none">
        <path
           inkscape:connector-curvature="0"
           d="m 88.983199,25.549 2.109,-0.281 c 0.242,1.195 0.654,2.057 1.236,2.584 0.582,0.527 1.291,0.791 2.127,0.791 0.992,0 1.83,-0.344 2.514,-1.031 0.684,-0.687 1.025,-1.539 1.025,-2.555 0,-0.969 -0.316,-1.768 -0.949,-2.396 -0.633,-0.628 -1.438,-0.943 -2.414,-0.943 -0.398,0 -0.895,0.078 -1.488,0.234 l 0.234,-1.852 c 0.141,0.016 0.254,0.023 0.34,0.023 0.898,0 1.707,-0.234 2.426,-0.703 0.719,-0.469 1.078,-1.191 1.078,-2.168 0,-0.773 -0.262,-1.414 -0.785,-1.922 -0.523,-0.508 -1.199,-0.762 -2.027,-0.762 -0.82,0 -1.504,0.258 -2.051,0.773 -0.547,0.515 -0.898,1.289 -1.055,2.32 l -2.109,-0.373 c 0.258,-1.414 0.844,-2.51 1.758,-3.287 0.914,-0.777 2.051,-1.166 3.41,-1.166 0.938,0 1.801,0.201 2.59,0.604 0.789,0.403 1.393,0.951 1.811,1.646 0.418,0.695 0.627,1.434 0.627,2.215 0,0.742 -0.199,1.418 -0.598,2.027 -0.399,0.609 -0.988,1.094 -1.77,1.453 1.016,0.234 1.805,0.721 2.367,1.459 0.562,0.738 0.844001,1.662 0.844001,2.771 0,1.5 -0.547001,2.771 -1.641001,3.814 -1.094,1.043 -2.477,1.564 -4.148,1.564 -1.508,0 -2.76,-0.449 -3.756,-1.348 -0.996,-0.899 -1.565,-2.061 -1.705,-3.491 z"
           id="path1695"
           style="fill:#ffffff" />
      </g>
      <path
         style="fill:none;stroke:#2677b2;stroke-width:0.35490075;stroke-opacity:1"
         inkscape:connector-curvature="0"
         id="path1204"
         d="m 40.294016,156.89253 h 27.63275" />
      <path
         style="fill:none;stroke:#2677b2;stroke-width:0.35490075;stroke-opacity:1"
         inkscape:connector-curvature="0"
         id="path1206"
         d="m 42.383849,156.03576 1.127519,0.78256 -1.127519,0.94048" />
      <rect
         style="fill:#eaa356;stroke:none;stroke-width:0.17745037"
         id="rect1208"
         rx="0.35490075"
         height="5.1460609"
         width="14.164213"
         y="154.05331"
         x="47.492111" />
      <rect
         style="fill:#eaa356;stroke:none;stroke-width:0.17745037"
         id="rect1210"
         rx="0.35490075"
         height="5.1460609"
         width="14.164213"
         y="154.05331"
         x="47.492111" />
      <rect
         style="fill:#2677b2;stroke:none;stroke-width:0.17745037;fill-opacity:1"
         id="rect1212"
         rx="0.35490075"
         height="5.1460609"
         width="14.164213"
         y="154.05331"
         x="47.492111" />
      <path
         style="fill:#2677b2;stroke:none;stroke-width:0.17745037;fill-opacity:1"
         inkscape:connector-curvature="0"
         id="path1214"
         d="m 67.693596,158.75576 v -3.81519 c 1.586762,0 4.527823,0.44363 4.644051,1.77451 0.116055,1.33087 -3.134835,1.95195 -4.644051,2.04068 z" />
      <path
         style="fill:#2677b2;stroke:none;stroke-width:0.17745037;fill-opacity:1"
         inkscape:connector-curvature="0"
         id="path1216"
         d="m 67.693596,158.75576 v -3.81519 c 1.586762,0 4.527823,0.44363 4.644051,1.77451 0.116055,1.33087 -3.134835,1.95195 -4.644051,2.04068 z" />
      <path
         style="fill:none;stroke:#fafafa;stroke-width:0.08872519"
         inkscape:connector-curvature="0"
         id="path1218"
         d="m 49.349841,155.65038 v 2.57303" />
      <path
         style="fill:none;stroke:#fafafa;stroke-width:0.08872519"
         inkscape:connector-curvature="0"
         id="path1220"
         d="m 49.349841,155.65038 v 2.57303" />
      <path
         style="fill:none;stroke:#fafafa;stroke-width:0.08872519"
         inkscape:connector-curvature="0"
         id="path1222"
         d="m 60.030934,155.65038 v 2.57303" />
      <path
         style="fill:#fafafa;stroke:none;stroke-width:0.17745037"
         inkscape:connector-curvature="0"
         id="path1224"
         d="m 51.22833,157.77978 h -1.146507 v -2.02648 h 1.146507 v 0.28037 h -0.815206 v 0.55187 h 0.763923 v 0.27682 h -0.763923 v 0.63527 h 0.815206 z"
         sodipodi:nodetypes="ccccccccccccc" />
      <path
         style="fill:#fafafa;stroke:none;stroke-width:0.17745037"
         inkscape:connector-curvature="0"
         id="path1226"
         d="m 57.729935,157.77978 h -1.146507 v -2.02648 h 1.146507 v 0.28037 h -0.815207 v 0.55187 h 0.763924 v 0.27682 h -0.763924 v 0.63527 h 0.815207 z"
         sodipodi:nodetypes="ccccccccccccc" />
      <path
         style="fill:none;stroke:#fafafa;stroke-width:0.08872519"
         inkscape:connector-curvature="0"
         id="path1228"
         d="m 53.065119,155.65038 0.928776,1.26699 -0.928776,1.39476" />
      <path
         style="fill:none;stroke:#fafafa;stroke-width:0.08872519"
         inkscape:connector-curvature="0"
         id="path1230"
         d="m 53.065119,155.65038 0.928776,1.26699 -0.928776,1.39476" />
      <path
         style="fill:none;stroke:#fafafa;stroke-width:0.08872519"
         inkscape:connector-curvature="0"
         id="path1232"
         d="m 55.619162,155.65038 -0.928775,1.26699 0.928775,1.39476" />
      <path
         style="fill:none;stroke:#fafafa;stroke-width:0.08872519"
         inkscape:connector-curvature="0"
         id="path1234"
         d="m 55.619162,155.65038 -0.928775,1.26699 0.928775,1.39476" />
      <g
         transform="matrix(0.07418792,0,0,0.07418792,51.37905,155.53978)"
         id="g1238"
         style="fill:#ffffff;stroke:none" />
      <path
         style="fill:#ffffff;stroke-width:0.07670832"
         id="path2"
         d="m 52.073889,157.82409 v -0.3155 h -0.571707 v -0.14835 l 0.601393,-0.854 h 0.132169 v 0.854 h 0.177963 v 0.14835 h -0.177963 v 0.3155 z m 0,-0.46378 v -0.59418 l -0.412614,0.59418 z"
         inkscape:connector-curvature="0" />
      <path
         style="fill:#ffffff;stroke-width:0.07670832"
         inkscape:connector-curvature="0"
         d="m 58.546731,157.82409 v -0.3155 h -0.571707 v -0.14835 l 0.601393,-0.854 h 0.132169 v 0.854 h 0.177963 v 0.14835 h -0.177963 v 0.3155 z m 0,-0.46378 v -0.59418 l -0.412614,0.59418 z"
         id="path1256" />
      <path
         id="path164"
         d="m 38.166026,157.27701 h -0.235297 v 0.40508 h -0.4037 v -0.40508 h -0.834392 v -0.28751 l 0.857081,-1.26215 h 0.381011 v 1.2287 h 0.235297 z m -0.638997,-0.32096 v -0.33153 c 0,-0.0554 0.0021,-0.13554 0.0067,-0.24077 0.0045,-0.10503 0.008,-0.16625 0.01076,-0.18307 h -0.01076 c -0.03305,0.073 -0.07256,0.14434 -0.118919,0.21398 l -0.358323,0.54139 z"
         inkscape:connector-curvature="0"
         style="fill:#fafafa;stroke-width:0.19559124" />
    </g>
  </g>
</svg>
