<?xml version="1.0" encoding="UTF-8" standalone="no"?>
<!-- Created with Inkscape (http://www.inkscape.org/) -->

<svg
   xmlns:dc="http://purl.org/dc/elements/1.1/"
   xmlns:cc="http://creativecommons.org/ns#"
   xmlns:rdf="http://www.w3.org/1999/02/22-rdf-syntax-ns#"
   xmlns:svg="http://www.w3.org/2000/svg"
   xmlns="http://www.w3.org/2000/svg"
   xmlns:sodipodi="http://sodipodi.sourceforge.net/DTD/sodipodi-0.dtd"
   xmlns:inkscape="http://www.inkscape.org/namespaces/inkscape"
   width="386"
   height="113"
   viewBox="0 0 102.12916 29.897918"
   version="1.1"
   id="svg2705"
   inkscape:version="0.92.5 (2060ec1f9f, 2020-04-08)"
   sodipodi:docname="qm_d2_blue.svg">
  <defs
     id="defs2699" />
  <sodipodi:namedview
     id="base"
     pagecolor="#ffffff"
     bordercolor="#666666"
     borderopacity="1.0"
     inkscape:pageopacity="0.0"
     inkscape:pageshadow="2"
     inkscape:zoom="3.959798"
     inkscape:cx="91.951039"
     inkscape:cy="51.544008"
     inkscape:document-units="mm"
     inkscape:current-layer="g1051"
     showgrid="false"
     units="px"
     inkscape:window-width="1366"
     inkscape:window-height="704"
     inkscape:window-x="0"
     inkscape:window-y="27"
     inkscape:window-maximized="1" />
  <metadata
     id="metadata2702">
    <rdf:RDF>
      <cc:Work
         rdf:about="">
        <dc:format>image/svg+xml</dc:format>
        <dc:type
           rdf:resource="http://purl.org/dc/dcmitype/StillImage" />
        <dc:title />
      </cc:Work>
    </rdf:RDF>
  </metadata>
  <g
     inkscape:label="Layer 1"
     inkscape:groupmode="layer"
     id="layer1"
     transform="translate(0,-267.10207)">
    <g
       id="g3401"
       transform="translate(-15.459226,136.2415)">
      <g
         transform="translate(-6.4356503,6.8918681)"
         id="g1004"
         style="stroke:none">
        <g
           id="g1051">
          <g
             id="g1249"
             transform="matrix(1.0939849,0,0,1.0939849,-18.705057,-53.093594)">
            <path
               d="M 56.573441,169.29511 H 97.774887"
               id="path426"
               inkscape:connector-curvature="0"
               style="fill:none;stroke:#2677b2;stroke-width:0.52925776;stroke-miterlimit:4;stroke-dasharray:none;stroke-opacity:1" />
            <path
               d="M 56.574235,182.13005 H 97.775416"
               id="path428"
               inkscape:connector-curvature="0"
               style="fill:none;stroke:#2677b2;stroke-width:0.52925776;stroke-miterlimit:4;stroke-dasharray:none;stroke-opacity:1" />
            <path
               d="m 59.690233,180.85259 1.681162,1.16681 -1.681162,1.40229"
               id="path430"
               inkscape:connector-curvature="0"
               style="fill:none;stroke:#2677b2;stroke-width:0.52925777;stroke-miterlimit:4;stroke-dasharray:none;stroke-opacity:1" />
            <path
               d="m 59.690233,168.01765 1.681162,1.16682 -1.681162,1.40229"
               id="path432"
               inkscape:connector-curvature="0"
               style="fill:none;stroke:#2677b2;stroke-width:0.52925777;stroke-miterlimit:4;stroke-dasharray:none;stroke-opacity:1" />
            <rect
               x="67.306793"
               y="165.46129"
               width="21.119226"
               height="7.6729169"
               rx="0.52916664"
               id="rect434"
               style="fill:#eaa356;stroke-width:0.26458332" />
            <rect
               x="67.306793"
               y="165.46129"
               width="21.119226"
               height="7.6729169"
               rx="0.52916664"
               id="rect436"
               style="fill:#eaa356;stroke-width:0.26458332" />
            <rect
               x="67.306793"
               y="165.46129"
               width="21.119226"
               height="7.6729169"
               rx="0.52916664"
               id="rect438"
               style="fill:#2677b2;stroke-width:0.26458332;fill-opacity:1" />
            <rect
               x="67.306793"
               y="177.8967"
               width="21.119226"
               height="7.6729169"
               rx="0.52916664"
               id="rect440"
               style="fill:#eaa356;stroke-width:0.26458332" />
            <rect
               x="67.306793"
               y="177.8967"
               width="21.119226"
               height="7.6729169"
               rx="0.52916664"
               id="rect442"
               style="fill:#eaa356;stroke-width:0.26458332" />
            <rect
               x="67.306793"
               y="177.8967"
               width="21.119226"
               height="7.6729169"
               rx="0.52916664"
               id="rect444"
               style="fill:#2677b2;stroke-width:0.26458332;fill-opacity:1" />
            <path
               d="m 97.427754,172.20818 v -5.68855 c 2.365904,0 6.751106,0.66146 6.924406,2.64584 0.17304,1.98437 -4.674125,2.91041 -6.924406,3.04271 z"
               id="path446"
               inkscape:connector-curvature="0"
               style="fill:#eaa356;stroke-width:0.26458332" />
            <path
               d="m 97.427754,172.20818 v -5.68855 c 2.365904,0 6.751106,0.66146 6.924406,2.64584 0.17304,1.98437 -4.674125,2.91041 -6.924406,3.04271 z"
               id="path448"
               inkscape:connector-curvature="0"
               style="fill:#2677b2;stroke-width:0.26458332;fill-opacity:1" />
            <path
               d="m 97.427754,184.90818 v -5.68855 c 2.365904,0 6.751106,0.66146 6.924406,2.64584 0.17304,1.98437 -4.674125,2.91041 -6.924406,3.04271 z"
               id="path450"
               inkscape:connector-curvature="0"
               style="fill:#eaa356;stroke-width:0.26458332" />
            <path
               d="m 97.427754,184.90818 v -5.68855 c 2.365904,0 6.751106,0.66146 6.924406,2.64584 0.17304,1.98437 -4.674125,2.91041 -6.924406,3.04271 z"
               id="path452"
               inkscape:connector-curvature="0"
               style="fill:#2677b2;stroke-width:0.26458332;fill-opacity:1" />
            <path
               d="m 53.046016,170.22383 h -0.718608 v -1.9685 l 0.0071,-0.32279 0.01164,-0.3519 c -0.119327,0.11907 -0.202406,0.1958 -0.248973,0.23284 l -0.390525,0.31485 -0.346604,-0.43127 1.095375,-0.87312 h 0.59055 z"
               id="path454"
               inkscape:connector-curvature="0"
               style="fill:#fafafa;stroke-width:0.26458332"
               sodipodi:nodetypes="ccccccccccc" />
            <path
               d="m 53.646091,183.77314 h -2.376752 v -0.50006 l 0.853546,-0.86254 c 0.252677,-0.25929 0.417777,-0.43656 0.4953,-0.5371 0.07752,-0.10055 0.13335,-0.19315 0.167481,-0.27782 0.03413,-0.0873 0.05107,-0.17462 0.05107,-0.26458 0,-0.13758 -0.03784,-0.23813 -0.113771,-0.30692 -0.07461,-0.0661 -0.174625,-0.0979 -0.300038,-0.0979 -0.131762,0 -0.25982,0.0291 -0.383645,0.09 -0.12409,0.0608 -0.253471,0.14552 -0.388409,0.25664 l -0.390789,-0.46037 c 0.167481,-0.14288 0.306387,-0.24342 0.416454,-0.30427 0.110067,-0.0582 0.230187,-0.10319 0.360362,-0.13494 0.130175,-0.0317 0.275961,-0.0476 0.437092,-0.0476 0.21246,0 0.40005,0.037 0.562769,0.11642 0.162719,0.0767 0.289189,0.18521 0.379148,0.32544 0.08996,0.14023 0.134937,0.29898 0.134937,0.47889 0,0.15611 -0.02805,0.30427 -0.08387,0.44186 -0.05424,0.13493 -0.139435,0.27516 -0.255852,0.42068 -0.114564,0.14288 -0.317764,0.34925 -0.609071,0.61648 l -0.437356,0.41011 v 0.0344 h 1.481402 z"
               id="path456"
               inkscape:connector-curvature="0"
               style="fill:#fafafa;stroke-width:0.26458332"
               sodipodi:nodetypes="ccccccscscccccsccsccccccc" />
            <path
               d="m 70.076716,167.31338 v 3.83646"
               id="path458"
               inkscape:connector-curvature="0"
               style="fill:none;stroke:#fafafa;stroke-width:0.13229166" />
            <path
               d="m 86.002516,167.31338 v 3.83646"
               id="path460"
               inkscape:connector-curvature="0"
               style="fill:none;stroke:#fafafa;stroke-width:0.13229166" />
            <path
               d="m 70.076716,180.27797 v 3.83646"
               id="path462"
               inkscape:connector-curvature="0"
               style="fill:none;stroke:#fafafa;stroke-width:0.13229166" />
            <path
               d="m 72.877595,170.48838 h -1.709473 v -3.02154 h 1.709473 v 0.41804 H 71.6621 v 0.82286 h 1.139031 v 0.41275 H 71.6621 v 0.94721 h 1.215495 z m 1.263915,0 h -0.303477 v -1.21972 c 0,-0.14553 0.0034,-0.26194 0.01032,-0.34661 -0.01984,0.0212 -0.04445,0.045 -0.07382,0.0688 -0.02831,0.0265 -0.124883,0.10319 -0.28919,0.23813 l -0.152664,-0.19315 0.555625,-0.43656 h 0.253206 z"
               id="path464"
               inkscape:connector-curvature="0"
               style="fill:#fafafa;stroke-width:0.26458332" />
            <path
               d="m 82.571664,170.48838 h -1.709473 v -3.02154 h 1.709473 v 0.41804 h -1.215496 v 0.82286 H 82.4952 v 0.41275 h -1.139032 v 0.94721 h 1.215496 z m 1.263915,0 h -0.303742 v -1.21972 c 0,-0.14553 0.0037,-0.26194 0.01058,-0.34661 -0.01984,0.0212 -0.04445,0.045 -0.07382,0.0688 -0.02831,0.0265 -0.124884,0.10319 -0.289455,0.23813 l -0.1524,-0.19315 0.555625,-0.43656 h 0.253207 z"
               id="path466"
               inkscape:connector-curvature="0"
               style="fill:#fafafa;stroke-width:0.26458332" />
            <path
               d="m 75.616297,167.31338 1.38483,1.88913 -1.38483,2.07962"
               id="path468"
               inkscape:connector-curvature="0"
               style="fill:none;stroke:#fafafa;stroke-width:0.13229166" />
            <path
               d="m 75.616297,167.31338 1.38483,1.88913 -1.38483,2.07962"
               id="path470"
               inkscape:connector-curvature="0"
               style="fill:none;stroke:#fafafa;stroke-width:0.13229166" />
            <path
               d="m 79.424445,167.31338 -1.384829,1.88913 1.384829,2.07962"
               id="path472"
               inkscape:connector-curvature="0"
               style="fill:none;stroke:#fafafa;stroke-width:0.13229166" />
            <path
               d="m 79.424445,167.31338 -1.384829,1.88913 1.384829,2.07962"
               id="path474"
               inkscape:connector-curvature="0"
               style="fill:none;stroke:#fafafa;stroke-width:0.13229166" />
            <path
               d="m 70.076716,180.27797 v 3.83646"
               id="path476"
               inkscape:connector-curvature="0"
               style="fill:none;stroke:#fafafa;stroke-width:0.13229166" />
            <path
               d="m 86.002516,180.27797 v 3.83646"
               id="path478"
               inkscape:connector-curvature="0"
               style="fill:none;stroke:#fafafa;stroke-width:0.13229166" />
            <path
               d="m 72.877595,183.45297 h -1.709473 v -3.02154 h 1.709473 v 0.41804 H 71.6621 v 0.82285 h 1.139031 v 0.41275 H 71.6621 v 0.94721 h 1.215495 z m 1.652852,0 h -1.280318 v -0.23019 l 0.487098,-0.48948 c 0.143668,-0.14817 0.238918,-0.25135 0.285485,-0.31221 0.04736,-0.0635 0.08176,-0.12171 0.103188,-0.17462 0.0217,-0.0556 0.03254,-0.11377 0.03254,-0.17463 0,-0.0847 -0.02593,-0.15346 -0.07752,-0.20108 -0.05106,-0.0503 -0.121443,-0.0741 -0.211931,-0.0741 -0.0725,0 -0.14261,0.0132 -0.210608,0.0397 -0.0672,0.0265 -0.145256,0.0741 -0.233892,0.14552 l -0.164042,-0.20108 c 0.10504,-0.0873 0.207169,-0.15081 0.306123,-0.18785 0.09922,-0.037 0.204523,-0.0556 0.316442,-0.0556 0.175948,0 0.316706,0.045 0.42254,0.13759 0.106098,0.0926 0.159014,0.21431 0.159014,0.37041 0,0.0847 -0.01561,0.16669 -0.04657,0.24342 -0.03016,0.0767 -0.07699,0.15346 -0.140759,0.23548 -0.06297,0.082 -0.16801,0.19315 -0.315383,0.33073 l -0.328083,0.3175 v 0.0132 h 0.896672 z"
               id="path480"
               inkscape:connector-curvature="0"
               style="fill:#fafafa;stroke-width:0.26458332" />
            <path
               d="m 82.571664,183.45297 h -1.709473 v -3.02154 h 1.709473 v 0.41804 h -1.215496 v 0.82285 H 82.4952 v 0.41275 h -1.139032 v 0.94721 h 1.215496 z m 1.652852,0 h -1.280319 v -0.23019 l 0.487098,-0.48948 c 0.143669,-0.14817 0.238919,-0.25135 0.285486,-0.31221 0.04736,-0.0635 0.08176,-0.12171 0.103187,-0.17462 0.0217,-0.0556 0.03228,-0.11377 0.03228,-0.17463 0,-0.0847 -0.02566,-0.15346 -0.07752,-0.20108 -0.0508,-0.0503 -0.121444,-0.0741 -0.211667,-0.0741 -0.0725,0 -0.142611,0.0132 -0.210608,0.0397 -0.0672,0.0265 -0.145257,0.0741 -0.233892,0.14552 l -0.164042,-0.20108 c 0.10504,-0.0873 0.207169,-0.15081 0.306123,-0.18785 0.09895,-0.037 0.204523,-0.0556 0.316442,-0.0556 0.175683,0 0.316706,0.045 0.422539,0.13759 0.105834,0.0926 0.159015,0.21431 0.159015,0.37041 0,0.0847 -0.01561,0.16669 -0.04657,0.24342 -0.03016,0.0767 -0.07699,0.15346 -0.140758,0.23548 -0.06297,0.082 -0.16801,0.19315 -0.315383,0.33073 l -0.328084,0.3175 v 0.0132 h 0.896673 z"
               id="path482"
               inkscape:connector-curvature="0"
               style="fill:#fafafa;stroke-width:0.26458332" />
            <path
               d="m 75.616297,180.27797 1.38483,1.88912 -1.38483,2.07963"
               id="path484"
               inkscape:connector-curvature="0"
               style="fill:none;stroke:#fafafa;stroke-width:0.13229166" />
            <path
               d="m 75.616297,180.27797 1.38483,1.88912 -1.38483,2.07963"
               id="path486"
               inkscape:connector-curvature="0"
               style="fill:none;stroke:#fafafa;stroke-width:0.13229166" />
            <path
               d="m 79.424445,180.27797 -1.384829,1.88912 1.384829,2.07963"
               id="path488"
               inkscape:connector-curvature="0"
               style="fill:none;stroke:#fafafa;stroke-width:0.13229166" />
            <path
               d="m 79.424445,180.27797 -1.384829,1.88912 1.384829,2.07963"
               id="path490"
               inkscape:connector-curvature="0"
               style="fill:none;stroke:#fafafa;stroke-width:0.13229166" />
          </g>
        </g>
      </g>
    </g>
  </g>
</svg>
