<?xml version="1.0" encoding="UTF-8" standalone="no"?>
<!-- Created with Inkscape (http://www.inkscape.org/) -->

<svg
   xmlns:dc="http://purl.org/dc/elements/1.1/"
   xmlns:cc="http://creativecommons.org/ns#"
   xmlns:rdf="http://www.w3.org/1999/02/22-rdf-syntax-ns#"
   xmlns:svg="http://www.w3.org/2000/svg"
   xmlns="http://www.w3.org/2000/svg"
   xmlns:sodipodi="http://sodipodi.sourceforge.net/DTD/sodipodi-0.dtd"
   xmlns:inkscape="http://www.inkscape.org/namespaces/inkscape"
   width="386"
   height="113"
   viewBox="0 0 102.12916 29.897918"
   version="1.1"
   id="svg2705"
   inkscape:version="0.92.5 (2060ec1f9f, 2020-04-08)"
   sodipodi:docname="lc4_cir0007_circuit_d.svg">
  <defs
     id="defs2699" />
  <sodipodi:namedview
     id="base"
     pagecolor="#ffffff"
     bordercolor="#666666"
     borderopacity="1.0"
     inkscape:pageopacity="0.0"
     inkscape:pageshadow="2"
     inkscape:zoom="1.4"
     inkscape:cx="253.55928"
     inkscape:cy="119.20014"
     inkscape:document-units="mm"
     inkscape:current-layer="g3401"
     showgrid="false"
     units="px"
     inkscape:window-width="1366"
     inkscape:window-height="704"
     inkscape:window-x="0"
     inkscape:window-y="27"
     inkscape:window-maximized="1" />
  <metadata
     id="metadata2702">
    <rdf:RDF>
      <cc:Work
         rdf:about="">
        <dc:format>image/svg+xml</dc:format>
        <dc:type
           rdf:resource="http://purl.org/dc/dcmitype/StillImage" />
        <dc:title />
      </cc:Work>
    </rdf:RDF>
  </metadata>
  <g
     inkscape:label="Layer 1"
     inkscape:groupmode="layer"
     id="layer1"
     transform="translate(0,-267.10207)">
    <g
       id="g3401"
       transform="translate(-15.459226,136.2415)">
      <line
         style="fill:none;stroke:#fafafa;stroke-width:0.44674391"
         x1="30.363413"
         y1="131.98088"
         x2="30.363413"
         y2="136.51714"
         id="line244" />
      <line
         style="fill:none;stroke:#fafafa;stroke-width:0.44674391"
         x1="30.363413"
         y1="131.98088"
         x2="30.363413"
         y2="136.51714"
         id="line246" />
      <line
         style="fill:none;stroke:#fafafa;stroke-width:0.44674391"
         x1="30.363413"
         y1="131.98088"
         x2="30.363413"
         y2="136.51714"
         id="line248" />
      <path
         style="fill:none;stroke:#fafafa;stroke-width:0.44674391"
         inkscape:connector-curvature="0"
         d="m 31.520707,134.34773 h 2.564086"
         id="path250" />
      <path
         style="fill:none;stroke:#fafafa;stroke-width:0.44674391"
         inkscape:connector-curvature="0"
         d="m 31.520707,134.34773 h 2.564086"
         id="path252" />
      <path
         style="fill:none;stroke:#fafafa;stroke-width:0.44674391"
         inkscape:connector-curvature="0"
         d="m 32.901369,135.53094 v -2.56387"
         id="path258" />
      <path
         style="fill:none;stroke:#fafafa;stroke-width:0.44674391"
         inkscape:connector-curvature="0"
         d="m 32.901369,135.53094 v -2.56387"
         id="path260" />
      <path
         style="fill:none;stroke:#fafafa;stroke-width:0.44674391"
         inkscape:connector-curvature="0"
         d="m 34.87352,132.37536 1.282155,1.97237 -1.282155,2.1694"
         id="path266" />
      <path
         style="fill:none;stroke:#fafafa;stroke-width:0.44674391"
         inkscape:connector-curvature="0"
         d="m 34.87352,132.37536 1.282155,1.97237 -1.282155,2.1694"
         id="path268" />
      <path
         sodipodi:nodetypes="cc"
         style="fill:none;stroke:#eaa356;stroke-width:0.44674391"
         inkscape:connector-curvature="0"
         d="m 38.156811,134.24901 68.527279,0"
         id="path274" />
      <path
         style="fill:none;stroke:#eaa356;stroke-width:0.44674391"
         inkscape:connector-curvature="0"
         d="m 77.542694,133.26282 1.084918,0.98619 -1.084918,1.18342"
         id="path278" />
      <line
         style="fill:none;stroke:#fafafa;stroke-width:0.44674391"
         x1="30.363413"
         y1="139.35567"
         x2="30.363413"
         y2="143.89191"
         id="line238" />
      <line
         style="fill:none;stroke:#fafafa;stroke-width:0.44674391"
         x1="30.363413"
         y1="139.35567"
         x2="30.363413"
         y2="143.89191"
         id="line240" />
      <line
         style="fill:none;stroke:#fafafa;stroke-width:0.44674391"
         x1="30.363413"
         y1="139.35567"
         x2="30.363413"
         y2="143.89191"
         id="line242" />
      <path
         style="fill:none;stroke:#fafafa;stroke-width:0.44674391"
         inkscape:connector-curvature="0"
         d="m 31.520707,141.32782 h 2.564086"
         id="path254" />
      <path
         style="fill:none;stroke:#fafafa;stroke-width:0.44674391"
         inkscape:connector-curvature="0"
         d="m 31.520707,141.32782 h 2.564086"
         id="path256" />
      <path
         style="fill:none;stroke:#fafafa;stroke-width:0.44674391"
         inkscape:connector-curvature="0"
         d="m 32.901369,142.51125 v -2.56387"
         id="path262" />
      <path
         style="fill:none;stroke:#fafafa;stroke-width:0.44674391"
         inkscape:connector-curvature="0"
         d="m 32.901369,142.51125 v -2.56387"
         id="path264" />
      <path
         style="fill:none;stroke:#fafafa;stroke-width:0.44674391"
         inkscape:connector-curvature="0"
         d="m 34.87352,139.55291 1.282155,1.97215 -1.282155,2.16961"
         id="path270" />
      <path
         style="fill:none;stroke:#fafafa;stroke-width:0.44674391"
         inkscape:connector-curvature="0"
         d="m 34.87352,139.55291 1.282155,1.97215 -1.282155,2.16961"
         id="path272" />
      <path
         style="fill:none;stroke:#eaa356;stroke-width:0.44674391"
         inkscape:connector-curvature="0"
         d="m 38.156811,141.32782 69.094249,0"
         id="path276"
         sodipodi:nodetypes="cc" />
      <path
         style="fill:none;stroke:#eaa356;stroke-width:0.44674391"
         inkscape:connector-curvature="0"
         d="m 77.542694,140.24313 1.084918,0.98618 -1.084918,1.18343"
         id="path280" />
      <line
         id="line889"
         y2="151.15306"
         x2="30.363413"
         y1="146.61681"
         x1="30.363413"
         style="fill:none;stroke:#fafafa;stroke-width:0.44674391" />
      <line
         id="line891"
         y2="151.15306"
         x2="30.363413"
         y1="146.61681"
         x1="30.363413"
         style="fill:none;stroke:#fafafa;stroke-width:0.44674391" />
      <line
         id="line893"
         y2="151.15306"
         x2="30.363413"
         y1="146.61681"
         x1="30.363413"
         style="fill:none;stroke:#fafafa;stroke-width:0.44674391" />
      <path
         id="path895"
         d="m 31.520707,148.58897 h 2.564086"
         inkscape:connector-curvature="0"
         style="fill:none;stroke:#fafafa;stroke-width:0.44674391" />
      <path
         id="path897"
         d="m 31.520707,148.58897 h 2.564086"
         inkscape:connector-curvature="0"
         style="fill:none;stroke:#fafafa;stroke-width:0.44674391" />
      <path
         id="path899"
         d="m 32.901369,149.7724 v -2.56387"
         inkscape:connector-curvature="0"
         style="fill:none;stroke:#fafafa;stroke-width:0.44674391" />
      <path
         id="path901"
         d="m 32.901369,149.7724 v -2.56387"
         inkscape:connector-curvature="0"
         style="fill:none;stroke:#fafafa;stroke-width:0.44674391" />
      <path
         id="path903"
         d="m 34.87352,146.81406 1.282155,1.97215 -1.282155,2.16961"
         inkscape:connector-curvature="0"
         style="fill:none;stroke:#fafafa;stroke-width:0.44674391" />
      <path
         id="path905"
         d="m 34.87352,146.81406 1.282155,1.97215 -1.282155,2.16961"
         inkscape:connector-curvature="0"
         style="fill:none;stroke:#fafafa;stroke-width:0.44674391" />
      <path
         id="path909"
         d="m 38.156811,148.58897 68.999749,0"
         inkscape:connector-curvature="0"
         style="fill:none;stroke:#eaa356;stroke-width:0.44674391"
         sodipodi:nodetypes="cc" />
      <path
         id="path911"
         d="m 77.542694,147.50428 1.084918,0.98618 -1.084918,1.18343"
         inkscape:connector-curvature="0"
         style="fill:none;stroke:#eaa356;stroke-width:0.44674391" />
      <g
         id="g1020"
         transform="translate(-28.234493)">
        <g
           transform="translate(2.5078934e-6)"
           id="g1762">
          <g
             id="g3446"
             transform="matrix(0.84424048,0,0,0.84424048,13.854181,16.969098)" />
          <g
             transform="matrix(0.84424048,0,0,0.84424048,13.854181,16.71808)"
             id="g1580">
            <path
               style="fill:none;stroke:#eaa356;stroke-width:0.52916664"
               inkscape:connector-curvature="0"
               id="path1576"
               d="m 80.14715,137.93004 2.803525,2.5699" />
            <path
               d="m 80.14715,140.49994 2.803525,-2.5699"
               id="path1578"
               inkscape:connector-curvature="0"
               style="fill:none;stroke:#eaa356;stroke-width:0.52916664" />
          </g>
        </g>
      </g>
      <path
         sodipodi:nodetypes="cc"
         id="path923"
         d="M 54.454724,155.76635 V 134.3212"
         style="fill:none;stroke:#eaa356;stroke-width:0.44674391"
         inkscape:connector-curvature="0" />
      <g
         transform="matrix(0.84424048,0,0,0.84424048,-14.368449,31.05804)"
         id="g1586">
        <path
           d="m 80.14715,137.93004 2.803525,2.5699"
           id="path1582"
           inkscape:connector-curvature="0"
           style="fill:none;stroke:#eaa356;stroke-width:0.52916664" />
        <path
           style="fill:none;stroke:#eaa356;stroke-width:0.52916664"
           inkscape:connector-curvature="0"
           id="path1584"
           d="m 80.14715,140.49994 2.803525,-2.5699" />
      </g>
      <g
         id="g1717"
         transform="matrix(0.84424048,0,0,0.84424048,-14.392169,23.79689)">
        <path
           style="fill:none;stroke:#eaa356;stroke-width:0.52916664"
           inkscape:connector-curvature="0"
           id="path1713"
           d="m 80.14715,137.93004 2.803525,2.5699" />
        <path
           d="m 80.14715,140.49994 2.803525,-2.5699"
           id="path1715"
           inkscape:connector-curvature="0"
           style="fill:none;stroke:#eaa356;stroke-width:0.52916664" />
      </g>
      <g
         id="g1010"
         transform="matrix(0.84424048,0,0,0.84424048,-14.368449,27.032149)">
        <g
           transform="translate(0,13.36945)"
           id="g1002">
          <path
             d="m 80.14715,137.93004 2.803525,2.5699"
             id="path998"
             inkscape:connector-curvature="0"
             style="fill:none;stroke:#eaa356;stroke-width:0.52916664" />
          <path
             style="fill:none;stroke:#eaa356;stroke-width:0.52916664"
             inkscape:connector-curvature="0"
             id="path1000"
             d="m 80.14715,140.49994 2.803525,-2.5699" />
        </g>
      </g>
      <line
         style="fill:none;stroke:#fafafa;stroke-width:0.44674391"
         x1="30.363413"
         y1="153.87796"
         x2="30.363413"
         y2="158.41422"
         id="line972" />
      <line
         style="fill:none;stroke:#fafafa;stroke-width:0.44674391"
         x1="30.363413"
         y1="153.87796"
         x2="30.363413"
         y2="158.41422"
         id="line974" />
      <line
         style="fill:none;stroke:#fafafa;stroke-width:0.44674391"
         x1="30.363413"
         y1="153.87796"
         x2="30.363413"
         y2="158.41422"
         id="line976" />
      <path
         style="fill:none;stroke:#fafafa;stroke-width:0.44674391"
         inkscape:connector-curvature="0"
         d="m 31.520707,155.85011 h 2.564086"
         id="path978" />
      <path
         style="fill:none;stroke:#fafafa;stroke-width:0.44674391"
         inkscape:connector-curvature="0"
         d="m 31.520707,155.85011 h 2.564086"
         id="path980" />
      <path
         style="fill:none;stroke:#fafafa;stroke-width:0.44674391"
         inkscape:connector-curvature="0"
         d="m 32.901369,157.03354 v -2.56387"
         id="path982" />
      <path
         style="fill:none;stroke:#fafafa;stroke-width:0.44674391"
         inkscape:connector-curvature="0"
         d="m 32.901369,157.03354 v -2.56387"
         id="path984" />
      <path
         style="fill:none;stroke:#fafafa;stroke-width:0.44674391"
         inkscape:connector-curvature="0"
         d="m 34.87352,154.0752 1.282155,1.97215 -1.282155,2.16961"
         id="path986" />
      <path
         style="fill:none;stroke:#fafafa;stroke-width:0.44674391"
         inkscape:connector-curvature="0"
         d="m 34.87352,154.0752 1.282155,1.97215 -1.282155,2.16961"
         id="path988" />
      <path
         style="fill:none;stroke:#eaa356;stroke-width:0.44674391"
         inkscape:connector-curvature="0"
         d="m 38.156811,155.85011 68.905259,0"
         id="path990"
         sodipodi:nodetypes="cc" />
      <path
         style="fill:none;stroke:#eaa356;stroke-width:0.44674391"
         inkscape:connector-curvature="0"
         d="m 77.542694,154.76542 1.084918,0.98618 -1.084918,1.18343"
         id="path992" />
      <rect
         style="fill:#eaa356;stroke:none;stroke-width:0.17745037"
         id="rect434"
         rx="0.35490075"
         height="5.1460609"
         width="14.164213"
         y="131.61523"
         x="85.790985" />
      <rect
         style="fill:#eaa356;stroke:none;stroke-width:0.17745037"
         id="rect436"
         rx="0.35490075"
         height="5.1460609"
         width="14.164213"
         y="131.7328"
         x="85.790985" />
      <path
         style="fill:#eaa356;stroke:none;stroke-width:0.17745037"
         inkscape:connector-curvature="0"
         id="path446"
         d="m 105.99246,136.1566 v -3.81519 c 1.58676,0 4.52782,0.44363 4.64405,1.77451 0.11605,1.33088 -3.13484,1.95195 -4.64405,2.04068 z" />
      <path
         style="fill:none;stroke:#fafafa;stroke-width:0.08872519"
         inkscape:connector-curvature="0"
         id="path458"
         d="m 87.648702,132.8574 v 2.57304" />
      <path
         style="fill:none;stroke:#fafafa;stroke-width:0.08872519"
         inkscape:connector-curvature="0"
         id="path460"
         d="m 98.329792,132.8574 v 2.57304" />
      <path
         style="fill:#fafafa;stroke:none;stroke-width:0.17745037"
         inkscape:connector-curvature="0"
         id="path464"
         d="m 89.527192,134.98681 h -1.14651 v -2.02648 h 1.14651 v 0.28037 h -0.81521 v 0.55187 h 0.76393 v 0.27682 h -0.76393 v 0.63528 h 0.81521 z m 0.84768,0 h -0.20353 v -0.81804 c 0,-0.0976 0.002,-0.17568 0.007,-0.23246 -0.0133,0.0142 -0.0298,0.0302 -0.0495,0.0461 -0.019,0.0178 -0.0838,0.0692 -0.19396,0.15971 l -0.10238,-0.12954 0.37264,-0.2928 h 0.16982 z" />
      <path
         style="fill:#fafafa;stroke:none;stroke-width:0.17745037"
         inkscape:connector-curvature="0"
         id="path466"
         d="m 96.028802,134.98681 h -1.14651 v -2.02648 h 1.14651 v 0.28037 h -0.81521 v 0.55187 h 0.76392 v 0.27682 h -0.76392 v 0.63528 h 0.81521 z m 0.84768,0 h -0.20372 v -0.81804 c 0,-0.0976 0.002,-0.17568 0.007,-0.23246 -0.0133,0.0142 -0.0298,0.0302 -0.0495,0.0461 -0.019,0.0178 -0.0838,0.0692 -0.19413,0.15971 l -0.10221,-0.12954 0.37264,-0.2928 h 0.16982 z" />
      <path
         style="fill:none;stroke:#fafafa;stroke-width:0.08872519"
         inkscape:connector-curvature="0"
         id="path468"
         d="m 91.363982,132.8574 0.92878,1.267 -0.92878,1.39476" />
      <path
         style="fill:none;stroke:#fafafa;stroke-width:0.08872519"
         inkscape:connector-curvature="0"
         id="path470"
         d="m 91.363982,132.8574 0.92878,1.267 -0.92878,1.39476" />
      <path
         style="fill:none;stroke:#fafafa;stroke-width:0.08872519"
         inkscape:connector-curvature="0"
         id="path472"
         d="m 93.918022,132.8574 -0.92877,1.267 0.92877,1.39476" />
      <path
         style="fill:none;stroke:#fafafa;stroke-width:0.08872519"
         inkscape:connector-curvature="0"
         id="path474"
         d="m 93.918022,132.8574 -0.92877,1.267 0.92877,1.39476" />
      <path
         style="fill:#eaa356;stroke:none;stroke-width:0.17745037"
         inkscape:connector-curvature="0"
         id="path450"
         d="m 105.99246,143.23542 v -3.81519 c 1.58676,0 4.52782,0.44363 4.64405,1.7745 0.11605,1.33089 -3.13484,1.95196 -4.64405,2.04069 z" />
      <g
         id="g1303"
         transform="translate(0,-0.04590017)">
        <rect
           x="85.790985"
           y="138.80069"
           width="14.164213"
           height="5.1460609"
           rx="0.35490075"
           id="rect440"
           style="fill:#eaa356;stroke:none;stroke-width:0.17745037" />
        <rect
           x="85.790985"
           y="138.80069"
           width="14.164213"
           height="5.1460609"
           rx="0.35490075"
           id="rect442"
           style="fill:#eaa356;stroke:none;stroke-width:0.17745037" />
        <path
           d="m 87.648702,140.39777 v 2.57303"
           id="path462"
           inkscape:connector-curvature="0"
           style="fill:none;stroke:#fafafa;stroke-width:0.08872519" />
        <path
           d="m 87.648702,140.39777 v 2.57303"
           id="path476"
           inkscape:connector-curvature="0"
           style="fill:none;stroke:#fafafa;stroke-width:0.08872519" />
        <path
           d="m 98.329792,140.39777 v 2.57303"
           id="path478"
           inkscape:connector-curvature="0"
           style="fill:none;stroke:#fafafa;stroke-width:0.08872519" />
        <path
           d="m 89.527192,142.52717 h -1.14651 v -2.02648 h 1.14651 v 0.28037 h -0.81521 v 0.55187 h 0.76393 v 0.27682 h -0.76393 v 0.63528 h 0.81521 z m 1.10853,0 h -0.85868 v -0.15438 l 0.32669,-0.32828 c 0.0964,-0.0994 0.16023,-0.16858 0.19147,-0.2094 0.0318,-0.0426 0.0548,-0.0816 0.0692,-0.11711 0.0146,-0.0373 0.0218,-0.0763 0.0218,-0.11712 0,-0.0568 -0.0174,-0.10292 -0.052,-0.13486 -0.0342,-0.0337 -0.0814,-0.0497 -0.14213,-0.0497 -0.0486,0 -0.0957,0.009 -0.14125,0.0266 -0.0451,0.0178 -0.0974,0.0497 -0.15687,0.0976 l -0.11002,-0.13486 c 0.0704,-0.0585 0.13894,-0.10115 0.20531,-0.12599 0.0666,-0.0248 0.13717,-0.0373 0.21223,-0.0373 0.11801,0 0.21241,0.0302 0.28339,0.0923 0.0712,0.0621 0.10665,0.14373 0.10665,0.24842 0,0.0568 -0.0105,0.1118 -0.0312,0.16326 -0.0202,0.0514 -0.0516,0.10292 -0.0944,0.15793 -0.0422,0.055 -0.11268,0.12954 -0.21152,0.22182 l -0.22004,0.21294 v 0.009 h 0.60138 z"
           id="path480"
           inkscape:connector-curvature="0"
           style="fill:#fafafa;stroke:none;stroke-width:0.17745037" />
        <path
           d="m 96.028802,142.52717 h -1.14651 v -2.02648 h 1.14651 v 0.28037 h -0.81521 v 0.55187 h 0.76392 v 0.27682 h -0.76392 v 0.63528 h 0.81521 z m 1.10853,0 h -0.85869 v -0.15438 l 0.32669,-0.32828 c 0.0964,-0.0994 0.16024,-0.16858 0.19147,-0.2094 0.0318,-0.0426 0.0548,-0.0816 0.0692,-0.11711 0.0145,-0.0373 0.0216,-0.0763 0.0216,-0.11712 0,-0.0568 -0.0172,-0.10292 -0.052,-0.13486 -0.0341,-0.0337 -0.0815,-0.0497 -0.14196,-0.0497 -0.0486,0 -0.0956,0.009 -0.14125,0.0266 -0.0451,0.0178 -0.0974,0.0497 -0.15686,0.0976 l -0.11002,-0.13486 c 0.0704,-0.0585 0.13894,-0.10115 0.20531,-0.12599 0.0664,-0.0248 0.13717,-0.0373 0.21223,-0.0373 0.11783,0 0.21241,0.0302 0.28339,0.0923 0.071,0.0621 0.10664,0.14373 0.10664,0.24842 0,0.0568 -0.0105,0.1118 -0.0312,0.16326 -0.0202,0.0514 -0.0516,0.10292 -0.0944,0.15793 -0.0422,0.055 -0.11268,0.12954 -0.21152,0.22182 l -0.22004,0.21294 v 0.009 h 0.60138 z"
           id="path482"
           inkscape:connector-curvature="0"
           style="fill:#fafafa;stroke:none;stroke-width:0.17745037" />
        <path
           d="m 91.363982,140.39777 0.92878,1.26699 -0.92878,1.39477"
           id="path484"
           inkscape:connector-curvature="0"
           style="fill:none;stroke:#fafafa;stroke-width:0.08872519" />
        <path
           d="m 91.363982,140.39777 0.92878,1.26699 -0.92878,1.39477"
           id="path486"
           inkscape:connector-curvature="0"
           style="fill:none;stroke:#fafafa;stroke-width:0.08872519" />
        <path
           d="m 93.918022,140.39777 -0.92877,1.26699 0.92877,1.39477"
           id="path488"
           inkscape:connector-curvature="0"
           style="fill:none;stroke:#fafafa;stroke-width:0.08872519" />
        <path
           d="m 93.918022,140.39777 -0.92877,1.26699 0.92877,1.39477"
           id="path490"
           inkscape:connector-curvature="0"
           style="fill:none;stroke:#fafafa;stroke-width:0.08872519" />
      </g>
      <path
         d="m 105.99246,150.49656 v -3.81519 c 1.58677,0 4.52783,0.44363 4.64406,1.77451 0.11605,1.33087 -3.13484,1.95195 -4.64406,2.04068 z"
         id="path1079"
         inkscape:connector-curvature="0"
         style="fill:#eaa356;stroke:none;stroke-width:0.17745037" />
      <g
         id="g1290"
         transform="translate(0,0.02979451)">
        <rect
           style="fill:#eaa356;stroke:none;stroke-width:0.17745037"
           id="rect1073"
           rx="0.35490075"
           height="5.1460609"
           width="14.164213"
           y="145.98615"
           x="85.790977" />
        <rect
           style="fill:#eaa356;stroke:none;stroke-width:0.17745037"
           id="rect1075"
           rx="0.35490075"
           height="5.1460609"
           width="14.164213"
           y="145.98615"
           x="85.790977" />
        <path
           style="fill:none;stroke:#fafafa;stroke-width:0.08872519"
           inkscape:connector-curvature="0"
           id="path1083"
           d="m 87.648712,147.58321 v 2.57303" />
        <path
           style="fill:none;stroke:#fafafa;stroke-width:0.08872519"
           inkscape:connector-curvature="0"
           id="path1085"
           d="m 87.648712,147.58321 v 2.57303" />
        <path
           style="fill:none;stroke:#fafafa;stroke-width:0.08872519"
           inkscape:connector-curvature="0"
           id="path1087"
           d="m 98.329802,147.58321 v 2.57303" />
        <path
           style="fill:#fafafa;stroke:none;stroke-width:0.17745037"
           inkscape:connector-curvature="0"
           id="path1089"
           d="m 89.527202,149.71261 h -1.14651 v -2.02648 h 1.14651 v 0.28037 h -0.81521 v 0.55187 h 0.76393 v 0.27682 h -0.76393 v 0.63527 h 0.81521 z"
           sodipodi:nodetypes="ccccccccccccc" />
        <path
           style="fill:#fafafa;stroke:none;stroke-width:0.17745037"
           inkscape:connector-curvature="0"
           id="path1091"
           d="m 96.028802,149.71261 h -1.1465 v -2.02648 h 1.1465 v 0.28037 h -0.8152 v 0.55187 h 0.76392 v 0.27682 h -0.76392 v 0.63527 h 0.8152 z"
           sodipodi:nodetypes="ccccccccccccc" />
        <path
           style="fill:none;stroke:#fafafa;stroke-width:0.08872519"
           inkscape:connector-curvature="0"
           id="path1093"
           d="m 91.363992,147.58321 0.92877,1.26699 -0.92877,1.39476" />
        <path
           style="fill:none;stroke:#fafafa;stroke-width:0.08872519"
           inkscape:connector-curvature="0"
           id="path1095"
           d="m 91.363992,147.58321 0.92877,1.26699 -0.92877,1.39476" />
        <path
           style="fill:none;stroke:#fafafa;stroke-width:0.08872519"
           inkscape:connector-curvature="0"
           id="path1097"
           d="m 93.918032,147.58321 -0.92877,1.26699 0.92877,1.39476" />
        <path
           style="fill:none;stroke:#fafafa;stroke-width:0.08872519"
           inkscape:connector-curvature="0"
           id="path1099"
           d="m 93.918032,147.58321 -0.92877,1.26699 0.92877,1.39476" />
        <g
           transform="matrix(0.07418792,0,0,0.07418792,89.677922,147.4726)"
           id="g1122"
           style="fill:#ffffff;stroke:none">
          <path
             inkscape:connector-curvature="0"
             d="m 1.509,25.549 2.109,-0.281 c 0.242,1.195 0.654,2.057 1.236,2.584 0.582,0.527 1.291,0.791 2.127,0.791 0.992,0 1.83,-0.344 2.514,-1.031 0.684,-0.687 1.025,-1.539 1.025,-2.555 0,-0.969 -0.316,-1.768 -0.949,-2.396 -0.633,-0.628 -1.438,-0.943 -2.414,-0.943 -0.398,0 -0.895,0.078 -1.488,0.234 L 5.903,20.1 c 0.141,0.016 0.254,0.023 0.34,0.023 0.898,0 1.707,-0.234 2.426,-0.703 0.719,-0.469 1.078,-1.191 1.078,-2.168 0,-0.773 -0.262,-1.414 -0.785,-1.922 -0.523,-0.508 -1.199,-0.762 -2.027,-0.762 -0.82,0 -1.504,0.258 -2.051,0.773 -0.547,0.515 -0.898,1.289 -1.055,2.32 L 1.72,17.288 c 0.258,-1.414 0.844,-2.51 1.758,-3.287 0.914,-0.777 2.051,-1.166 3.41,-1.166 0.938,0 1.801,0.201 2.59,0.604 0.789,0.403 1.393,0.951 1.811,1.646 0.418,0.695 0.627,1.434 0.627,2.215 0,0.742 -0.199,1.418 -0.598,2.027 -0.399,0.609 -0.988,1.094 -1.77,1.453 1.016,0.234 1.805,0.721 2.367,1.459 0.562,0.738 0.844,1.662 0.844,2.771 0,1.5 -0.547,2.771 -1.641,3.814 -1.094,1.043 -2.477,1.564 -4.148,1.564 -1.508,0 -2.76,-0.449 -3.756,-1.348 C 2.218,28.141 1.649,26.979 1.509,25.549 Z"
             id="path1120"
             style="fill:#ffffff" />
        </g>
        <g
           style="fill:#ffffff;stroke:none"
           id="g1697"
           transform="matrix(0.07418792,0,0,0.07418792,89.677922,147.4726)">
          <path
             style="fill:#ffffff"
             id="path1695"
             d="m 88.983199,25.549 2.109,-0.281 c 0.242,1.195 0.654,2.057 1.236,2.584 0.582,0.527 1.291,0.791 2.127,0.791 0.992,0 1.83,-0.344 2.514,-1.031 0.684,-0.687 1.025,-1.539 1.025,-2.555 0,-0.969 -0.316,-1.768 -0.949,-2.396 -0.633,-0.628 -1.438,-0.943 -2.414,-0.943 -0.398,0 -0.895,0.078 -1.488,0.234 l 0.234,-1.852 c 0.141,0.016 0.254,0.023 0.34,0.023 0.898,0 1.707,-0.234 2.426,-0.703 0.719,-0.469 1.078,-1.191 1.078,-2.168 0,-0.773 -0.262,-1.414 -0.785,-1.922 -0.523,-0.508 -1.199,-0.762 -2.027,-0.762 -0.82,0 -1.504,0.258 -2.051,0.773 -0.547,0.515 -0.898,1.289 -1.055,2.32 l -2.109,-0.373 c 0.258,-1.414 0.844,-2.51 1.758,-3.287 0.914,-0.777 2.051,-1.166 3.41,-1.166 0.938,0 1.801,0.201 2.59,0.604 0.789,0.403 1.393,0.951 1.811,1.646 0.418,0.695 0.627,1.434 0.627,2.215 0,0.742 -0.199,1.418 -0.598,2.027 -0.399,0.609 -0.988,1.094 -1.77,1.453 1.016,0.234 1.805,0.721 2.367,1.459 0.562,0.738 0.844001,1.662 0.844001,2.771 0,1.5 -0.547001,2.771 -1.641001,3.814 -1.094,1.043 -2.477,1.564 -4.148,1.564 -1.508,0 -2.76,-0.449 -3.756,-1.348 -0.996,-0.899 -1.565,-2.061 -1.705,-3.491 z"
             inkscape:connector-curvature="0" />
        </g>
      </g>
      <path
         style="fill:#eaa356;stroke:none;stroke-width:0.17745037"
         inkscape:connector-curvature="0"
         id="path1214"
         d="m 105.99246,157.7577 v -3.81519 c 1.58677,0 4.52783,0.44363 4.64406,1.77451 0.11605,1.33088 -3.13484,1.95195 -4.64406,2.04068 z" />
      <g
         transform="matrix(0.07418792,0,0,0.07418792,129.76508,151.24533)"
         id="g1238"
         style="fill:#ffffff;stroke:none" />
      <g
         id="g1273"
         transform="translate(0,0.02820868)">
        <rect
           x="85.790977"
           y="153.24887"
           width="14.164213"
           height="5.1460609"
           rx="0.35490075"
           id="rect1208"
           style="fill:#eaa356;stroke:none;stroke-width:0.17745037" />
        <rect
           x="85.790977"
           y="153.24887"
           width="14.164213"
           height="5.1460609"
           rx="0.35490075"
           id="rect1210"
           style="fill:#eaa356;stroke:none;stroke-width:0.17745037" />
        <path
           d="m 87.648712,154.84593 v 2.57303"
           id="path1218"
           inkscape:connector-curvature="0"
           style="fill:none;stroke:#fafafa;stroke-width:0.08872519" />
        <path
           d="m 87.648712,154.84593 v 2.57303"
           id="path1220"
           inkscape:connector-curvature="0"
           style="fill:none;stroke:#fafafa;stroke-width:0.08872519" />
        <path
           d="m 98.329802,154.84593 v 2.57303"
           id="path1222"
           inkscape:connector-curvature="0"
           style="fill:none;stroke:#fafafa;stroke-width:0.08872519" />
        <path
           sodipodi:nodetypes="ccccccccccccc"
           d="m 89.527202,156.97533 h -1.14651 v -2.02648 h 1.14651 v 0.28037 h -0.81521 v 0.55187 h 0.76393 v 0.27682 h -0.76393 v 0.63528 h 0.81521 z"
           id="path1224"
           inkscape:connector-curvature="0"
           style="fill:#fafafa;stroke:none;stroke-width:0.17745037" />
        <path
           sodipodi:nodetypes="ccccccccccccc"
           d="m 96.028802,156.97533 h -1.1465 v -2.02648 h 1.1465 v 0.28037 h -0.8152 v 0.55187 h 0.76392 v 0.27682 h -0.76392 v 0.63528 h 0.8152 z"
           id="path1226"
           inkscape:connector-curvature="0"
           style="fill:#fafafa;stroke:none;stroke-width:0.17745037" />
        <path
           d="m 91.363992,154.84593 0.92877,1.26699 -0.92877,1.39477"
           id="path1228"
           inkscape:connector-curvature="0"
           style="fill:none;stroke:#fafafa;stroke-width:0.08872519" />
        <path
           d="m 91.363992,154.84593 0.92877,1.26699 -0.92877,1.39477"
           id="path1230"
           inkscape:connector-curvature="0"
           style="fill:none;stroke:#fafafa;stroke-width:0.08872519" />
        <path
           d="m 93.918032,154.84593 -0.92877,1.26699 0.92877,1.39477"
           id="path1232"
           inkscape:connector-curvature="0"
           style="fill:none;stroke:#fafafa;stroke-width:0.08872519" />
        <path
           d="m 93.918032,154.84593 -0.92877,1.26699 0.92877,1.39477"
           id="path1234"
           inkscape:connector-curvature="0"
           style="fill:none;stroke:#fafafa;stroke-width:0.08872519" />
        <g
           style="fill:#ffffff"
           id="g4"
           transform="matrix(0.07670832,0,0,0.07670832,89.739222,154.71196)">
          <path
             style="fill:#ffffff"
             id="path2"
             d="M 8.259,30.084 V 25.971 H 0.806 v -1.934 l 7.84,-11.133 h 1.723 v 11.133 h 2.32 v 1.934 h -2.32 v 4.113 z m 0,-6.046 V 16.292 L 2.88,24.038 Z"
             inkscape:connector-curvature="0" />
        </g>
        <g
           style="fill:#ffffff"
           transform="matrix(0.07670832,0,0,0.07670832,96.212062,154.71196)"
           id="g1258">
          <path
             style="fill:#ffffff"
             inkscape:connector-curvature="0"
             d="M 8.259,30.084 V 25.971 H 0.806 v -1.934 l 7.84,-11.133 h 1.723 v 11.133 h 2.32 v 1.934 h -2.32 v 4.113 z m 0,-6.046 V 16.292 L 2.88,24.038 Z"
             id="path1256" />
        </g>
      </g>
      <path
         id="path314-3"
         d="m 19.852886,134.28546 c -0.0916,0 -0.163525,0.0293 -0.215453,0.0879 -0.05192,0.0577 -0.08176,0.13982 -0.08934,0.24674 h 0.606683 c -0.0019,-0.10692 -0.02967,-0.189 -0.08354,-0.24674 -0.05387,-0.0585 -0.126756,-0.0879 -0.218354,-0.0879 z m 0.06095,1.33528 c -0.255123,0 -0.454448,-0.0705 -0.598135,-0.21126 -0.143689,-0.14079 -0.215452,-0.34011 -0.215452,-0.59814 0,-0.26544 0.06612,-0.47057 0.198518,-0.61506 0.133206,-0.14563 0.316889,-0.21835 0.551208,-0.21835 0.223998,0 0.398327,0.0638 0.523147,0.19142 0.124656,0.12755 0.187069,0.30366 0.187069,0.52862 v 0.20981 h -1.021943 c 0.0047,0.12272 0.04112,0.21868 0.109177,0.2877 0.06789,0.069 0.163362,0.10353 0.286247,0.10353 0.09547,0 0.185617,-0.01 0.270765,-0.0298 0.08499,-0.0198 0.173845,-0.0514 0.266412,-0.095 v 0.33446 c -0.07563,0.0379 -0.156429,0.0658 -0.242383,0.0837 -0.08595,0.0189 -0.190778,0.0284 -0.31463,0.0284 z m 1.970185,-0.0284 h -0.437999 v -1.19917 l 0.0043,-0.19692 0.0071,-0.21545 c -0.07273,0.0727 -0.123206,0.12047 -0.151585,0.14305 l -0.238202,0.19142 -0.211097,-0.26367 0.66748,-0.53153 h 0.360104 z"
         inkscape:connector-curvature="0"
         style="fill:#fafafa;stroke:none;stroke-width:0.16126597" />
      <path
         id="path316-6"
         d="m 19.852886,141.38966 c -0.0916,0 -0.163525,0.0293 -0.215453,0.0879 -0.05192,0.0576 -0.08176,0.13982 -0.08934,0.24658 h 0.606683 c -0.0019,-0.10676 -0.02967,-0.189 -0.08354,-0.24658 -0.05387,-0.0586 -0.126756,-0.0879 -0.218354,-0.0879 z m 0.06095,1.33512 c -0.255123,0 -0.454448,-0.0703 -0.598135,-0.21109 -0.143689,-0.14078 -0.215452,-0.34028 -0.215452,-0.59814 0,-0.2656 0.06612,-0.47057 0.198518,-0.61523 0.133206,-0.14546 0.316889,-0.21819 0.551208,-0.21819 0.223998,0 0.398327,0.0637 0.523147,0.19126 0.124656,0.12756 0.187069,0.30382 0.187069,0.52879 v 0.20981 h -1.021943 c 0.0047,0.12272 0.04112,0.21868 0.109177,0.2877 0.06789,0.0689 0.163362,0.10337 0.286247,0.10337 0.09547,0 0.185617,-0.01 0.270765,-0.0297 0.08499,-0.0198 0.173845,-0.0516 0.266412,-0.095 v 0.33446 c -0.07563,0.0377 -0.156429,0.0656 -0.242383,0.0837 -0.08595,0.0189 -0.190778,0.0282 -0.31463,0.0282 z m 2.335775,-0.0282 h -1.448487 v -0.30479 l 0.520083,-0.52589 c 0.154169,-0.15771 0.254799,-0.26689 0.302047,-0.32736 0.04724,-0.0614 0.08112,-0.11805 0.101923,-0.17014 0.02079,-0.0519 0.03127,-0.10579 0.03127,-0.16159 0,-0.0831 -0.02323,-0.14498 -0.06951,-0.18562 -0.04529,-0.0406 -0.106274,-0.0609 -0.182877,-0.0609 -0.08031,0 -0.158198,0.0184 -0.233832,0.0554 -0.07563,0.0367 -0.154492,0.0893 -0.236739,0.15724 l -0.238026,-0.28206 c 0.102081,-0.0869 0.186583,-0.14835 0.253672,-0.18415 0.06709,-0.036 0.140296,-0.0634 0.219642,-0.0823 0.07934,-0.0198 0.168201,-0.0298 0.266569,-0.0298 0.129338,0 0.243676,0.0237 0.343014,0.071 0.09918,0.0472 0.176105,0.11337 0.230936,0.19836 0.05486,0.0851 0.08224,0.18239 0.08224,0.29205 0,0.0955 -0.01694,0.18513 -0.05096,0.26931 -0.03322,0.0831 -0.08515,0.16868 -0.155943,0.25658 -0.06999,0.0879 -0.193678,0.21303 -0.371392,0.37559 l -0.266416,0.25076 v 0.02 h 0.902768 z"
         inkscape:connector-curvature="0"
         style="fill:#fafafa;stroke:none;stroke-width:0.16126597" />
      <path
         sodipodi:nodetypes="sccccsccscscscccscccccc"
         style="fill:#fafafa;stroke:none;stroke-width:0.16126597"
         inkscape:connector-curvature="0"
         d="m 19.852886,148.78298 c -0.0916,0 -0.163525,0.0293 -0.215453,0.0879 -0.05192,0.0576 -0.08176,0.13982 -0.08934,0.24658 h 0.606683 c -0.0019,-0.10676 -0.02967,-0.189 -0.08354,-0.24658 -0.05387,-0.0585 -0.126756,-0.0879 -0.218354,-0.0879 z m 0.06095,1.33512 c -0.255123,0 -0.454448,-0.0703 -0.598135,-0.21109 -0.143689,-0.14078 -0.215452,-0.34027 -0.215452,-0.59814 0,-0.2656 0.06612,-0.47057 0.198518,-0.61523 0.133206,-0.14546 0.316889,-0.21819 0.551208,-0.21819 0.223998,0 0.398327,0.0637 0.523147,0.19127 0.124656,0.12755 0.187069,0.30381 0.187069,0.52878 v 0.20981 h -1.021943 c 0.0047,0.12273 0.04112,0.21868 0.109177,0.2877 0.06789,0.0689 0.163362,0.10337 0.286247,0.10337 0.09547,0 0.185617,-0.01 0.270765,-0.0297 0.08499,-0.0198 0.173845,-0.0516 0.266412,-0.095 v 0.33447 c -0.07563,0.0377 -0.156429,0.0656 -0.242383,0.0837 -0.08595,0.0189 -0.190778,0.0282 -0.31463,0.0282 z"
         id="path913-7" />
      <path
         style="fill:#ffffff;stroke:none;stroke-width:0.19101898"
         inkscape:connector-curvature="0"
         d="m 22.193457,148.60979 c 0,0.11939 -0.03611,0.22063 -0.108308,0.3043 -0.07221,0.0835 -0.173636,0.14097 -0.304293,0.17229 v 0.008 c 0.154152,0.0193 0.270674,0.0663 0.349947,0.14116 0.07927,0.0739 0.118813,0.17402 0.118813,0.30029 0,0.18356 -0.06647,0.32683 -0.199806,0.4296 -0.13314,0.10181 -0.323394,0.15281 -0.570573,0.15281 -0.207256,0 -0.390825,-0.0344 -0.55109,-0.10315 v -0.34345 c 0.07411,0.0375 0.15549,0.0678 0.244122,0.0913 0.08882,0.0235 0.176884,0.0353 0.263797,0.0353 0.133332,0 0.231707,-0.0227 0.295125,-0.068 0.06361,-0.0453 0.09532,-0.11786 0.09532,-0.21795 0,-0.0898 -0.03648,-0.1532 -0.109644,-0.19064 -0.07316,-0.0375 -0.189683,-0.0562 -0.349947,-0.0562 H 21.221936 V 148.956 h 0.147658 c 0.147849,0 0.255965,-0.0193 0.323777,-0.0575 0.06877,-0.0391 0.10315,-0.10583 0.10315,-0.19981 0,-0.14441 -0.09054,-0.21681 -0.271629,-0.21681 -0.06265,0 -0.126645,0.0105 -0.191974,0.0313 -0.06437,0.021 -0.136196,0.0571 -0.215469,0.10851 l -0.186626,-0.27813 c 0.174019,-0.1255 0.381656,-0.18815 0.622913,-0.18815 0.197514,0 0.353386,0.0401 0.467424,0.12015 0.114802,0.08 0.172299,0.19159 0.172299,0.33428 z"
         id="path22044-5" />
      <path
         id="path1200"
         d="m 19.852886,156.04571 c -0.0916,0 -0.163525,0.0293 -0.215453,0.0879 -0.05192,0.0576 -0.08176,0.13982 -0.08934,0.24658 h 0.606683 c -0.0019,-0.10676 -0.02967,-0.18901 -0.08354,-0.24658 -0.05387,-0.0585 -0.126756,-0.0879 -0.218354,-0.0879 z m 0.06095,1.33512 c -0.255123,0 -0.454448,-0.0703 -0.598135,-0.21109 -0.143689,-0.14079 -0.215452,-0.34027 -0.215452,-0.59814 0,-0.2656 0.06612,-0.47057 0.198518,-0.61524 0.133206,-0.14545 0.316889,-0.21819 0.551208,-0.21819 0.223998,0 0.398327,0.0637 0.523147,0.19127 0.124656,0.12756 0.187069,0.30382 0.187069,0.52879 v 0.20981 h -1.021943 c 0.0047,0.12272 0.04112,0.21867 0.109177,0.2877 0.06789,0.0689 0.163362,0.10337 0.286247,0.10337 0.09547,0 0.185617,-0.01 0.270765,-0.0297 0.08499,-0.0198 0.173845,-0.0516 0.266412,-0.095 v 0.33446 c -0.07563,0.0378 -0.156429,0.0656 -0.242383,0.0837 -0.08595,0.0189 -0.190778,0.0282 -0.31463,0.0282 z"
         inkscape:connector-curvature="0"
         style="fill:#fafafa;stroke:none;stroke-width:0.16126597"
         sodipodi:nodetypes="sccccsccscscscccscccccc" />
      <path
         id="path164"
         d="m 22.401536,156.96136 h -0.235297 v 0.40508 h -0.4037 v -0.40508 h -0.834392 v -0.28751 l 0.857081,-1.26215 h 0.381011 v 1.2287 h 0.235297 z m -0.638997,-0.32096 v -0.33153 c 0,-0.0554 0.0021,-0.13554 0.0067,-0.24077 0.0045,-0.10503 0.008,-0.16625 0.01076,-0.18307 h -0.01076 c -0.03305,0.073 -0.07256,0.14434 -0.118919,0.21398 l -0.358322,0.54139 z"
         inkscape:connector-curvature="0"
         style="fill:#fafafa;stroke-width:0.19559124" />
    </g>
  </g>
</svg>
