<?xml version="1.0" encoding="UTF-8" standalone="no"?>
<svg
   xmlns:dc="http://purl.org/dc/elements/1.1/"
   xmlns:cc="http://creativecommons.org/ns#"
   xmlns:rdf="http://www.w3.org/1999/02/22-rdf-syntax-ns#"
   xmlns:svg="http://www.w3.org/2000/svg"
   xmlns="http://www.w3.org/2000/svg"
   xmlns:xlink="http://www.w3.org/1999/xlink"
   xmlns:sodipodi="http://sodipodi.sourceforge.net/DTD/sodipodi-0.dtd"
   xmlns:inkscape="http://www.inkscape.org/namespaces/inkscape"
   width="400"
   height="68"
   viewBox="0 -1900 22099.34 3756.918"
   version="1.1"
   id="svg414"
   sodipodi:docname="lc4_tex.svg"
   inkscape:version="0.92.5 (2060ec1f9f, 2020-04-08)">
  <metadata
     id="metadata418">
    <rdf:RDF>
      <cc:Work
         rdf:about="">
        <dc:format>image/svg+xml</dc:format>
        <dc:type
           rdf:resource="http://purl.org/dc/dcmitype/StillImage" />
        <dc:title></dc:title>
      </cc:Work>
    </rdf:RDF>
  </metadata>
  <sodipodi:namedview
     pagecolor="#ffffff"
     bordercolor="#666666"
     borderopacity="1"
     objecttolerance="10"
     gridtolerance="10"
     guidetolerance="10"
     inkscape:pageopacity="0"
     inkscape:pageshadow="2"
     inkscape:window-width="1366"
     inkscape:window-height="704"
     id="namedview416"
     showgrid="false"
     inkscape:zoom="0.98858704"
     inkscape:cx="98.575694"
     inkscape:cy="117.16731"
     inkscape:window-x="0"
     inkscape:window-y="27"
     inkscape:window-maximized="1"
     inkscape:current-layer="svg414" />
  <defs
     id="defs16">
    <path
       id="a"
       d="m 139,-249 h -2 q -12,0 -18,14 v 486 l 1,486 q 10,13 19,13 13,0 20,-15 v -970 q -8,-14 -18,-14 z"
       inkscape:connector-curvature="0" />
    <path
       id="n"
       d="m 228,637 q -34,0 -36,4 -1,2 -1,8 0,24 11,33 2,1 15,1 54,-3 127,-3 141,0 162,3 h 12 q 6,-6 6,-9 0,-3 -2,-18 -5,-15 -9,-19 h -38 q -69,-1 -81,-9 -7,-4 -14,-28 Q 373,576 313,336 297,271 279,198 261,125 252,88 l -9,-36 q 0,-4 9,-4 9,0 59,-2 h 17 q 32,0 51,1 19,1 49,7 30,6 50,18 20,12 44,34 24,22 42,55 16,30 30,67 14,37 17,42 5,3 17,3 h 13 q 6,-9 6,-11 0,-2 -20,-59 Q 607,146 583,83 559,20 557,9 555,4 553,3 551,2 537,0 523,-2 494,-1 483,-1 418,-1 353,-1 294,0 H 116 q -84,0 -84,10 0,7 2,14 5,19 10,21 4,1 15,1 h 6 q 27,0 60,3 14,3 19,12 3,4 72,278 69,274 69,289 0,7 -57,9 z"
       inkscape:connector-curvature="0" />
    <path
       id="e"
       d="M 462,0 Q 444,3 333,3 217,3 199,0 h -9 v 46 h 31 q 20,0 27,0 7,0 17,2 10,2 14,5 4,3 7,8 1,2 1,54 v 50 H 28 v 46 l 151,231 q 153,232 155,233 2,2 21,2 h 18 l 6,-6 V 211 h 92 v -46 h -92 v -51 q 0,-41 0,-48 0,-7 6,-12 8,-7 57,-8 h 29 V 0 Z M 293,211 V 545 L 74,212 183,211 Z"
       inkscape:connector-curvature="0" />
    <path
       id="b"
       d="m 55,732 q 1,7 6,12 5,5 14,6 10,0 17,-10 3,-7 94,-246 91,-239 92,-244 1,-5 -91,-244 -92,-239 -95,-246 -7,-10 -17,-10 -8,0 -13,5 -5,5 -7,13 0,5 90,243 91,237 91,239 0,2 -91,239 -90,238 -90,243 z"
       inkscape:connector-curvature="0" />
    <path
       id="j"
       d="m 56,347 q 0,13 14,20 h 637 q 15,-8 15,-20 0,-11 -14,-19 L 390,327 H 72 q -16,5 -16,20 z m 0,-194 q 0,15 16,20 h 636 q 14,-10 14,-20 0,-13 -15,-20 H 70 q -14,7 -14,20 z"
       inkscape:connector-curvature="0" />
    <path
       id="f"
       d="m 213,578 -13,-5 q -14,-5 -40,-10 -26,-5 -58,-7 H 83 v 46 h 19 q 47,2 87,15 40,13 56,24 16,11 28,22 2,3 12,3 9,0 17,-6 V 361 l 1,-300 q 7,-7 12,-9 5,-2 24,-4 19,-2 62,-2 h 26 V 0 H 416 Q 395,3 257,3 121,3 100,0 H 88 v 46 h 26 q 22,0 38,0 16,0 25,1 9,1 16,3 7,2 8,2 1,0 6,5 5,5 6,4 z"
       inkscape:connector-curvature="0" />
    <path
       id="l"
       d="m 94,250 q 0,69 10,131 10,62 23,107 13,45 37,88 24,43 38,67 14,24 42,52 28,28 33,34 5,6 25,21 h 17 q 14,0 14,-9 0,-3 -17,-21 -17,-18 -41,-53 -24,-35 -49,-86 -25,-51 -42,-138 -17,-87 -17,-193 0,-106 17,-192 17,-86 41,-139 24,-53 49,-86 25,-33 42,-53 17,-20 17,-21 0,-9 -15,-9 h -16 l -28,24 Q 180,-141 137,-14 94,113 94,250 Z"
       inkscape:connector-curvature="0" />
    <path
       id="c"
       d="m 228,637 q -34,0 -36,4 -1,2 -1,8 0,24 11,33 2,1 17,1 41,-2 136,-2 34,0 63,0 29,0 45,1 16,1 20,0 16,0 16,-10 0,-2 -2,-14 -5,-17 -10,-20 h -2 q -2,0 -5,0 -3,0 -7,0 -4,0 -9,-1 -5,-1 -9,0 -39,-1 -50,-3 -11,-2 -18,-11 -3,-4 -32,-123 -7,-26 -15,-58 -8,-32 -12,-47 l -4,-15 q 0,-2 145,-2 h 145 l 1,3 q 0,3 31,123 28,115 28,123 0,8 -57,10 -23,0 -30,2 -7,2 -7,9 0,2 2,12 4,17 6,19 2,2 16,3 5,0 42,-1 37,-1 94,-1 62,0 95,1 33,1 36,1 17,0 17,-10 0,-27 -12,-34 h -2 q -2,0 -5,0 -3,0 -7,0 -4,0 -9,-1 -5,-1 -9,0 -39,-1 -50,-3 -11,-2 -18,-11 -3,-5 -72,-283 -69,-278 -70,-282 0,-7 4,-7 8,-3 54,-5 h 31 q 6,-8 6,-9 0,-1 -3,-18 Q 722,6 716,0 h -15 q -37,2 -134,2 -34,0 -63,0 -29,0 -46,0 -17,0 -21,-1 -17,0 -17,9 0,5 3,14 5,19 10,21 4,1 15,1 h 6 q 27,0 60,3 6,1 8,1 2,0 6,5 4,5 6,9 2,4 6,18 4,14 7,28 3,14 11,43 7,28 11,45 33,132 33,133 0,1 -145,1 H 312 L 279,197 Q 245,63 245,58 q 0,-7 8,-9 8,-2 50,-3 h 31 q 6,-8 6,-9 0,-1 -3,-18 Q 333,6 327,0 H 312 Q 275,2 178,2 144,2 115,2 86,2 69,2 52,2 48,1 31,1 31,10 q 0,2 3,14 5,19 10,21 4,1 15,1 h 6 q 27,0 60,3 14,3 19,12 3,4 72,278 69,274 69,289 0,7 -57,9 z"
       inkscape:connector-curvature="0" />
    <path
       id="h"
       d="m 109,429 q -27,0 -43,18 -16,18 -16,44 0,71 53,123 53,52 132,52 91,0 152,-56 61,-56 62,-145 0,-43 -20,-82 -20,-39 -48,-68 -28,-29 -80,-74 -36,-31 -100,-92 l -59,-56 76,-1 q 157,0 167,5 7,2 24,89 v 3 h 40 v -3 Q 448,183 436,95 424,7 421,3 V 0 H 50 v 31 q 0,7 6,15 6,8 30,35 29,32 50,56 9,10 34,37 25,27 34,37 9,10 29,33 20,23 28,34 8,11 23,30 15,19 21,32 6,13 15,29 9,16 13,32 4,16 7,30 3,14 3,33 0,63 -34,109 -34,46 -97,46 -33,0 -58,-17 -25,-17 -35,-33 -10,-16 -10,-19 0,-1 5,-1 18,0 37,-14 19,-14 19,-46 0,-25 -16,-42 -16,-17 -45,-18 z"
       inkscape:connector-curvature="0" />
    <path
       id="g"
       d="m 127,463 q -27,0 -42,17 -15,17 -16,44 0,55 48,98 48,43 116,43 35,0 44,-1 74,-12 113,-53 39,-41 40,-89 0,-52 -34,-101 -34,-49 -94,-71 l -3,-2 q 0,-1 9,-3 9,-2 29,-9 20,-7 38,-21 82,-53 82,-140 0,-79 -62,-138 -62,-59 -157,-59 -80,0 -138,43 -58,43 -58,109 0,28 18,45 18,17 45,18 28,0 46,-18 18,-18 18,-45 0,-11 -3,-20 -3,-9 -7,-16 -4,-7 -11,-12 -7,-5 -12,-8 -5,-3 -10,-4 -5,-1 -8,-3 l -4,-1 q 51,-45 124,-45 55,0 83,53 17,33 17,101 v 20 q 0,95 -64,127 -15,6 -61,7 l -42,1 -3,2 q -2,3 -2,16 0,18 8,18 28,0 58,5 34,5 62,42 28,37 28,112 v 8 q 0,57 -35,79 -22,14 -47,14 -32,0 -59,-11 -27,-11 -38,-23 -11,-12 -11,-12 h 3 q 3,-1 8,-2 5,-1 10,-5 5,-4 12,-7 7,-3 10,-11 3,-8 8,-15 5,-7 3,-20 0,-22 -14,-39 -14,-17 -45,-18 z"
       inkscape:connector-curvature="0" />
    <path
       id="i"
       d="m 56,237 q 0,0 0,13 0,13 14,20 h 299 v 150 l 1,150 q 10,13 19,13 13,0 20,-15 V 270 h 298 q 15,-8 15,-20 0,-12 -15,-20 H 409 V -68 q -8,-14 -18,-14 h -4 q -12,0 -18,14 V 230 H 70 q -14,7 -14,20 z"
       inkscape:connector-curvature="0" />
    <path
       id="d"
       d="m 52,648 q 0,22 13,35 h 11 q 42,-3 105,-3 118,0 139,3 h 10 q 6,-6 6,-9 0,-3 -2,-18 -5,-15 -9,-19 h -21 q -22,-2 -30,-2 -29,-5 -32,-15 0,-2 29,-251 29,-249 30,-251 l 73,117 q 73,117 146,236 73,119 75,123 4,7 4,15 0,24 -44,28 -18,0 -18,11 0,1 2,13 3,14 6,18 3,4 13,4 2,0 12,0 10,0 34,-1 24,-1 64,-1 69,0 87,2 h 7 q 7,-7 7,-11 0,-17 -9,-32 -3,-3 -17,-3 -13,-1 -24,-2 -11,-1 -21,-5 -10,-4 -16,-7 -6,-3 -12,-8 -6,-5 -10,-7 -4,-2 -8,-9 -4,-7 -7,-7 L 452,282 Q 272,-9 266,-16 q -3,-2 -7,-5 l -18,-1 h -7 q -18,0 -18,7 -3,6 -39,320 -38,318 -39,321 -5,11 -62,11 H 59 q -7,5 -7,11 z"
       inkscape:connector-curvature="0" />
    <path
       id="m"
       d="m 84,237 q 0,0 0,13 0,13 14,20 h 581 q 15,-8 15,-20 0,-12 -15,-20 H 98 q -14,7 -14,20 z"
       inkscape:connector-curvature="0" />
    <path
       id="k"
       d="m 60,749 4,1 q 5,0 10,0 h 12 l 28,-24 q 94,-85 137,-212 43,-127 43,-264 0,-68 -10,-131 -10,-63 -23,-107 -13,-44 -37,-88 -24,-44 -38,-67 -14,-23 -41,-51 -27,-28 -32,-33 -5,-5 -23,-19 -3,-3 -4,-4 H 74 q -8,0 -11,0 -3,0 -5,3 -2,3 -3,9 1,1 11,13 155,161 155,475 0,314 -155,475 -10,12 -11,13 0,8 5,11 z"
       inkscape:connector-curvature="0" />
  </defs>
  <g
     transform="matrix(1,0,0,-1,714.1215,228.482)"
     id="g412"
     style="fill:currentColor;stroke:currentColor;stroke-width:0">
    <g
       data-mml-node="math"
       id="g410">
      <g
         data-mml-node="mtable"
         id="g408">
        <g
           transform="translate(0,558)"
           data-mml-node="mtr"
           id="g228">
          <g
             data-mml-node="mtd"
             id="g42">
            <g
               data-mml-node="mrow"
               id="g36">
              <g
                 data-mml-node="mo"
                 id="g20">
                <use
                   xlink:href="#a"
                   id="use18"
                   x="0"
                   y="0"
                   width="100%"
                   height="100%" />
              </g>
              <g
                 transform="translate(278)"
                 data-mml-node="msub"
                 id="g30">
                <g
                   data-mml-node="mi"
                   id="g24">
                  <use
                     xlink:href="#n"
                     id="use22"
                     x="0"
                     y="0"
                     width="100%"
                     height="100%" />
                </g>
                <g
                   transform="matrix(0.707,0,0,0.707,681,-150)"
                   data-mml-node="mn"
                   id="g28">
                  <use
                     xlink:href="#e"
                     id="use26"
                     x="0"
                     y="0"
                     width="100%"
                     height="100%" />
                </g>
              </g>
              <g
                 transform="translate(1362.6)"
                 data-mml-node="mo"
                 id="g34">
                <use
                   xlink:href="#b"
                   id="use32"
                   x="0"
                   y="0"
                   width="100%"
                   height="100%" />
              </g>
            </g>
            <g
               transform="translate(2029.3)"
               data-mml-node="mo"
               id="g40">
              <use
                 xlink:href="#j"
                 id="use38"
                 x="0"
                 y="0"
                 width="100%"
                 height="100%" />
            </g>
          </g>
          <g
             transform="translate(2807.3)"
             data-mml-node="mtd"
             id="g56">
            <g
               data-mml-node="mfrac"
               id="g54">
              <g
                 transform="translate(220,676)"
                 data-mml-node="mn"
                 id="g46">
                <use
                   xlink:href="#f"
                   id="use44"
                   x="0"
                   y="0"
                   width="100%"
                   height="100%" />
              </g>
              <g
                 transform="translate(220,-686)"
                 data-mml-node="mn"
                 id="g50">
                <use
                   xlink:href="#e"
                   id="use48"
                   x="0"
                   y="0"
                   width="100%"
                   height="100%" />
              </g>
              <rect
                 x="120"
                 y="220"
                 width="700"
                 height="60"
                 id="rect52" />
            </g>
          </g>
          <g
             transform="translate(4025.1)"
             data-mml-node="mtd"
             id="g226">
            <g
               data-mml-node="mo"
               id="g60">
              <use
                 xlink:href="#l"
                 id="use58"
                 x="0"
                 y="0"
                 width="100%"
                 height="100%" />
            </g>
            <g
               transform="translate(389)"
               data-mml-node="msub"
               id="g80">
              <g
                 data-mml-node="mrow"
                 id="g74">
                <g
                   data-mml-node="mo"
                   id="g64">
                  <use
                     xlink:href="#a"
                     id="use62"
                     x="0"
                     y="0"
                     width="100%"
                     height="100%" />
                </g>
                <g
                   transform="translate(278)"
                   data-mml-node="mi"
                   id="g68">
                  <use
                     xlink:href="#c"
                     id="use66"
                     x="0"
                     y="0"
                     width="100%"
                     height="100%" />
                </g>
                <g
                   transform="translate(1166)"
                   data-mml-node="mo"
                   id="g72">
                  <use
                     xlink:href="#b"
                     id="use70"
                     x="0"
                     y="0"
                     width="100%"
                     height="100%" />
                </g>
              </g>
              <g
                 transform="matrix(0.707,0,0,0.707,1555,-285.4)"
                 data-mml-node="mn"
                 id="g78">
                <use
                   xlink:href="#f"
                   id="use76"
                   x="0"
                   y="0"
                   width="100%"
                   height="100%" />
              </g>
            </g>
            <g
               transform="translate(2347.6)"
               data-mml-node="msub"
               id="g100">
              <g
                 data-mml-node="mrow"
                 id="g94">
                <g
                   data-mml-node="mo"
                   id="g84">
                  <use
                     xlink:href="#a"
                     id="use82"
                     x="0"
                     y="0"
                     width="100%"
                     height="100%" />
                </g>
                <g
                   transform="translate(278)"
                   data-mml-node="mi"
                   id="g88">
                  <use
                     xlink:href="#c"
                     id="use86"
                     x="0"
                     y="0"
                     width="100%"
                     height="100%" />
                </g>
                <g
                   transform="translate(1166)"
                   data-mml-node="mo"
                   id="g92">
                  <use
                     xlink:href="#b"
                     id="use90"
                     x="0"
                     y="0"
                     width="100%"
                     height="100%" />
                </g>
              </g>
              <g
                 transform="matrix(0.707,0,0,0.707,1555,-285.4)"
                 data-mml-node="mn"
                 id="g98">
                <use
                   xlink:href="#h"
                   id="use96"
                   x="0"
                   y="0"
                   width="100%"
                   height="100%" />
              </g>
            </g>
            <g
               transform="translate(4306.1)"
               data-mml-node="msub"
               id="g120">
              <g
                 data-mml-node="mrow"
                 id="g114">
                <g
                   data-mml-node="mo"
                   id="g104">
                  <use
                     xlink:href="#a"
                     id="use102"
                     x="0"
                     y="0"
                     width="100%"
                     height="100%" />
                </g>
                <g
                   transform="translate(278)"
                   data-mml-node="mi"
                   id="g108">
                  <use
                     xlink:href="#c"
                     id="use106"
                     x="0"
                     y="0"
                     width="100%"
                     height="100%" />
                </g>
                <g
                   transform="translate(1166)"
                   data-mml-node="mo"
                   id="g112">
                  <use
                     xlink:href="#b"
                     id="use110"
                     x="0"
                     y="0"
                     width="100%"
                     height="100%" />
                </g>
              </g>
              <g
                 transform="matrix(0.707,0,0,0.707,1555,-285.4)"
                 data-mml-node="mn"
                 id="g118">
                <use
                   xlink:href="#g"
                   id="use116"
                   x="0"
                   y="0"
                   width="100%"
                   height="100%" />
              </g>
            </g>
            <g
               transform="translate(6264.7)"
               data-mml-node="msub"
               id="g140">
              <g
                 data-mml-node="mrow"
                 id="g134">
                <g
                   data-mml-node="mo"
                   id="g124">
                  <use
                     xlink:href="#a"
                     id="use122"
                     x="0"
                     y="0"
                     width="100%"
                     height="100%" />
                </g>
                <g
                   transform="translate(278)"
                   data-mml-node="mi"
                   id="g128">
                  <use
                     xlink:href="#c"
                     id="use126"
                     x="0"
                     y="0"
                     width="100%"
                     height="100%" />
                </g>
                <g
                   transform="translate(1166)"
                   data-mml-node="mo"
                   id="g132">
                  <use
                     xlink:href="#b"
                     id="use130"
                     x="0"
                     y="0"
                     width="100%"
                     height="100%" />
                </g>
              </g>
              <g
                 transform="matrix(0.707,0,0,0.707,1555,-285.4)"
                 data-mml-node="mn"
                 id="g138">
                <use
                   xlink:href="#e"
                   id="use136"
                   x="0"
                   y="0"
                   width="100%"
                   height="100%" />
              </g>
            </g>
            <g
               transform="translate(8223.2)"
               data-mml-node="mo"
               id="g144">
              <use
                 xlink:href="#i"
                 id="use142"
                 x="0"
                 y="0"
                 width="100%"
                 height="100%" />
            </g>
            <g
               transform="translate(9001.2)"
               data-mml-node="msub"
               id="g164">
              <g
                 data-mml-node="mrow"
                 id="g158">
                <g
                   data-mml-node="mo"
                   id="g148">
                  <use
                     xlink:href="#a"
                     id="use146"
                     x="0"
                     y="0"
                     width="100%"
                     height="100%" />
                </g>
                <g
                   transform="translate(278)"
                   data-mml-node="mi"
                   id="g152">
                  <use
                     xlink:href="#c"
                     id="use150"
                     x="0"
                     y="0"
                     width="100%"
                     height="100%" />
                </g>
                <g
                   transform="translate(1166)"
                   data-mml-node="mo"
                   id="g156">
                  <use
                     xlink:href="#b"
                     id="use154"
                     x="0"
                     y="0"
                     width="100%"
                     height="100%" />
                </g>
              </g>
              <g
                 transform="matrix(0.707,0,0,0.707,1555,-285.4)"
                 data-mml-node="mn"
                 id="g162">
                <use
                   xlink:href="#f"
                   id="use160"
                   x="0"
                   y="0"
                   width="100%"
                   height="100%" />
              </g>
            </g>
            <g
               transform="translate(10960)"
               data-mml-node="msub"
               id="g184">
              <g
                 data-mml-node="mrow"
                 id="g178">
                <g
                   data-mml-node="mo"
                   id="g168">
                  <use
                     xlink:href="#a"
                     id="use166"
                     x="0"
                     y="0"
                     width="100%"
                     height="100%" />
                </g>
                <g
                   transform="translate(278)"
                   data-mml-node="mi"
                   id="g172">
                  <use
                     xlink:href="#c"
                     id="use170"
                     x="0"
                     y="0"
                     width="100%"
                     height="100%" />
                </g>
                <g
                   transform="translate(1166)"
                   data-mml-node="mo"
                   id="g176">
                  <use
                     xlink:href="#b"
                     id="use174"
                     x="0"
                     y="0"
                     width="100%"
                     height="100%" />
                </g>
              </g>
              <g
                 transform="matrix(0.707,0,0,0.707,1555,-285.4)"
                 data-mml-node="mn"
                 id="g182">
                <use
                   xlink:href="#h"
                   id="use180"
                   x="0"
                   y="0"
                   width="100%"
                   height="100%" />
              </g>
            </g>
            <g
               transform="translate(12918)"
               data-mml-node="msub"
               id="g204">
              <g
                 data-mml-node="mrow"
                 id="g198">
                <g
                   data-mml-node="mo"
                   id="g188">
                  <use
                     xlink:href="#a"
                     id="use186"
                     x="0"
                     y="0"
                     width="100%"
                     height="100%" />
                </g>
                <g
                   transform="translate(278)"
                   data-mml-node="mi"
                   id="g192">
                  <use
                     xlink:href="#d"
                     id="use190"
                     x="0"
                     y="0"
                     width="100%"
                     height="100%" />
                </g>
                <g
                   transform="translate(1047)"
                   data-mml-node="mo"
                   id="g196">
                  <use
                     xlink:href="#b"
                     id="use194"
                     x="0"
                     y="0"
                     width="100%"
                     height="100%" />
                </g>
              </g>
              <g
                 transform="matrix(0.707,0,0,0.707,1436,-285.4)"
                 data-mml-node="mn"
                 id="g202">
                <use
                   xlink:href="#g"
                   id="use200"
                   x="0"
                   y="0"
                   width="100%"
                   height="100%" />
              </g>
            </g>
            <g
               transform="translate(14758)"
               data-mml-node="msub"
               id="g224">
              <g
                 data-mml-node="mrow"
                 id="g218">
                <g
                   data-mml-node="mo"
                   id="g208">
                  <use
                     xlink:href="#a"
                     id="use206"
                     x="0"
                     y="0"
                     width="100%"
                     height="100%" />
                </g>
                <g
                   transform="translate(278)"
                   data-mml-node="mi"
                   id="g212">
                  <use
                     xlink:href="#d"
                     id="use210"
                     x="0"
                     y="0"
                     width="100%"
                     height="100%" />
                </g>
                <g
                   transform="translate(1047)"
                   data-mml-node="mo"
                   id="g216">
                  <use
                     xlink:href="#b"
                     id="use214"
                     x="0"
                     y="0"
                     width="100%"
                     height="100%" />
                </g>
              </g>
              <g
                 transform="matrix(0.707,0,0,0.707,1436,-285.4)"
                 data-mml-node="mn"
                 id="g222">
                <use
                   xlink:href="#e"
                   id="use220"
                   x="0"
                   y="0"
                   width="100%"
                   height="100%" />
              </g>
            </g>
          </g>
        </g>
        <g
           transform="translate(0,-1099)"
           data-mml-node="mtr"
           id="g406">
          <g
             transform="translate(2888.3)"
             data-mml-node="mtd"
             id="g234">
            <g
               data-mml-node="mo"
               id="g232">
              <use
                 xlink:href="#i"
                 id="use230"
                 x="0"
                 y="0"
                 width="100%"
                 height="100%" />
            </g>
          </g>
          <g
             transform="translate(4025.1)"
             data-mml-node="mtd"
             id="g404">
            <g
               data-mml-node="msub"
               id="g254">
              <g
                 data-mml-node="mrow"
                 id="g248">
                <g
                   data-mml-node="mo"
                   id="g238">
                  <use
                     xlink:href="#a"
                     id="use236"
                     x="0"
                     y="0"
                     width="100%"
                     height="100%" />
                </g>
                <g
                   transform="translate(278)"
                   data-mml-node="mi"
                   id="g242">
                  <use
                     xlink:href="#d"
                     id="use240"
                     x="0"
                     y="0"
                     width="100%"
                     height="100%" />
                </g>
                <g
                   transform="translate(1047)"
                   data-mml-node="mo"
                   id="g246">
                  <use
                     xlink:href="#b"
                     id="use244"
                     x="0"
                     y="0"
                     width="100%"
                     height="100%" />
                </g>
              </g>
              <g
                 transform="matrix(0.707,0,0,0.707,1436,-285.4)"
                 data-mml-node="mn"
                 id="g252">
                <use
                   xlink:href="#f"
                   id="use250"
                   x="0"
                   y="0"
                   width="100%"
                   height="100%" />
              </g>
            </g>
            <g
               transform="translate(1839.6)"
               data-mml-node="msub"
               id="g274">
              <g
                 data-mml-node="mrow"
                 id="g268">
                <g
                   data-mml-node="mo"
                   id="g258">
                  <use
                     xlink:href="#a"
                     id="use256"
                     x="0"
                     y="0"
                     width="100%"
                     height="100%" />
                </g>
                <g
                   transform="translate(278)"
                   data-mml-node="mi"
                   id="g262">
                  <use
                     xlink:href="#d"
                     id="use260"
                     x="0"
                     y="0"
                     width="100%"
                     height="100%" />
                </g>
                <g
                   transform="translate(1047)"
                   data-mml-node="mo"
                   id="g266">
                  <use
                     xlink:href="#b"
                     id="use264"
                     x="0"
                     y="0"
                     width="100%"
                     height="100%" />
                </g>
              </g>
              <g
                 transform="matrix(0.707,0,0,0.707,1436,-285.4)"
                 data-mml-node="mn"
                 id="g272">
                <use
                   xlink:href="#h"
                   id="use270"
                   x="0"
                   y="0"
                   width="100%"
                   height="100%" />
              </g>
            </g>
            <g
               transform="translate(3679.1)"
               data-mml-node="msub"
               id="g294">
              <g
                 data-mml-node="mrow"
                 id="g288">
                <g
                   data-mml-node="mo"
                   id="g278">
                  <use
                     xlink:href="#a"
                     id="use276"
                     x="0"
                     y="0"
                     width="100%"
                     height="100%" />
                </g>
                <g
                   transform="translate(278)"
                   data-mml-node="mi"
                   id="g282">
                  <use
                     xlink:href="#c"
                     id="use280"
                     x="0"
                     y="0"
                     width="100%"
                     height="100%" />
                </g>
                <g
                   transform="translate(1166)"
                   data-mml-node="mo"
                   id="g286">
                  <use
                     xlink:href="#b"
                     id="use284"
                     x="0"
                     y="0"
                     width="100%"
                     height="100%" />
                </g>
              </g>
              <g
                 transform="matrix(0.707,0,0,0.707,1555,-285.4)"
                 data-mml-node="mn"
                 id="g292">
                <use
                   xlink:href="#g"
                   id="use290"
                   x="0"
                   y="0"
                   width="100%"
                   height="100%" />
              </g>
            </g>
            <g
               transform="translate(5637.7)"
               data-mml-node="msub"
               id="g314">
              <g
                 data-mml-node="mrow"
                 id="g308">
                <g
                   data-mml-node="mo"
                   id="g298">
                  <use
                     xlink:href="#a"
                     id="use296"
                     x="0"
                     y="0"
                     width="100%"
                     height="100%" />
                </g>
                <g
                   transform="translate(278)"
                   data-mml-node="mi"
                   id="g302">
                  <use
                     xlink:href="#c"
                     id="use300"
                     x="0"
                     y="0"
                     width="100%"
                     height="100%" />
                </g>
                <g
                   transform="translate(1166)"
                   data-mml-node="mo"
                   id="g306">
                  <use
                     xlink:href="#b"
                     id="use304"
                     x="0"
                     y="0"
                     width="100%"
                     height="100%" />
                </g>
              </g>
              <g
                 transform="matrix(0.707,0,0,0.707,1555,-285.4)"
                 data-mml-node="mn"
                 id="g312">
                <use
                   xlink:href="#e"
                   id="use310"
                   x="0"
                   y="0"
                   width="100%"
                   height="100%" />
              </g>
            </g>
            <g
               transform="translate(7596.2)"
               data-mml-node="mo"
               id="g318">
              <use
                 xlink:href="#m"
                 id="use316"
                 x="0"
                 y="0"
                 width="100%"
                 height="100%" />
            </g>
            <g
               transform="translate(8374.2)"
               data-mml-node="msub"
               id="g338">
              <g
                 data-mml-node="mrow"
                 id="g332">
                <g
                   data-mml-node="mo"
                   id="g322">
                  <use
                     xlink:href="#a"
                     id="use320"
                     x="0"
                     y="0"
                     width="100%"
                     height="100%" />
                </g>
                <g
                   transform="translate(278)"
                   data-mml-node="mi"
                   id="g326">
                  <use
                     xlink:href="#c"
                     id="use324"
                     x="0"
                     y="0"
                     width="100%"
                     height="100%" />
                </g>
                <g
                   transform="translate(1166)"
                   data-mml-node="mo"
                   id="g330">
                  <use
                     xlink:href="#b"
                     id="use328"
                     x="0"
                     y="0"
                     width="100%"
                     height="100%" />
                </g>
              </g>
              <g
                 transform="matrix(0.707,0,0,0.707,1555,-285.4)"
                 data-mml-node="mn"
                 id="g336">
                <use
                   xlink:href="#f"
                   id="use334"
                   x="0"
                   y="0"
                   width="100%"
                   height="100%" />
              </g>
            </g>
            <g
               transform="translate(10333)"
               data-mml-node="msub"
               id="g358">
              <g
                 data-mml-node="mrow"
                 id="g352">
                <g
                   data-mml-node="mo"
                   id="g342">
                  <use
                     xlink:href="#a"
                     id="use340"
                     x="0"
                     y="0"
                     width="100%"
                     height="100%" />
                </g>
                <g
                   transform="translate(278)"
                   data-mml-node="mi"
                   id="g346">
                  <use
                     xlink:href="#d"
                     id="use344"
                     x="0"
                     y="0"
                     width="100%"
                     height="100%" />
                </g>
                <g
                   transform="translate(1047)"
                   data-mml-node="mo"
                   id="g350">
                  <use
                     xlink:href="#b"
                     id="use348"
                     x="0"
                     y="0"
                     width="100%"
                     height="100%" />
                </g>
              </g>
              <g
                 transform="matrix(0.707,0,0,0.707,1436,-285.4)"
                 data-mml-node="mn"
                 id="g356">
                <use
                   xlink:href="#h"
                   id="use354"
                   x="0"
                   y="0"
                   width="100%"
                   height="100%" />
              </g>
            </g>
            <g
               transform="translate(12172)"
               data-mml-node="msub"
               id="g378">
              <g
                 data-mml-node="mrow"
                 id="g372">
                <g
                   data-mml-node="mo"
                   id="g362">
                  <use
                     xlink:href="#a"
                     id="use360"
                     x="0"
                     y="0"
                     width="100%"
                     height="100%" />
                </g>
                <g
                   transform="translate(278)"
                   data-mml-node="mi"
                   id="g366">
                  <use
                     xlink:href="#d"
                     id="use364"
                     x="0"
                     y="0"
                     width="100%"
                     height="100%" />
                </g>
                <g
                   transform="translate(1047)"
                   data-mml-node="mo"
                   id="g370">
                  <use
                     xlink:href="#b"
                     id="use368"
                     x="0"
                     y="0"
                     width="100%"
                     height="100%" />
                </g>
              </g>
              <g
                 transform="matrix(0.707,0,0,0.707,1436,-285.4)"
                 data-mml-node="mn"
                 id="g376">
                <use
                   xlink:href="#g"
                   id="use374"
                   x="0"
                   y="0"
                   width="100%"
                   height="100%" />
              </g>
            </g>
            <g
               transform="translate(14012)"
               data-mml-node="msub"
               id="g398">
              <g
                 data-mml-node="mrow"
                 id="g392">
                <g
                   data-mml-node="mo"
                   id="g382">
                  <use
                     xlink:href="#a"
                     id="use380"
                     x="0"
                     y="0"
                     width="100%"
                     height="100%" />
                </g>
                <g
                   transform="translate(278)"
                   data-mml-node="mi"
                   id="g386">
                  <use
                     xlink:href="#d"
                     id="use384"
                     x="0"
                     y="0"
                     width="100%"
                     height="100%" />
                </g>
                <g
                   transform="translate(1047)"
                   data-mml-node="mo"
                   id="g390">
                  <use
                     xlink:href="#b"
                     id="use388"
                     x="0"
                     y="0"
                     width="100%"
                     height="100%" />
                </g>
              </g>
              <g
                 transform="matrix(0.707,0,0,0.707,1436,-285.4)"
                 data-mml-node="mn"
                 id="g396">
                <use
                   xlink:href="#e"
                   id="use394"
                   x="0"
                   y="0"
                   width="100%"
                   height="100%" />
              </g>
            </g>
            <g
               transform="translate(15851)"
               data-mml-node="mo"
               id="g402">
              <use
                 xlink:href="#k"
                 id="use400"
                 x="0"
                 y="0"
                 width="100%"
                 height="100%" />
            </g>
          </g>
        </g>
      </g>
    </g>
  </g>
</svg>
