<?xml version="1.0" encoding="UTF-8" standalone="no"?>
<!-- Created with Inkscape (http://www.inkscape.org/) -->

<svg
   xmlns:dc="http://purl.org/dc/elements/1.1/"
   xmlns:cc="http://creativecommons.org/ns#"
   xmlns:rdf="http://www.w3.org/1999/02/22-rdf-syntax-ns#"
   xmlns:svg="http://www.w3.org/2000/svg"
   xmlns="http://www.w3.org/2000/svg"
   xmlns:sodipodi="http://sodipodi.sourceforge.net/DTD/sodipodi-0.dtd"
   xmlns:inkscape="http://www.inkscape.org/namespaces/inkscape"
   width="386"
   height="113"
   viewBox="0 0 102.12916 29.897918"
   version="1.1"
   id="svg2705"
   inkscape:version="0.92.5 (2060ec1f9f, 2020-04-08)"
   sodipodi:docname="lc4_cir0006_circuit_d.svg">
  <defs
     id="defs2699" />
  <sodipodi:namedview
     id="base"
     pagecolor="#ffffff"
     bordercolor="#666666"
     borderopacity="1.0"
     inkscape:pageopacity="0.0"
     inkscape:pageshadow="2"
     inkscape:zoom="1.4"
     inkscape:cx="226.82554"
     inkscape:cy="8.5463832"
     inkscape:document-units="mm"
     inkscape:current-layer="g3401"
     showgrid="false"
     units="px"
     inkscape:window-width="1366"
     inkscape:window-height="704"
     inkscape:window-x="0"
     inkscape:window-y="27"
     inkscape:window-maximized="1" />
  <metadata
     id="metadata2702">
    <rdf:RDF>
      <cc:Work
         rdf:about="">
        <dc:format>image/svg+xml</dc:format>
        <dc:type
           rdf:resource="http://purl.org/dc/dcmitype/StillImage" />
        <dc:title></dc:title>
      </cc:Work>
    </rdf:RDF>
  </metadata>
  <g
     inkscape:label="Layer 1"
     inkscape:groupmode="layer"
     id="layer1"
     transform="translate(0,-267.10207)">
    <g
       id="g3401"
       transform="translate(-15.459226,136.2415)">
      <line
         style="fill:none;stroke:#fafafa;stroke-width:0.46426815"
         x1="30.805229"
         y1="135.98375"
         x2="30.805229"
         y2="140.69795"
         id="line244" />
      <line
         style="fill:none;stroke:#fafafa;stroke-width:0.46426815"
         x1="30.805229"
         y1="135.98375"
         x2="30.805229"
         y2="140.69795"
         id="line246" />
      <line
         style="fill:none;stroke:#fafafa;stroke-width:0.46426815"
         x1="30.805229"
         y1="135.98375"
         x2="30.805229"
         y2="140.69795"
         id="line248" />
      <path
         style="fill:none;stroke:#fafafa;stroke-width:0.46426815"
         inkscape:connector-curvature="0"
         d="m 32.007919,138.44344 h 2.664666"
         id="path250" />
      <path
         style="fill:none;stroke:#fafafa;stroke-width:0.46426815"
         inkscape:connector-curvature="0"
         d="m 32.007919,138.44344 h 2.664666"
         id="path252" />
      <path
         style="fill:none;stroke:#fafafa;stroke-width:0.46426815"
         inkscape:connector-curvature="0"
         d="m 33.44274,139.67306 v -2.66444"
         id="path258" />
      <path
         style="fill:none;stroke:#fafafa;stroke-width:0.46426815"
         inkscape:connector-curvature="0"
         d="m 33.44274,139.67306 v -2.66444"
         id="path260" />
      <path
         style="fill:none;stroke:#fafafa;stroke-width:0.46426815"
         inkscape:connector-curvature="0"
         d="m 35.492252,136.3937 1.332449,2.04974 -1.332449,2.25449"
         id="path266" />
      <path
         style="fill:none;stroke:#fafafa;stroke-width:0.46426815"
         inkscape:connector-curvature="0"
         d="m 35.492252,136.3937 1.332449,2.04974 -1.332449,2.25449"
         id="path268" />
      <path
         sodipodi:nodetypes="cc"
         style="fill:none;stroke:#eaa356;stroke-width:0.46426815"
         inkscape:connector-curvature="0"
         d="M 38.904335,138.34084 H 110.1197"
         id="path274" />
      <path
         style="fill:none;stroke:#eaa356;stroke-width:0.46426815"
         inkscape:connector-curvature="0"
         d="m 79.835191,137.31597 1.127476,1.02487 -1.127476,1.22985"
         id="path278" />
      <line
         style="fill:none;stroke:#fafafa;stroke-width:0.46426815"
         x1="30.805229"
         y1="143.64783"
         x2="30.805229"
         y2="148.362"
         id="line238" />
      <line
         style="fill:none;stroke:#fafafa;stroke-width:0.46426815"
         x1="30.805229"
         y1="143.64783"
         x2="30.805229"
         y2="148.362"
         id="line240" />
      <line
         style="fill:none;stroke:#fafafa;stroke-width:0.46426815"
         x1="30.805229"
         y1="143.64783"
         x2="30.805229"
         y2="148.362"
         id="line242" />
      <path
         style="fill:none;stroke:#fafafa;stroke-width:0.46426815"
         inkscape:connector-curvature="0"
         d="m 32.007919,145.69733 h 2.664666"
         id="path254" />
      <path
         style="fill:none;stroke:#fafafa;stroke-width:0.46426815"
         inkscape:connector-curvature="0"
         d="m 32.007919,145.69733 h 2.664666"
         id="path256" />
      <path
         style="fill:none;stroke:#fafafa;stroke-width:0.46426815"
         inkscape:connector-curvature="0"
         d="m 33.44274,146.92718 v -2.66444"
         id="path262" />
      <path
         style="fill:none;stroke:#fafafa;stroke-width:0.46426815"
         inkscape:connector-curvature="0"
         d="m 33.44274,146.92718 v -2.66444"
         id="path264" />
      <path
         style="fill:none;stroke:#fafafa;stroke-width:0.46426815"
         inkscape:connector-curvature="0"
         d="m 35.492252,143.8528 1.332449,2.04951 -1.332449,2.25471"
         id="path270" />
      <path
         style="fill:none;stroke:#fafafa;stroke-width:0.46426815"
         inkscape:connector-curvature="0"
         d="m 35.492252,143.8528 1.332449,2.04951 -1.332449,2.25471"
         id="path272" />
      <path
         style="fill:none;stroke:#eaa356;stroke-width:0.46426815"
         inkscape:connector-curvature="0"
         d="M 38.904335,145.69733 H 110.70892"
         id="path276"
         sodipodi:nodetypes="cc" />
      <path
         style="fill:none;stroke:#eaa356;stroke-width:0.46426815"
         inkscape:connector-curvature="0"
         d="m 79.835191,144.57009 1.127476,1.02487 -1.127476,1.22985"
         id="path280" />
      <line
         id="line889"
         y2="155.90799"
         x2="30.805229"
         y1="151.19379"
         x1="30.805229"
         style="fill:none;stroke:#fafafa;stroke-width:0.46426815" />
      <line
         id="line891"
         y2="155.90799"
         x2="30.805229"
         y1="151.19379"
         x1="30.805229"
         style="fill:none;stroke:#fafafa;stroke-width:0.46426815" />
      <line
         id="line893"
         y2="155.90799"
         x2="30.805229"
         y1="151.19379"
         x1="30.805229"
         style="fill:none;stroke:#fafafa;stroke-width:0.46426815" />
      <path
         id="path895"
         d="m 32.007919,153.24331 h 2.664666"
         inkscape:connector-curvature="0"
         style="fill:none;stroke:#fafafa;stroke-width:0.46426815" />
      <path
         id="path897"
         d="m 32.007919,153.24331 h 2.664666"
         inkscape:connector-curvature="0"
         style="fill:none;stroke:#fafafa;stroke-width:0.46426815" />
      <path
         id="path899"
         d="m 33.44274,154.47316 v -2.66444"
         inkscape:connector-curvature="0"
         style="fill:none;stroke:#fafafa;stroke-width:0.46426815" />
      <path
         id="path901"
         d="m 33.44274,154.47316 v -2.66444"
         inkscape:connector-curvature="0"
         style="fill:none;stroke:#fafafa;stroke-width:0.46426815" />
      <path
         id="path903"
         d="m 35.492252,151.39878 1.332449,2.04951 -1.332449,2.25472"
         inkscape:connector-curvature="0"
         style="fill:none;stroke:#fafafa;stroke-width:0.46426815" />
      <path
         id="path905"
         d="m 35.492252,151.39878 1.332449,2.04951 -1.332449,2.25472"
         inkscape:connector-curvature="0"
         style="fill:none;stroke:#fafafa;stroke-width:0.46426815" />
      <path
         id="path909"
         d="M 38.904335,153.24331 H 110.61071"
         inkscape:connector-curvature="0"
         style="fill:none;stroke:#eaa356;stroke-width:0.46426815"
         sodipodi:nodetypes="cc" />
      <path
         id="path911"
         d="m 79.835191,152.11607 1.127476,1.02487 -1.127476,1.22985"
         inkscape:connector-curvature="0"
         style="fill:none;stroke:#eaa356;stroke-width:0.46426815" />
      <g
         id="g1020"
         transform="matrix(1.0392266,0,0,1.0392266,-35.590517,-1.1742938)">
        <g
           transform="translate(2.5078934e-6)"
           id="g1762">
          <g
             id="g3446"
             transform="matrix(0.84424048,0,0,0.84424048,13.854181,16.969098)" />
          <g
             transform="matrix(0.84424048,0,0,0.84424048,13.854181,16.71808)"
             id="g1580">
            <path
               style="fill:none;stroke:#eaa356;stroke-width:0.52916664"
               inkscape:connector-curvature="0"
               id="path1576"
               d="m 80.14715,137.93004 2.803525,2.5699" />
            <path
               d="m 80.14715,140.49994 2.803525,-2.5699"
               id="path1578"
               inkscape:connector-curvature="0"
               style="fill:none;stroke:#eaa356;stroke-width:0.52916664" />
          </g>
        </g>
      </g>
      <path
         sodipodi:nodetypes="cc"
         id="path923"
         d="M 50.342315,153.18989 V 138.41587"
         style="fill:none;stroke:#eaa356;stroke-width:0.46426815"
         inkscape:connector-curvature="0" />
      <g
         transform="matrix(0.87735715,0,0,0.87735715,-21.180556,31.102047)"
         id="g1586">
        <path
           d="m 80.14715,137.93004 2.803525,2.5699"
           id="path1582"
           inkscape:connector-curvature="0"
           style="fill:none;stroke:#eaa356;stroke-width:0.52916664" />
        <path
           style="fill:none;stroke:#eaa356;stroke-width:0.52916664"
           inkscape:connector-curvature="0"
           id="path1584"
           d="m 80.14715,140.49994 2.803525,-2.5699" />
      </g>
      <g
         id="g1717"
         transform="matrix(0.87735715,0,0,0.87735715,-21.205206,23.556067)">
        <path
           style="fill:none;stroke:#eaa356;stroke-width:0.52916664"
           inkscape:connector-curvature="0"
           id="path1713"
           d="m 80.14715,137.93004 2.803525,2.5699" />
        <path
           d="m 80.14715,140.49994 2.803525,-2.5699"
           id="path1715"
           inkscape:connector-curvature="0"
           style="fill:none;stroke:#eaa356;stroke-width:0.52916664" />
      </g>
      <rect
         style="fill:#eaa356;stroke:none;stroke-width:0.18441114"
         id="rect434"
         rx="0.36882228"
         height="5.3479233"
         width="14.719827"
         y="135.60376"
         x="88.407036" />
      <rect
         style="fill:#eaa356;stroke:none;stroke-width:0.18441114"
         id="rect436"
         rx="0.36882228"
         height="5.3479233"
         width="14.719827"
         y="135.72594"
         x="88.407036" />
      <path
         style="fill:#eaa356;stroke:none;stroke-width:0.18441114"
         inkscape:connector-curvature="0"
         id="path446"
         d="m 109.40094,140.32326 v -3.96484 c 1.64901,0 4.70544,0.46103 4.82622,1.84411 0.12061,1.38309 -3.2578,2.02852 -4.82622,2.12073 z" />
      <path
         style="fill:none;stroke:#fafafa;stroke-width:0.09220557"
         inkscape:connector-curvature="0"
         id="path458"
         d="m 90.337624,136.89465 v 2.67397" />
      <path
         style="fill:none;stroke:#fafafa;stroke-width:0.09220557"
         inkscape:connector-curvature="0"
         id="path460"
         d="m 101.4377,136.89465 v 2.67397" />
      <path
         style="fill:#fafafa;stroke:none;stroke-width:0.18441114"
         inkscape:connector-curvature="0"
         id="path464"
         d="m 92.2898,139.10759 h -1.191483 v -2.10598 H 92.2898 v 0.29137 h -0.847188 v 0.57352 h 0.793897 v 0.28768 h -0.793897 v 0.6602 H 92.2898 Z m 0.880932,0 h -0.211514 v -0.85013 c 0,-0.10143 0.0021,-0.18257 0.0073,-0.24158 -0.01382,0.0148 -0.03097,0.0314 -0.05144,0.0479 -0.01975,0.0185 -0.08709,0.0719 -0.201568,0.16597 l -0.106396,-0.13462 0.387257,-0.30429 h 0.176481 z" />
      <path
         style="fill:#fafafa;stroke:none;stroke-width:0.18441114"
         inkscape:connector-curvature="0"
         id="path466"
         d="m 99.046446,139.10759 h -1.191483 v -2.10598 h 1.191483 v 0.29137 h -0.847188 v 0.57352 h 0.793886 v 0.28768 h -0.793886 v 0.6602 h 0.847188 z m 0.880932,0 h -0.211711 v -0.85013 c 0,-0.10143 0.0021,-0.18257 0.0073,-0.24158 -0.01382,0.0148 -0.03097,0.0314 -0.05144,0.0479 -0.01975,0.0185 -0.08709,0.0719 -0.201745,0.16597 l -0.106219,-0.13462 0.387257,-0.30429 h 0.176482 z" />
      <path
         style="fill:none;stroke:#fafafa;stroke-width:0.09220557"
         inkscape:connector-curvature="0"
         id="path468"
         d="m 94.198641,136.89465 0.965213,1.3167 -0.965213,1.44947" />
      <path
         style="fill:none;stroke:#fafafa;stroke-width:0.09220557"
         inkscape:connector-curvature="0"
         id="path470"
         d="m 94.198641,136.89465 0.965213,1.3167 -0.965213,1.44947" />
      <path
         style="fill:none;stroke:#fafafa;stroke-width:0.09220557"
         inkscape:connector-curvature="0"
         id="path472"
         d="m 96.852868,136.89465 -0.965203,1.3167 0.965203,1.44947" />
      <path
         style="fill:none;stroke:#fafafa;stroke-width:0.09220557"
         inkscape:connector-curvature="0"
         id="path474"
         d="m 96.852868,136.89465 -0.965203,1.3167 0.965203,1.44947" />
      <path
         style="fill:#eaa356;stroke:none;stroke-width:0.18441114"
         inkscape:connector-curvature="0"
         id="path450"
         d="m 109.40094,147.67976 v -3.96485 c 1.64901,0 4.70544,0.46104 4.82622,1.84411 0.12061,1.3831 -3.2578,2.02853 -4.82622,2.12074 z" />
      <g
         id="g1303"
         transform="matrix(1.0392266,0,0,1.0392266,-0.74923749,-1.2219945)">
        <rect
           x="85.790985"
           y="138.80069"
           width="14.164213"
           height="5.1460609"
           rx="0.35490075"
           id="rect440"
           style="fill:#eaa356;stroke:none;stroke-width:0.17745037" />
        <rect
           x="85.790985"
           y="138.80069"
           width="14.164213"
           height="5.1460609"
           rx="0.35490075"
           id="rect442"
           style="fill:#eaa356;stroke:none;stroke-width:0.17745037" />
        <path
           d="m 87.648702,140.39777 v 2.57303"
           id="path462"
           inkscape:connector-curvature="0"
           style="fill:none;stroke:#fafafa;stroke-width:0.08872519" />
        <path
           d="m 87.648702,140.39777 v 2.57303"
           id="path476"
           inkscape:connector-curvature="0"
           style="fill:none;stroke:#fafafa;stroke-width:0.08872519" />
        <path
           d="m 98.329792,140.39777 v 2.57303"
           id="path478"
           inkscape:connector-curvature="0"
           style="fill:none;stroke:#fafafa;stroke-width:0.08872519" />
        <path
           d="m 89.527192,142.52717 h -1.14651 v -2.02648 h 1.14651 v 0.28037 h -0.81521 v 0.55187 h 0.76393 v 0.27682 h -0.76393 v 0.63528 h 0.81521 z m 1.10853,0 h -0.85868 v -0.15438 l 0.32669,-0.32828 c 0.0964,-0.0994 0.16023,-0.16858 0.19147,-0.2094 0.0318,-0.0426 0.0548,-0.0816 0.0692,-0.11711 0.0146,-0.0373 0.0218,-0.0763 0.0218,-0.11712 0,-0.0568 -0.0174,-0.10292 -0.052,-0.13486 -0.0342,-0.0337 -0.0814,-0.0497 -0.14213,-0.0497 -0.0486,0 -0.0957,0.009 -0.14125,0.0266 -0.0451,0.0178 -0.0974,0.0497 -0.15687,0.0976 l -0.11002,-0.13486 c 0.0704,-0.0585 0.13894,-0.10115 0.20531,-0.12599 0.0666,-0.0248 0.13717,-0.0373 0.21223,-0.0373 0.11801,0 0.21241,0.0302 0.28339,0.0923 0.0712,0.0621 0.10665,0.14373 0.10665,0.24842 0,0.0568 -0.0105,0.1118 -0.0312,0.16326 -0.0202,0.0514 -0.0516,0.10292 -0.0944,0.15793 -0.0422,0.055 -0.11268,0.12954 -0.21152,0.22182 l -0.22004,0.21294 v 0.009 h 0.60138 z"
           id="path480"
           inkscape:connector-curvature="0"
           style="fill:#fafafa;stroke:none;stroke-width:0.17745037" />
        <path
           d="m 96.028802,142.52717 h -1.14651 v -2.02648 h 1.14651 v 0.28037 h -0.81521 v 0.55187 h 0.76392 v 0.27682 h -0.76392 v 0.63528 h 0.81521 z m 1.10853,0 h -0.85869 v -0.15438 l 0.32669,-0.32828 c 0.0964,-0.0994 0.16024,-0.16858 0.19147,-0.2094 0.0318,-0.0426 0.0548,-0.0816 0.0692,-0.11711 0.0145,-0.0373 0.0216,-0.0763 0.0216,-0.11712 0,-0.0568 -0.0172,-0.10292 -0.052,-0.13486 -0.0341,-0.0337 -0.0815,-0.0497 -0.14196,-0.0497 -0.0486,0 -0.0956,0.009 -0.14125,0.0266 -0.0451,0.0178 -0.0974,0.0497 -0.15686,0.0976 l -0.11002,-0.13486 c 0.0704,-0.0585 0.13894,-0.10115 0.20531,-0.12599 0.0664,-0.0248 0.13717,-0.0373 0.21223,-0.0373 0.11783,0 0.21241,0.0302 0.28339,0.0923 0.071,0.0621 0.10664,0.14373 0.10664,0.24842 0,0.0568 -0.0105,0.1118 -0.0312,0.16326 -0.0202,0.0514 -0.0516,0.10292 -0.0944,0.15793 -0.0422,0.055 -0.11268,0.12954 -0.21152,0.22182 l -0.22004,0.21294 v 0.009 h 0.60138 z"
           id="path482"
           inkscape:connector-curvature="0"
           style="fill:#fafafa;stroke:none;stroke-width:0.17745037" />
        <path
           d="m 91.363982,140.39777 0.92878,1.26699 -0.92878,1.39477"
           id="path484"
           inkscape:connector-curvature="0"
           style="fill:none;stroke:#fafafa;stroke-width:0.08872519" />
        <path
           d="m 91.363982,140.39777 0.92878,1.26699 -0.92878,1.39477"
           id="path486"
           inkscape:connector-curvature="0"
           style="fill:none;stroke:#fafafa;stroke-width:0.08872519" />
        <path
           d="m 93.918022,140.39777 -0.92877,1.26699 0.92877,1.39477"
           id="path488"
           inkscape:connector-curvature="0"
           style="fill:none;stroke:#fafafa;stroke-width:0.08872519" />
        <path
           d="m 93.918022,140.39777 -0.92877,1.26699 0.92877,1.39477"
           id="path490"
           inkscape:connector-curvature="0"
           style="fill:none;stroke:#fafafa;stroke-width:0.08872519" />
      </g>
      <path
         d="m 109.40094,155.22573 v -3.96485 c 1.64902,0 4.70545,0.46104 4.82624,1.84412 0.1206,1.38308 -3.25781,2.02852 -4.82624,2.12073 z"
         id="path1079"
         inkscape:connector-curvature="0"
         style="fill:#eaa356;stroke:none;stroke-width:0.18441114" />
      <g
         id="g1290"
         transform="matrix(1.0392266,0,0,1.0392266,-0.74923749,-1.1433306)">
        <rect
           style="fill:#eaa356;stroke:none;stroke-width:0.17745037"
           id="rect1073"
           rx="0.35490075"
           height="5.1460609"
           width="14.164213"
           y="145.98615"
           x="85.790977" />
        <rect
           style="fill:#eaa356;stroke:none;stroke-width:0.17745037"
           id="rect1075"
           rx="0.35490075"
           height="5.1460609"
           width="14.164213"
           y="145.98615"
           x="85.790977" />
        <path
           style="fill:none;stroke:#fafafa;stroke-width:0.08872519"
           inkscape:connector-curvature="0"
           id="path1083"
           d="m 87.648712,147.58321 v 2.57303" />
        <path
           style="fill:none;stroke:#fafafa;stroke-width:0.08872519"
           inkscape:connector-curvature="0"
           id="path1085"
           d="m 87.648712,147.58321 v 2.57303" />
        <path
           style="fill:none;stroke:#fafafa;stroke-width:0.08872519"
           inkscape:connector-curvature="0"
           id="path1087"
           d="m 98.329802,147.58321 v 2.57303" />
        <path
           style="fill:#fafafa;stroke:none;stroke-width:0.17745037"
           inkscape:connector-curvature="0"
           id="path1089"
           d="m 89.527202,149.71261 h -1.14651 v -2.02648 h 1.14651 v 0.28037 h -0.81521 v 0.55187 h 0.76393 v 0.27682 h -0.76393 v 0.63527 h 0.81521 z"
           sodipodi:nodetypes="ccccccccccccc" />
        <path
           style="fill:#fafafa;stroke:none;stroke-width:0.17745037"
           inkscape:connector-curvature="0"
           id="path1091"
           d="m 96.028802,149.71261 h -1.1465 v -2.02648 h 1.1465 v 0.28037 h -0.8152 v 0.55187 h 0.76392 v 0.27682 h -0.76392 v 0.63527 h 0.8152 z"
           sodipodi:nodetypes="ccccccccccccc" />
        <path
           style="fill:none;stroke:#fafafa;stroke-width:0.08872519"
           inkscape:connector-curvature="0"
           id="path1093"
           d="m 91.363992,147.58321 0.92877,1.26699 -0.92877,1.39476" />
        <path
           style="fill:none;stroke:#fafafa;stroke-width:0.08872519"
           inkscape:connector-curvature="0"
           id="path1095"
           d="m 91.363992,147.58321 0.92877,1.26699 -0.92877,1.39476" />
        <path
           style="fill:none;stroke:#fafafa;stroke-width:0.08872519"
           inkscape:connector-curvature="0"
           id="path1097"
           d="m 93.918032,147.58321 -0.92877,1.26699 0.92877,1.39476" />
        <path
           style="fill:none;stroke:#fafafa;stroke-width:0.08872519"
           inkscape:connector-curvature="0"
           id="path1099"
           d="m 93.918032,147.58321 -0.92877,1.26699 0.92877,1.39476" />
        <g
           transform="matrix(0.07418792,0,0,0.07418792,89.677922,147.4726)"
           id="g1122"
           style="fill:#ffffff;stroke:none">
          <path
             inkscape:connector-curvature="0"
             d="m 1.509,25.549 2.109,-0.281 c 0.242,1.195 0.654,2.057 1.236,2.584 0.582,0.527 1.291,0.791 2.127,0.791 0.992,0 1.83,-0.344 2.514,-1.031 0.684,-0.687 1.025,-1.539 1.025,-2.555 0,-0.969 -0.316,-1.768 -0.949,-2.396 -0.633,-0.628 -1.438,-0.943 -2.414,-0.943 -0.398,0 -0.895,0.078 -1.488,0.234 L 5.903,20.1 c 0.141,0.016 0.254,0.023 0.34,0.023 0.898,0 1.707,-0.234 2.426,-0.703 0.719,-0.469 1.078,-1.191 1.078,-2.168 0,-0.773 -0.262,-1.414 -0.785,-1.922 -0.523,-0.508 -1.199,-0.762 -2.027,-0.762 -0.82,0 -1.504,0.258 -2.051,0.773 -0.547,0.515 -0.898,1.289 -1.055,2.32 L 1.72,17.288 c 0.258,-1.414 0.844,-2.51 1.758,-3.287 0.914,-0.777 2.051,-1.166 3.41,-1.166 0.938,0 1.801,0.201 2.59,0.604 0.789,0.403 1.393,0.951 1.811,1.646 0.418,0.695 0.627,1.434 0.627,2.215 0,0.742 -0.199,1.418 -0.598,2.027 -0.399,0.609 -0.988,1.094 -1.77,1.453 1.016,0.234 1.805,0.721 2.367,1.459 0.562,0.738 0.844,1.662 0.844,2.771 0,1.5 -0.547,2.771 -1.641,3.814 -1.094,1.043 -2.477,1.564 -4.148,1.564 -1.508,0 -2.76,-0.449 -3.756,-1.348 C 2.218,28.141 1.649,26.979 1.509,25.549 Z"
             id="path1120"
             style="fill:#ffffff" />
        </g>
        <g
           style="fill:#ffffff;stroke:none"
           id="g1697"
           transform="matrix(0.07418792,0,0,0.07418792,89.677922,147.4726)">
          <path
             style="fill:#ffffff"
             id="path1695"
             d="m 88.983199,25.549 2.109,-0.281 c 0.242,1.195 0.654,2.057 1.236,2.584 0.582,0.527 1.291,0.791 2.127,0.791 0.992,0 1.83,-0.344 2.514,-1.031 0.684,-0.687 1.025,-1.539 1.025,-2.555 0,-0.969 -0.316,-1.768 -0.949,-2.396 -0.633,-0.628 -1.438,-0.943 -2.414,-0.943 -0.398,0 -0.895,0.078 -1.488,0.234 l 0.234,-1.852 c 0.141,0.016 0.254,0.023 0.34,0.023 0.898,0 1.707,-0.234 2.426,-0.703 0.719,-0.469 1.078,-1.191 1.078,-2.168 0,-0.773 -0.262,-1.414 -0.785,-1.922 -0.523,-0.508 -1.199,-0.762 -2.027,-0.762 -0.82,0 -1.504,0.258 -2.051,0.773 -0.547,0.515 -0.898,1.289 -1.055,2.32 l -2.109,-0.373 c 0.258,-1.414 0.844,-2.51 1.758,-3.287 0.914,-0.777 2.051,-1.166 3.41,-1.166 0.938,0 1.801,0.201 2.59,0.604 0.789,0.403 1.393,0.951 1.811,1.646 0.418,0.695 0.627,1.434 0.627,2.215 0,0.742 -0.199,1.418 -0.598,2.027 -0.399,0.609 -0.988,1.094 -1.77,1.453 1.016,0.234 1.805,0.721 2.367,1.459 0.562,0.738 0.844001,1.662 0.844001,2.771 0,1.5 -0.547001,2.771 -1.641001,3.814 -1.094,1.043 -2.477,1.564 -4.148,1.564 -1.508,0 -2.76,-0.449 -3.756,-1.348 -0.996,-0.899 -1.565,-2.061 -1.705,-3.491 z"
             inkscape:connector-curvature="0" />
        </g>
      </g>
      <g
         transform="matrix(0.07418792,0,0,0.07418792,129.76508,151.24533)"
         id="g1238"
         style="fill:#ffffff;stroke:none" />
      <path
         id="path314-3"
         d="m 19.882409,138.37872 c -0.09519,0 -0.169939,0.0305 -0.223904,0.0914 -0.05396,0.06 -0.08497,0.14531 -0.09285,0.25642 h 0.630481 c -0.002,-0.11111 -0.03083,-0.19641 -0.08682,-0.25642 -0.05598,-0.0608 -0.131729,-0.0914 -0.22692,-0.0914 z m 0.06334,1.38766 c -0.26513,0 -0.472274,-0.0733 -0.621598,-0.21954 -0.149325,-0.14632 -0.223903,-0.35346 -0.223903,-0.62161 0,-0.27585 0.06871,-0.48903 0.206305,-0.63918 0.138431,-0.15135 0.32932,-0.22692 0.57283,-0.22692 0.232785,0 0.413952,0.0663 0.543668,0.19893 0.129546,0.13255 0.194408,0.31557 0.194408,0.54936 v 0.21804 h -1.062031 c 0.0049,0.12753 0.04273,0.22725 0.11346,0.29898 0.07055,0.0717 0.16977,0.10759 0.297475,0.10759 0.09922,0 0.192898,-0.0104 0.281387,-0.031 0.08832,-0.0206 0.180664,-0.0534 0.276862,-0.0987 v 0.34758 c -0.0786,0.0394 -0.162565,0.0684 -0.251891,0.087 -0.08932,0.0196 -0.198261,0.0295 -0.326972,0.0295 z m 2.047469,-0.0295 h -0.45518 v -1.24621 l 0.0045,-0.20465 0.0074,-0.2239 c -0.07558,0.0755 -0.128039,0.1252 -0.157531,0.14866 l -0.247546,0.19893 -0.219378,-0.27401 0.693663,-0.55238 h 0.37423 z"
         inkscape:connector-curvature="0"
         style="fill:#fafafa;stroke:none;stroke-width:0.16759188" />
      <path
         id="path316-6"
         d="m 19.882409,145.7616 c -0.09519,0 -0.169939,0.0305 -0.223904,0.0914 -0.05396,0.0599 -0.08497,0.1453 -0.09285,0.25625 h 0.630481 c -0.002,-0.11095 -0.03083,-0.19642 -0.08682,-0.25625 -0.05598,-0.0609 -0.131729,-0.0914 -0.22692,-0.0914 z m 0.06334,1.38749 c -0.26513,0 -0.472274,-0.0731 -0.621598,-0.21937 -0.149325,-0.1463 -0.223903,-0.35363 -0.223903,-0.6216 0,-0.27602 0.06871,-0.48903 0.206305,-0.63937 0.138431,-0.15116 0.32932,-0.22675 0.57283,-0.22675 0.232785,0 0.413952,0.0662 0.543668,0.19877 0.129546,0.13256 0.194408,0.31573 0.194408,0.54953 v 0.21804 h -1.062031 c 0.0049,0.12753 0.04273,0.22726 0.11346,0.29898 0.07055,0.0716 0.16977,0.10743 0.297475,0.10743 0.09922,0 0.192898,-0.0104 0.281387,-0.0309 0.08832,-0.0206 0.180664,-0.0536 0.276862,-0.0987 v 0.34758 c -0.0786,0.0392 -0.162565,0.0682 -0.251891,0.087 -0.08932,0.0196 -0.198261,0.0293 -0.326972,0.0293 z m 2.4274,-0.0293 h -1.505306 v -0.31674 l 0.540484,-0.54652 c 0.160216,-0.1639 0.264793,-0.27736 0.313895,-0.3402 0.04909,-0.0638 0.0843,-0.12268 0.105921,-0.17682 0.0216,-0.0539 0.0325,-0.10994 0.0325,-0.16793 0,-0.0863 -0.02414,-0.15066 -0.07224,-0.1929 -0.04707,-0.0422 -0.110443,-0.0633 -0.190051,-0.0633 -0.08346,0 -0.164403,0.0191 -0.243004,0.0576 -0.0786,0.0381 -0.160552,0.0928 -0.246026,0.16341 l -0.247363,-0.29313 c 0.106086,-0.0903 0.193902,-0.15417 0.263623,-0.19137 0.06972,-0.0374 0.145799,-0.0659 0.228258,-0.0855 0.08245,-0.0206 0.174799,-0.031 0.277026,-0.031 0.134411,0 0.253234,0.0246 0.356469,0.0738 0.10307,0.0491 0.183013,0.11781 0.239995,0.20614 0.05701,0.0884 0.08547,0.18954 0.08547,0.3035 0,0.0992 -0.0176,0.19239 -0.05296,0.27988 -0.03452,0.0864 -0.08849,0.17529 -0.16206,0.26664 -0.07274,0.0914 -0.201276,0.22139 -0.385961,0.39032 l -0.276867,0.2606 v 0.0208 h 0.938181 z"
         inkscape:connector-curvature="0"
         style="fill:#fafafa;stroke:none;stroke-width:0.16759188" />
      <path
         sodipodi:nodetypes="sccccsccscscscccscccccc"
         style="fill:#fafafa;stroke:none;stroke-width:0.16759188"
         inkscape:connector-curvature="0"
         d="m 19.882409,153.44493 c -0.09519,0 -0.169939,0.0305 -0.223904,0.0914 -0.05396,0.0599 -0.08497,0.1453 -0.09285,0.25625 h 0.630481 c -0.002,-0.11095 -0.03083,-0.19641 -0.08682,-0.25625 -0.05598,-0.0608 -0.131729,-0.0914 -0.22692,-0.0914 z m 0.06334,1.38749 c -0.26513,0 -0.472274,-0.073 -0.621598,-0.21937 -0.149325,-0.1463 -0.223903,-0.35361 -0.223903,-0.6216 0,-0.27602 0.06871,-0.48903 0.206305,-0.63936 0.138431,-0.15117 0.32932,-0.22675 0.57283,-0.22675 0.232785,0 0.413952,0.0662 0.543668,0.19877 0.129546,0.13255 0.194408,0.31573 0.194408,0.54952 v 0.21804 h -1.062031 c 0.0049,0.12755 0.04273,0.22726 0.11346,0.29899 0.07055,0.0716 0.16977,0.10742 0.297475,0.10742 0.09922,0 0.192898,-0.0104 0.281387,-0.0309 0.08832,-0.0206 0.180664,-0.0536 0.276862,-0.0987 v 0.34759 c -0.0786,0.0392 -0.162565,0.0682 -0.251891,0.087 -0.08932,0.0196 -0.198261,0.0293 -0.326972,0.0293 z"
         id="path913-7" />
      <path
         style="fill:#ffffff;stroke:none;stroke-width:0.198512"
         inkscape:connector-curvature="0"
         d="m 22.314793,153.26495 c 0,0.12407 -0.03753,0.22928 -0.112557,0.31623 -0.07504,0.0868 -0.180447,0.1465 -0.316229,0.17905 v 0.008 c 0.160199,0.02 0.281292,0.0689 0.363674,0.14669 0.08238,0.0768 0.123474,0.18085 0.123474,0.31207 0,0.19076 -0.06908,0.33965 -0.207644,0.44646 -0.138362,0.1058 -0.336079,0.1588 -0.592954,0.1588 -0.215386,0 -0.406156,-0.0358 -0.572708,-0.1072 v -0.35692 c 0.07702,0.039 0.16159,0.0705 0.253698,0.0949 0.0923,0.0244 0.183823,0.0367 0.274145,0.0367 0.138562,0 0.240796,-0.0236 0.306702,-0.0707 0.06611,-0.0471 0.09906,-0.12248 0.09906,-0.2265 0,-0.0933 -0.03791,-0.15921 -0.113945,-0.19812 -0.07603,-0.039 -0.197124,-0.0584 -0.363674,-0.0584 h -0.150671 v -0.32159 h 0.15345 c 0.153648,0 0.266005,-0.0201 0.336477,-0.0598 0.07147,-0.0406 0.107197,-0.10998 0.107197,-0.20764 0,-0.15008 -0.09409,-0.22532 -0.282285,-0.22532 -0.06511,0 -0.131612,0.0109 -0.199504,0.0325 -0.06689,0.0218 -0.141539,0.0593 -0.223921,0.11277 l -0.193947,-0.28904 c 0.180845,-0.13043 0.396627,-0.19554 0.647348,-0.19554 0.205262,0 0.367248,0.0417 0.485759,0.12487 0.119306,0.0831 0.179058,0.1991 0.179058,0.34739 z"
         id="path22044-5" />
      <g
         transform="matrix(0.77252731,0,0,0.77252731,15.093059,40.648199)"
         id="g1738">
        <rect
           style="fill:#eaa356;stroke-width:0.22337195"
           x="67.997215"
           y="142.23688"
           width="6.9031539"
           height="7.100369"
           rx="0.44674391"
           id="rect290" />
        <rect
           style="fill:#eaa356;stroke-width:0.22337195"
           x="67.997215"
           y="142.23688"
           width="6.9031539"
           height="7.100369"
           rx="0.44674391"
           id="rect292" />
        <rect
           style="fill:#eaa356;stroke-width:0.22337195"
           x="67.997215"
           y="142.23688"
           width="6.9031539"
           height="7.100369"
           rx="0.44674391"
           id="rect294" />
        <path
           style="fill:#fafafa;stroke-width:0.22337195"
           inkscape:connector-curvature="0"
           d="m 72.497269,147.15106 h -0.418823 v -1.14992 h -1.176277 v 1.14992 h -0.417035 v -2.55136 h 0.417035 v 1.0436 h 1.176277 v -1.0436 h 0.418823 z"
           id="path496" />
      </g>
      <g
         transform="matrix(0.77252731,0,0,0.77252731,12.545949,40.648199)"
         id="g1732">
        <rect
           style="fill:#eaa356;stroke-width:0.22337195"
           x="58.409958"
           y="142.23688"
           width="6.9031539"
           height="7.100369"
           rx="0.44674391"
           id="rect302" />
        <rect
           style="fill:#eaa356;stroke-width:0.22337195"
           x="58.409958"
           y="142.23688"
           width="6.9031539"
           height="7.100369"
           rx="0.44674391"
           id="rect304" />
        <path
           style="fill:#fafafa;stroke-width:0.22337195"
           inkscape:connector-curvature="0"
           d="m 61.081711,145.78648 h 0.289712 c 0.194334,0 0.335058,-0.0362 0.422397,-0.10833 0.08712,-0.0722 0.130896,-0.17915 0.130896,-0.32099 0,-0.1443 -0.04713,-0.24795 -0.141394,-0.31072 -0.09426,-0.0627 -0.236105,-0.0943 -0.425747,-0.0943 h -0.275864 z m 0,0.34555 v 1.01903 h -0.417037 v -2.55136 h 0.720822 c 0.329251,0 0.572949,0.0616 0.731096,0.18495 0.158148,0.1233 0.237445,0.3096 0.237445,0.55843 0,0.31764 -0.165295,0.54391 -0.495662,0.67883 l 0.720598,1.12915 h -0.474666 l -0.610699,-1.01903 z m 2.521422,1.01903 h -0.914932 v -0.15815 l 0.609583,-0.85172 h -0.572503 v -0.19634 h 0.860429 v 0.1787 l -0.596626,0.83116 h 0.614049 z"
           id="path502" />
        <path
           style="fill:#ffffff;stroke-width:0.22337195"
           inkscape:connector-curvature="0"
           d="m 62.138483,144.20434 v -0.21824 h 0.56044 v 0.21824 z m 1.302258,0.30423 c 0.106102,0 0.182049,-0.0306 0.22784,-0.0916 0.04669,-0.0619 0.07059,-0.16553 0.07215,-0.31094 v -0.013 c 0,-0.14988 -0.02435,-0.25688 -0.07326,-0.32076 -0.04869,-0.0648 -0.124865,-0.0972 -0.228956,-0.0972 -0.188972,0 -0.283683,0.14071 -0.283683,0.42217 0,0.13737 0.02301,0.24034 0.0688,0.30869 0.04579,0.0684 0.118164,0.10254 0.217117,0.10254 z m -0.06232,0.20728 c -0.152562,0 -0.27229,-0.0545 -0.358734,-0.16373 -0.08578,-0.109 -0.128662,-0.26134 -0.128662,-0.45702 0,-0.20126 0.04423,-0.3565 0.133129,-0.46572 0.08935,-0.10901 0.21399,-0.16352 0.373925,-0.16352 0.08734,0 0.159264,0.0156 0.216,0.0469 0.05741,0.0306 0.105432,0.0759 0.144075,0.13626 h 0.01296 c 0.01965,-0.0703 0.04445,-0.1242 0.07416,-0.16128 h 0.207289 c -0.01965,0.0597 -0.03552,0.13626 -0.04803,0.23007 -0.01228,0.0932 -0.01854,0.17625 -0.01854,0.24974 v 0.40899 c 0,0.0415 0.008,0.073 0.02412,0.0949 0.01586,0.0219 0.03842,0.0326 0.06746,0.0326 0.02256,0 0.0449,-0.003 0.06657,-0.0107 v 0.19411 c -0.01162,0.007 -0.03195,0.0138 -0.06098,0.0197 -0.02837,0.006 -0.05361,0.009 -0.07528,0.009 -0.06903,0 -0.122631,-0.0143 -0.160382,-0.0426 -0.03775,-0.0284 -0.06612,-0.0748 -0.0851,-0.13961 h -0.01742 c -0.08354,0.12152 -0.205727,0.18227 -0.366554,0.18227 z"
           id="path504" />
      </g>
    </g>
  </g>
</svg>
