<?xml version="1.0" encoding="UTF-8" standalone="no"?>
<!-- Created with Inkscape (http://www.inkscape.org/) -->

<svg
   xmlns:dc="http://purl.org/dc/elements/1.1/"
   xmlns:cc="http://creativecommons.org/ns#"
   xmlns:rdf="http://www.w3.org/1999/02/22-rdf-syntax-ns#"
   xmlns:svg="http://www.w3.org/2000/svg"
   xmlns="http://www.w3.org/2000/svg"
   xmlns:sodipodi="http://sodipodi.sourceforge.net/DTD/sodipodi-0.dtd"
   xmlns:inkscape="http://www.inkscape.org/namespaces/inkscape"
   width="386"
   height="113"
   viewBox="0 0 102.12916 29.897918"
   version="1.1"
   id="svg2705"
   inkscape:version="0.92.5 (2060ec1f9f, 2020-04-08)"
   sodipodi:docname="lc2_cir0001_circuit.svg">
  <defs
     id="defs2699" />
  <sodipodi:namedview
     id="base"
     pagecolor="#ffffff"
     bordercolor="#666666"
     borderopacity="1.0"
     inkscape:pageopacity="0.0"
     inkscape:pageshadow="2"
     inkscape:zoom="1.4"
     inkscape:cx="240.85065"
     inkscape:cy="11.563441"
     inkscape:document-units="mm"
     inkscape:current-layer="g3401"
     showgrid="false"
     units="px"
     inkscape:window-width="1366"
     inkscape:window-height="704"
     inkscape:window-x="0"
     inkscape:window-y="27"
     inkscape:window-maximized="1" />
  <metadata
     id="metadata2702">
    <rdf:RDF>
      <cc:Work
         rdf:about="">
        <dc:format>image/svg+xml</dc:format>
        <dc:type
           rdf:resource="http://purl.org/dc/dcmitype/StillImage" />
        <dc:title></dc:title>
      </cc:Work>
    </rdf:RDF>
  </metadata>
  <g
     inkscape:label="Layer 1"
     inkscape:groupmode="layer"
     id="layer1"
     transform="translate(0,-267.10207)">
    <g
       id="g3401"
       transform="translate(-15.459226,136.2415)">
      <line
         style="fill:none;stroke:#fafafa;stroke-width:0.52916664"
         x1="28.159222"
         y1="150.24843"
         x2="28.159222"
         y2="155.6216"
         id="line238" />
      <line
         style="fill:none;stroke:#fafafa;stroke-width:0.52916664"
         x1="28.159222"
         y1="150.24843"
         x2="28.159222"
         y2="155.6216"
         id="line240" />
      <line
         style="fill:none;stroke:#fafafa;stroke-width:0.52916664"
         x1="28.159222"
         y1="150.24843"
         x2="28.159222"
         y2="155.6216"
         id="line242" />
      <line
         style="fill:none;stroke:#fafafa;stroke-width:0.52916664"
         x1="28.159222"
         y1="136.23106"
         x2="28.159222"
         y2="141.60425"
         id="line244" />
      <line
         style="fill:none;stroke:#fafafa;stroke-width:0.52916664"
         x1="28.159222"
         y1="136.23106"
         x2="28.159222"
         y2="141.60425"
         id="line246" />
      <line
         style="fill:none;stroke:#fafafa;stroke-width:0.52916664"
         x1="28.159222"
         y1="136.23106"
         x2="28.159222"
         y2="141.60425"
         id="line248" />
      <path
         style="fill:none;stroke:#fafafa;stroke-width:0.52916664"
         inkscape:connector-curvature="0"
         d="m 29.530027,139.0346 h 3.037152"
         id="path250" />
      <path
         style="fill:none;stroke:#fafafa;stroke-width:0.52916664"
         inkscape:connector-curvature="0"
         d="m 29.530027,139.0346 h 3.037152"
         id="path252" />
      <path
         style="fill:none;stroke:#fafafa;stroke-width:0.52916664"
         inkscape:connector-curvature="0"
         d="m 29.530027,152.58444 h 3.037152"
         id="path254" />
      <path
         style="fill:none;stroke:#fafafa;stroke-width:0.52916664"
         inkscape:connector-curvature="0"
         d="m 29.530027,152.58444 h 3.037152"
         id="path256" />
      <path
         style="fill:none;stroke:#fafafa;stroke-width:0.52916664"
         inkscape:connector-curvature="0"
         d="m 31.165417,140.4361 v -3.03689"
         id="path258" />
      <path
         style="fill:none;stroke:#fafafa;stroke-width:0.52916664"
         inkscape:connector-curvature="0"
         d="m 31.165417,140.4361 v -3.03689"
         id="path260" />
      <path
         style="fill:none;stroke:#fafafa;stroke-width:0.52916664"
         inkscape:connector-curvature="0"
         d="m 31.165417,153.98621 v -3.03689"
         id="path262" />
      <path
         style="fill:none;stroke:#fafafa;stroke-width:0.52916664"
         inkscape:connector-curvature="0"
         d="m 31.165417,153.98621 v -3.03689"
         id="path264" />
      <path
         style="fill:none;stroke:#fafafa;stroke-width:0.52916664"
         inkscape:connector-curvature="0"
         d="m 33.501423,136.69833 1.518708,2.33627 -1.518708,2.56964"
         id="path266" />
      <path
         style="fill:none;stroke:#fafafa;stroke-width:0.52916664"
         inkscape:connector-curvature="0"
         d="m 33.501423,136.69833 1.518708,2.33627 -1.518708,2.56964"
         id="path268" />
      <path
         style="fill:none;stroke:#fafafa;stroke-width:0.52916664"
         inkscape:connector-curvature="0"
         d="m 33.501423,150.48207 1.518708,2.336 -1.518708,2.5699"
         id="path270" />
      <path
         style="fill:none;stroke:#fafafa;stroke-width:0.52916664"
         inkscape:connector-curvature="0"
         d="m 33.501423,150.48207 1.518708,2.336 -1.518708,2.5699"
         id="path272" />
      <path
         style="fill:none;stroke:#eaa356;stroke-width:0.52916664"
         inkscape:connector-curvature="0"
         d="M 38.173965,138.91766 H 94.944023"
         id="path274" />
      <path
         style="fill:none;stroke:#eaa356;stroke-width:0.52916664"
         inkscape:connector-curvature="0"
         d="M 38.173965,152.58444 H 94.944023"
         id="path276" />
      <path
         style="fill:none;stroke:#eaa356;stroke-width:0.52916664"
         inkscape:connector-curvature="0"
         d="m 93.892569,137.74952 1.285081,1.16814 -1.285081,1.40176"
         id="path278" />
      <path
         style="fill:none;stroke:#eaa356;stroke-width:0.52916664"
         inkscape:connector-curvature="0"
         d="m 93.892569,151.29963 1.285081,1.16813 -1.285081,1.40177"
         id="path280" />
      <path
         style="fill:#fafafa;stroke-width:0.26458332"
         inkscape:connector-curvature="0"
         d="m 98.962515,138.61577 c -0.150284,0 -0.268288,0.0481 -0.353484,0.1442 -0.08519,0.0947 -0.134143,0.22939 -0.146579,0.40481 h 0.995363 c -0.0032,-0.17542 -0.04868,-0.31009 -0.137054,-0.40481 -0.08837,-0.0961 -0.207963,-0.1442 -0.358246,-0.1442 z m 0.100012,2.19075 c -0.418571,0 -0.745596,-0.11563 -0.981339,-0.34661 -0.235744,-0.23098 -0.353484,-0.558 -0.353484,-0.98134 0,-0.4355 0.108479,-0.77205 0.325702,-1.00912 0.218546,-0.23892 0.519907,-0.35824 0.904346,-0.35824 0.367506,0 0.653521,0.10477 0.858309,0.31406 0.204519,0.20928 0.306919,0.49821 0.306919,0.8673 v 0.34422 h -1.676667 c 0.0077,0.20135 0.06747,0.35878 0.179123,0.47202 0.111389,0.11324 0.268022,0.16986 0.469635,0.16986 0.156633,0 0.304535,-0.0164 0.444235,-0.0489 0.139436,-0.0325 0.285221,-0.0844 0.437092,-0.15584 v 0.54874 c -0.12409,0.0622 -0.256646,0.10795 -0.397669,0.13732 -0.141023,0.031 -0.313002,0.0466 -0.516202,0.0466 z m 3.232413,-0.0466 h -0.71861 v -1.96744 l 0.007,-0.32306 0.0116,-0.35348 c -0.11932,0.11933 -0.20214,0.19764 -0.2487,0.23469 l -0.39081,0.31406 -0.34634,-0.4326 1.09511,-0.87206 h 0.59081 z"
         id="path314" />
      <path
         style="fill:#fafafa;stroke-width:0.26458332"
         inkscape:connector-curvature="0"
         d="m 98.962515,152.16587 c -0.150284,0 -0.268288,0.0481 -0.353484,0.1442 -0.08519,0.0945 -0.134143,0.2294 -0.146579,0.40455 h 0.995363 c -0.0032,-0.17515 -0.04868,-0.31009 -0.137054,-0.40455 -0.08837,-0.096 -0.207963,-0.1442 -0.358246,-0.1442 z m 0.100012,2.19049 c -0.418571,0 -0.745596,-0.11536 -0.981339,-0.34634 -0.235744,-0.23098 -0.353484,-0.55827 -0.353484,-0.98134 0,-0.43577 0.108479,-0.77205 0.325702,-1.00939 0.218546,-0.23865 0.519907,-0.35798 0.904346,-0.35798 0.367506,0 0.653521,0.10451 0.858309,0.3138 0.204519,0.20928 0.306919,0.49847 0.306919,0.86757 v 0.34422 h -1.676667 c 0.0077,0.20135 0.06747,0.35878 0.179123,0.47202 0.111389,0.11297 0.268022,0.1696 0.469635,0.1696 0.156633,0 0.304535,-0.0161 0.444235,-0.0487 0.139436,-0.0325 0.285221,-0.0847 0.437092,-0.15584 v 0.54874 c -0.12409,0.0619 -0.256646,0.10769 -0.397669,0.13732 -0.141023,0.031 -0.313002,0.0463 -0.516202,0.0463 z m 3.832223,-0.0463 h -2.37648 V 153.81 l 0.85328,-0.86281 c 0.25294,-0.25876 0.41804,-0.43789 0.49556,-0.5371 0.0775,-0.10081 0.13309,-0.19368 0.16722,-0.27914 0.0341,-0.0852 0.0513,-0.17357 0.0513,-0.26511 0,-0.13626 -0.0381,-0.23786 -0.11404,-0.30454 -0.0743,-0.0667 -0.17436,-0.10001 -0.30004,-0.10001 -0.13176,0 -0.25955,0.0302 -0.38364,0.0908 -0.12409,0.0603 -0.25347,0.14658 -0.38841,0.25797 l -0.39052,-0.46276 c 0.16748,-0.14261 0.30612,-0.24341 0.41619,-0.30215 0.11006,-0.059 0.23018,-0.10398 0.36036,-0.13494 0.13017,-0.0325 0.27596,-0.0489 0.43735,-0.0489 0.2122,0 0.39979,0.0389 0.56277,0.11642 0.16272,0.0775 0.28893,0.186 0.37889,0.32544 0.09,0.1397 0.13493,0.29924 0.13493,0.47916 0,0.15663 -0.0278,0.30374 -0.0836,0.44185 -0.0545,0.13626 -0.1397,0.27675 -0.25585,0.42095 -0.11483,0.1442 -0.31776,0.34952 -0.60933,0.61622 l -0.4371,0.41142 v 0.0328 h 1.48114 z"
         id="path316" />
      <g
         id="g3446"
         transform="translate(-15.064419)">
        <path
           style="fill:none;stroke:#eaa356;stroke-width:0.52916664"
           inkscape:connector-curvature="0"
           id="path282"
           d="m 80.14715,137.63284 2.803525,2.5699" />
        <path
           style="fill:none;stroke:#eaa356;stroke-width:0.52916664"
           inkscape:connector-curvature="0"
           id="path284"
           d="m 80.264096,140.31942 2.569633,-2.80353" />
        <path
           id="path286"
           d="m 80.225781,151.29963 2.803525,2.5699"
           inkscape:connector-curvature="0"
           style="fill:none;stroke:#eaa356;stroke-width:0.52916664" />
        <path
           id="path288"
           d="m 80.342727,153.98621 2.569634,-2.80326"
           inkscape:connector-curvature="0"
           style="fill:none;stroke:#eaa356;stroke-width:0.52916664" />
        <path
           sodipodi:nodetypes="cc"
           id="path276-2"
           d="M 81.520816,152.26662 V 138.89717"
           style="fill:none;stroke:#eaa356;stroke-width:0.52916664"
           inkscape:connector-curvature="0" />
      </g>
    </g>
  </g>
</svg>
