<?xml version="1.0" encoding="UTF-8" standalone="no"?>
<!-- Created with Inkscape (http://www.inkscape.org/) -->

<svg
   xmlns:dc="http://purl.org/dc/elements/1.1/"
   xmlns:cc="http://creativecommons.org/ns#"
   xmlns:rdf="http://www.w3.org/1999/02/22-rdf-syntax-ns#"
   xmlns:svg="http://www.w3.org/2000/svg"
   xmlns="http://www.w3.org/2000/svg"
   xmlns:sodipodi="http://sodipodi.sourceforge.net/DTD/sodipodi-0.dtd"
   xmlns:inkscape="http://www.inkscape.org/namespaces/inkscape"
   width="386"
   height="113"
   viewBox="0 0 102.12916 29.897918"
   version="1.1"
   id="svg2705"
   inkscape:version="0.92.5 (2060ec1f9f, 2020-04-08)"
   sodipodi:docname="lc2_cir0000_circuit.svg">
  <defs
     id="defs2699" />
  <sodipodi:namedview
     id="base"
     pagecolor="#ffffff"
     bordercolor="#666666"
     borderopacity="1.0"
     inkscape:pageopacity="0.0"
     inkscape:pageshadow="2"
     inkscape:zoom="0.98994949"
     inkscape:cx="99.69748"
     inkscape:cy="25.745445"
     inkscape:document-units="mm"
     inkscape:current-layer="g1051"
     showgrid="false"
     units="px"
     inkscape:window-width="1366"
     inkscape:window-height="704"
     inkscape:window-x="0"
     inkscape:window-y="27"
     inkscape:window-maximized="1" />
  <metadata
     id="metadata2702">
    <rdf:RDF>
      <cc:Work
         rdf:about="">
        <dc:format>image/svg+xml</dc:format>
        <dc:type
           rdf:resource="http://purl.org/dc/dcmitype/StillImage" />
        <dc:title></dc:title>
      </cc:Work>
    </rdf:RDF>
  </metadata>
  <g
     inkscape:label="Layer 1"
     inkscape:groupmode="layer"
     id="layer1"
     transform="translate(0,-267.10207)">
    <g
       id="g3401"
       transform="translate(-15.459226,136.2415)">
      <line
         style="fill:none;stroke:#fafafa;stroke-width:0.52916664"
         x1="28.159222"
         y1="143.12292"
         x2="28.159222"
         y2="148.49611"
         id="line244" />
      <line
         style="fill:none;stroke:#fafafa;stroke-width:0.52916664"
         x1="28.159222"
         y1="143.12292"
         x2="28.159222"
         y2="148.49611"
         id="line246" />
      <line
         style="fill:none;stroke:#fafafa;stroke-width:0.52916664"
         x1="28.159222"
         y1="143.12292"
         x2="28.159222"
         y2="148.49611"
         id="line248" />
      <path
         style="fill:none;stroke:#fafafa;stroke-width:0.52916664"
         inkscape:connector-curvature="0"
         d="m 29.530027,145.92647 h 3.037152"
         id="path250" />
      <path
         style="fill:none;stroke:#fafafa;stroke-width:0.52916664"
         inkscape:connector-curvature="0"
         d="m 29.530027,145.92647 h 3.037152"
         id="path252" />
      <path
         style="fill:none;stroke:#fafafa;stroke-width:0.52916664"
         inkscape:connector-curvature="0"
         d="m 31.165417,147.32797 v -3.03689"
         id="path258" />
      <path
         style="fill:none;stroke:#fafafa;stroke-width:0.52916664"
         inkscape:connector-curvature="0"
         d="m 31.165417,147.32797 v -3.03689"
         id="path260" />
      <path
         style="fill:none;stroke:#fafafa;stroke-width:0.52916664"
         inkscape:connector-curvature="0"
         d="m 33.501423,143.5902 1.518708,2.33627 -1.518708,2.56964"
         id="path266" />
      <path
         style="fill:none;stroke:#fafafa;stroke-width:0.52916664"
         inkscape:connector-curvature="0"
         d="m 33.501423,143.5902 1.518708,2.33627 -1.518708,2.56964"
         id="path268" />
      <path
         style="fill:none;stroke:#eaa356;stroke-width:0.52916664"
         inkscape:connector-curvature="0"
         d="M 38.173965,145.80953 H 94.944023"
         id="path274" />
      <path
         style="fill:none;stroke:#eaa356;stroke-width:0.52916664"
         inkscape:connector-curvature="0"
         d="m 93.892569,144.64139 1.285081,1.16814 -1.285081,1.40176"
         id="path278" />
      <path
         style="fill:#fafafa;stroke-width:0.26458332"
         inkscape:connector-curvature="0"
         d="m 98.962515,145.50764 c -0.150284,0 -0.268288,0.0481 -0.353484,0.1442 -0.08519,0.0947 -0.134143,0.22939 -0.146579,0.40481 h 0.995363 c -0.0032,-0.17542 -0.04868,-0.31009 -0.137054,-0.40481 -0.08837,-0.0961 -0.207963,-0.1442 -0.358246,-0.1442 z m 0.100012,2.19075 c -0.418571,0 -0.745596,-0.11563 -0.981339,-0.34661 -0.235744,-0.23098 -0.353484,-0.558 -0.353484,-0.98134 0,-0.4355 0.108479,-0.77205 0.325702,-1.00912 0.218546,-0.23892 0.519907,-0.35824 0.904346,-0.35824 0.367506,0 0.653521,0.10477 0.858309,0.31406 0.204519,0.20928 0.306919,0.49821 0.306919,0.8673 v 0.34422 h -1.676667 c 0.0077,0.20135 0.06747,0.35878 0.179123,0.47202 0.111389,0.11324 0.268022,0.16986 0.469635,0.16986 0.156633,0 0.304535,-0.0164 0.444235,-0.0489 0.139436,-0.0325 0.285221,-0.0844 0.437092,-0.15584 v 0.54874 c -0.12409,0.0622 -0.256646,0.10795 -0.397669,0.13732 -0.141023,0.031 -0.313002,0.0466 -0.516202,0.0466 z m 3.232413,-0.0466 h -0.71861 v -1.96744 l 0.007,-0.32306 0.0116,-0.35348 c -0.11932,0.11933 -0.20214,0.19764 -0.2487,0.23469 l -0.39081,0.31406 -0.34634,-0.4326 1.09511,-0.87206 h 0.59081 z"
         id="path314" />
      <g
         id="g1067"
         transform="translate(0.47487317,6.8918681)">
        <rect
           id="rect302"
           rx="0.52916664"
           height="8.4103632"
           width="8.1767626"
           y="134.71248"
           x="53.056957"
           style="fill:#eaa356;stroke-width:0.26458332" />
        <rect
           id="rect304"
           rx="0.52916664"
           height="8.4103632"
           width="8.1767626"
           y="134.71248"
           x="53.056957"
           style="fill:#eaa356;stroke-width:0.26458332" />
        <rect
           id="rect306"
           rx="0.52916664"
           height="8.4103632"
           width="8.1767626"
           y="134.71248"
           x="53.056957"
           style="fill:#eaa356;stroke-width:0.26458332" />
        <path
           id="path502"
           d="M 56.221636,138.91697 H 56.5648 c 0.230188,0 0.396875,-0.0429 0.500327,-0.12832 0.103188,-0.0855 0.155046,-0.2122 0.155046,-0.38021 0,-0.17092 -0.05583,-0.29369 -0.167481,-0.36804 -0.111654,-0.0743 -0.279665,-0.11165 -0.504296,-0.11165 h -0.32676 z m 0,0.40931 v 1.20703 h -0.493978 v -3.02207 h 0.853811 c 0.389996,0 0.678656,0.073 0.865981,0.21907 0.187325,0.14605 0.281252,0.36672 0.281252,0.66146 0,0.37624 -0.195791,0.64426 -0.58711,0.80407 l 0.853546,1.33747 h -0.56224 l -0.723371,-1.20703 z m 2.986616,1.20703 h -1.083733 v -0.18733 l 0.722048,-1.00885 H 58.16844 v -0.23257 h 1.019175 v 0.21167 l -0.706702,0.98451 h 0.727339 z"
           inkscape:connector-curvature="0"
           style="fill:#fafafa;stroke-width:0.26458332" />
        <path
           id="path504"
           d="m 57.473379,137.04293 v -0.2585 h 0.66384 v 0.2585 z m 1.542521,0.36036 c 0.125677,0 0.215636,-0.0362 0.269875,-0.10848 0.0553,-0.0733 0.08361,-0.19606 0.08546,-0.3683 v -0.0154 c 0,-0.17753 -0.02884,-0.30427 -0.08678,-0.37994 -0.05768,-0.0767 -0.147902,-0.11509 -0.271198,-0.11509 -0.223837,0 -0.336021,0.16668 -0.336021,0.50006 0,0.16272 0.02725,0.28469 0.08149,0.36565 0.05424,0.081 0.139965,0.12145 0.257175,0.12145 z m -0.07382,0.24553 c -0.18071,0 -0.322527,-0.0646 -0.42492,-0.19394 -0.1016,-0.12911 -0.1524,-0.30956 -0.1524,-0.54134 0,-0.23839 0.05239,-0.42227 0.157691,-0.55165 0.105834,-0.12912 0.253471,-0.19368 0.442913,-0.19368 0.103452,0 0.188648,0.0185 0.255852,0.0556 0.068,0.0362 0.124883,0.0899 0.170656,0.16139 h 0.01535 c 0.02328,-0.0833 0.05265,-0.14711 0.08784,-0.19103 h 0.245533 c -0.02328,0.0707 -0.04207,0.1614 -0.05689,0.27252 -0.01455,0.11033 -0.02196,0.20876 -0.02196,0.29581 v 0.48445 c 0,0.0492 0.0095,0.0865 0.02857,0.11245 0.01879,0.0259 0.04551,0.0386 0.0799,0.0386 0.02672,0 0.05318,-0.004 0.07885,-0.0127 v 0.22992 c -0.01376,0.008 -0.03784,0.0164 -0.07223,0.0233 -0.0336,0.007 -0.0635,0.0103 -0.08917,0.0103 -0.08176,0 -0.145256,-0.0169 -0.189971,-0.0505 -0.04471,-0.0336 -0.07832,-0.0886 -0.100806,-0.16537 h -0.02064 c -0.09895,0.14394 -0.243682,0.2159 -0.434182,0.2159 z"
           inkscape:connector-curvature="0"
           style="fill:#ffffff;stroke-width:0.26458332" />
      </g>
      <g
         transform="translate(-6.4356503,6.8918681)"
         id="g1004"
         style="stroke:none">
        <g
           id="g1051">
          <rect
             id="rect308"
             rx="0.52916664"
             height="8.4103632"
             width="8.1767626"
             y="134.71248"
             x="62.745327"
             style="fill:#eaa356;stroke-width:0.26458332"
             transform="translate(15.029349)" />
          <rect
             id="rect310"
             rx="0.52916664"
             height="8.4103632"
             width="8.1767626"
             y="134.71248"
             x="62.745327"
             style="fill:#eaa356;stroke-width:0.26458332"
             transform="translate(15.029349)" />
          <rect
             id="rect312"
             rx="0.52916664"
             height="8.4103632"
             width="8.1767626"
             y="134.71248"
             x="62.745327"
             style="fill:#eaa356;stroke-width:0.26458332"
             transform="translate(15.029349)" />
          <path
             style="fill:none;stroke:none;stroke-width:0.01;stroke-linecap:butt;stroke-linejoin:miter;stroke-miterlimit:4;stroke-dasharray:none;stroke-opacity:1"
             d="m 83.640636,139.0482 h -0.197122 l -0.865973,1.42875"
             id="path996"
             inkscape:connector-curvature="0" />
          <path
             inkscape:connector-curvature="0"
             id="path998"
             d="m 82.573265,140.47454 h 0.197122 l 0.865973,-1.42875"
             style="fill:none;stroke:none;stroke-width:0.01;stroke-linecap:butt;stroke-linejoin:miter;stroke-miterlimit:4;stroke-dasharray:none;stroke-opacity:1" />
          <path
             style="fill:none;stroke:none;stroke-width:0.02;stroke-linecap:butt;stroke-linejoin:miter;stroke-miterlimit:4;stroke-dasharray:none;stroke-opacity:1"
             d="m 83.363785,139.0482 h 0.270945 l -0.79052,1.42634 h -0.270945 z"
             id="path1000"
             inkscape:connector-curvature="0"
             sodipodi:nodetypes="ccccc" />
          <path
             id="path496"
             d="m 83.054741,140.4287 h -0.496094 v -1.36208 h -1.393296 v 1.36208 h -0.493977 v -3.02207 h 0.493977 v 1.23613 h 1.393296 v -1.23613 h 0.496094 z"
             inkscape:connector-curvature="0"
             style="fill:#fafafa;stroke-width:0.26458332" />
        </g>
      </g>
    </g>
  </g>
</svg>
