<?xml version="1.0" encoding="UTF-8" standalone="no"?>
<!-- Created with Inkscape (http://www.inkscape.org/) -->

<svg
   xmlns:dc="http://purl.org/dc/elements/1.1/"
   xmlns:cc="http://creativecommons.org/ns#"
   xmlns:rdf="http://www.w3.org/1999/02/22-rdf-syntax-ns#"
   xmlns:svg="http://www.w3.org/2000/svg"
   xmlns="http://www.w3.org/2000/svg"
   xmlns:sodipodi="http://sodipodi.sourceforge.net/DTD/sodipodi-0.dtd"
   xmlns:inkscape="http://www.inkscape.org/namespaces/inkscape"
   width="386"
   height="113"
   viewBox="0 0 102.12916 29.897918"
   version="1.1"
   id="svg2705"
   inkscape:version="0.92.5 (2060ec1f9f, 2020-04-08)"
   sodipodi:docname="lc3_cir0003_circuit.svg">
  <defs
     id="defs2699" />
  <sodipodi:namedview
     id="base"
     pagecolor="#ffffff"
     bordercolor="#666666"
     borderopacity="1.0"
     inkscape:pageopacity="0.0"
     inkscape:pageshadow="2"
     inkscape:zoom="1.979899"
     inkscape:cx="213.5854"
     inkscape:cy="18.166371"
     inkscape:document-units="mm"
     inkscape:current-layer="g3401"
     showgrid="false"
     units="px"
     inkscape:window-width="1366"
     inkscape:window-height="704"
     inkscape:window-x="0"
     inkscape:window-y="27"
     inkscape:window-maximized="1" />
  <metadata
     id="metadata2702">
    <rdf:RDF>
      <cc:Work
         rdf:about="">
        <dc:format>image/svg+xml</dc:format>
        <dc:type
           rdf:resource="http://purl.org/dc/dcmitype/StillImage" />
        <dc:title></dc:title>
      </cc:Work>
    </rdf:RDF>
  </metadata>
  <g
     inkscape:label="Layer 1"
     inkscape:groupmode="layer"
     id="layer1"
     transform="translate(0,-267.10207)">
    <g
       id="g3401"
       transform="translate(-15.459226,136.2415)">
      <g
         id="g1062"
         transform="matrix(1.1266318,0,0,1.1266318,-8.4240265,-13.684319)">
        <line
           id="line244"
           y2="136.51714"
           x2="35.088116"
           y1="131.98088"
           x1="35.088116"
           style="fill:none;stroke:#fafafa;stroke-width:0.44674391" />
        <line
           id="line246"
           y2="136.51714"
           x2="35.088116"
           y1="131.98088"
           x1="35.088116"
           style="fill:none;stroke:#fafafa;stroke-width:0.44674391" />
        <line
           id="line248"
           y2="136.51714"
           x2="35.088116"
           y1="131.98088"
           x1="35.088116"
           style="fill:none;stroke:#fafafa;stroke-width:0.44674391" />
        <path
           id="path250"
           d="m 36.245409,134.34773 h 2.564086"
           inkscape:connector-curvature="0"
           style="fill:none;stroke:#fafafa;stroke-width:0.44674391" />
        <path
           id="path252"
           d="m 36.245409,134.34773 h 2.564086"
           inkscape:connector-curvature="0"
           style="fill:none;stroke:#fafafa;stroke-width:0.44674391" />
        <path
           id="path258"
           d="m 37.626071,135.53094 v -2.56387"
           inkscape:connector-curvature="0"
           style="fill:none;stroke:#fafafa;stroke-width:0.44674391" />
        <path
           id="path260"
           d="m 37.626071,135.53094 v -2.56387"
           inkscape:connector-curvature="0"
           style="fill:none;stroke:#fafafa;stroke-width:0.44674391" />
        <path
           id="path266"
           d="m 39.598222,132.37536 1.282155,1.97237 -1.282155,2.1694"
           inkscape:connector-curvature="0"
           style="fill:none;stroke:#fafafa;stroke-width:0.44674391" />
        <path
           id="path268"
           d="m 39.598222,132.37536 1.282155,1.97237 -1.282155,2.1694"
           inkscape:connector-curvature="0"
           style="fill:none;stroke:#fafafa;stroke-width:0.44674391" />
        <path
           id="path274"
           d="M 43.542971,134.24901 H 91.470552"
           inkscape:connector-curvature="0"
           style="fill:none;stroke:#eaa356;stroke-width:0.44674391" />
        <path
           id="path278"
           d="m 90.582872,133.26282 1.084918,0.98619 -1.084918,1.18342"
           inkscape:connector-curvature="0"
           style="fill:none;stroke:#eaa356;stroke-width:0.44674391" />
        <path
           id="path314"
           d="m 94.863126,133.99414 c -0.126876,0 -0.2265,0.0406 -0.298426,0.12174 -0.07192,0.0799 -0.113249,0.19366 -0.123748,0.34176 h 0.840326 c -0.0027,-0.1481 -0.0411,-0.26179 -0.115706,-0.34176 -0.07461,-0.0811 -0.175571,-0.12174 -0.302446,-0.12174 z m 0.08443,1.84952 c -0.353375,0 -0.629462,-0.0976 -0.828486,-0.29262 -0.199025,-0.19501 -0.298426,-0.47109 -0.298426,-0.82849 0,-0.36767 0.09158,-0.6518 0.274971,-0.85194 0.184506,-0.20171 0.438927,-0.30244 0.763486,-0.30244 0.310263,0 0.551729,0.0884 0.724619,0.26514 0.172663,0.17668 0.259113,0.42061 0.259113,0.73221 v 0.29061 h -1.41551 c 0.0065,0.16998 0.05696,0.30289 0.151223,0.39849 0.09404,0.0956 0.226275,0.14341 0.396485,0.14341 0.132236,0 0.257101,-0.0139 0.375041,-0.0413 0.117718,-0.0274 0.240795,-0.0712 0.369011,-0.13156 v 0.46327 c -0.104762,0.0525 -0.216671,0.0911 -0.335728,0.11593 -0.119058,0.0262 -0.264249,0.0393 -0.435799,0.0393 z m 2.728934,-0.0393 h -0.60668 v -1.66099 l 0.0059,-0.27275 0.0098,-0.29842 c -0.100735,0.10075 -0.170655,0.16686 -0.209963,0.19814 l -0.329937,0.26514 -0.292394,-0.36522 0.924536,-0.73623 h 0.498786 z"
           inkscape:connector-curvature="0"
           style="fill:#fafafa;stroke-width:0.22337195" />
      </g>
      <line
         style="fill:none;stroke:#fafafa;stroke-width:0.50331587"
         x1="31.107359"
         y1="143.31819"
         x2="31.107359"
         y2="148.42886"
         id="line238" />
      <line
         style="fill:none;stroke:#fafafa;stroke-width:0.50331587"
         x1="31.107359"
         y1="143.31819"
         x2="31.107359"
         y2="148.42886"
         id="line240" />
      <line
         style="fill:none;stroke:#fafafa;stroke-width:0.50331587"
         x1="31.107359"
         y1="143.31819"
         x2="31.107359"
         y2="148.42886"
         id="line242" />
      <path
         style="fill:none;stroke:#fafafa;stroke-width:0.50331587"
         inkscape:connector-curvature="0"
         d="m 32.411202,145.54009 h 2.888781"
         id="path254" />
      <path
         style="fill:none;stroke:#fafafa;stroke-width:0.50331587"
         inkscape:connector-curvature="0"
         d="m 32.411202,145.54009 h 2.888781"
         id="path256" />
      <path
         style="fill:none;stroke:#fafafa;stroke-width:0.50331587"
         inkscape:connector-curvature="0"
         d="m 33.9667,146.87338 v -2.88854"
         id="path262" />
      <path
         style="fill:none;stroke:#fafafa;stroke-width:0.50331587"
         inkscape:connector-curvature="0"
         d="m 33.9667,146.87338 v -2.88854"
         id="path264" />
      <path
         style="fill:none;stroke:#fafafa;stroke-width:0.50331587"
         inkscape:connector-curvature="0"
         d="m 36.188588,143.54042 1.444516,2.22189 -1.444516,2.44435"
         id="path270" />
      <path
         style="fill:none;stroke:#fafafa;stroke-width:0.50331587"
         inkscape:connector-curvature="0"
         d="m 36.188588,143.54042 1.444516,2.22189 -1.444516,2.44435"
         id="path272" />
      <path
         style="fill:none;stroke:#eaa356;stroke-width:0.50331587"
         inkscape:connector-curvature="0"
         d="M 40.632867,145.54009 H 94.629602"
         id="path276" />
      <path
         style="fill:none;stroke:#eaa356;stroke-width:0.50331587"
         inkscape:connector-curvature="0"
         d="m 93.629513,144.31804 1.222303,1.11106 -1.222303,1.33329"
         id="path280" />
      <path
         style="fill:#fafafa;stroke-width:0.25165793"
         inkscape:connector-curvature="0"
         d="m 98.451787,145.14196 c -0.14295,0 -0.25519,0.0457 -0.33622,0.13716 -0.081,0.0899 -0.12759,0.21819 -0.13942,0.38479 h 0.94674 c -0.003,-0.1666 -0.0463,-0.29494 -0.13036,-0.38479 -0.0841,-0.0914 -0.1978,-0.13716 -0.34074,-0.13716 z m 0.0951,2.08348 c -0.39813,0 -0.70917,-0.10973 -0.9334,-0.32942 -0.22423,-0.21969 -0.33622,-0.531 -0.33622,-0.9334 0,-0.41448 0.10318,-0.73433 0.30979,-0.96008 0.20787,-0.22698 0.49451,-0.34049 0.86017,-0.34049 0.34955,0 0.6216,0.0994 0.81638,0.29847 0.19453,0.19906 0.29193,0.47412 0.29193,0.82519 v 0.32741 h -1.59476 c 0.007,0.1915 0.0642,0.34124 0.17037,0.44896 0.10595,0.10748 0.25493,0.16131 0.44669,0.16131 0.14898,0 0.28966,-0.0153 0.42254,-0.0463 0.13262,-0.0309 0.27128,-0.0806 0.41573,-0.14822 v 0.52193 c -0.11802,0.0588 -0.2441,0.10241 -0.37824,0.13061 -0.13413,0.0295 -0.29771,0.044 -0.49098,0.044 z m 3.645013,-0.044 h -2.260393 v -0.47563 l 0.811603,-0.82066 c 0.24058,-0.24612 0.39762,-0.4165 0.47135,-0.51086 0.0737,-0.0959 0.12659,-0.18422 0.15905,-0.2655 0.0324,-0.081 0.0488,-0.16509 0.0488,-0.25217 0,-0.12959 -0.0362,-0.22624 -0.10848,-0.28965 -0.0707,-0.0634 -0.16584,-0.0951 -0.28538,-0.0951 -0.12532,0 -0.24687,0.0287 -0.3649,0.0864 -0.11802,0.0573 -0.24108,0.13942 -0.36943,0.24537 l -0.371443,-0.44015 c 0.159293,-0.13564 0.291163,-0.23151 0.395853,-0.28738 0.10469,-0.0561 0.21894,-0.0989 0.34276,-0.12836 0.12381,-0.0309 0.26248,-0.0465 0.41598,-0.0465 0.20184,0 0.38026,0.037 0.53528,0.11075 0.15477,0.0737 0.27482,0.17691 0.36038,0.30954 0.0856,0.13287 0.12834,0.28462 0.12834,0.45574 0,0.14899 -0.0264,0.28891 -0.0795,0.42027 -0.0518,0.12961 -0.13287,0.26323 -0.24335,0.40038 -0.10921,0.13716 -0.30223,0.33245 -0.57956,0.58612 l -0.41575,0.39133 v 0.0312 h 1.40879 z"
         id="path316" />
      <line
         id="line889"
         y2="156.60951"
         x2="31.107359"
         y1="151.49883"
         x1="31.107359"
         style="fill:none;stroke:#fafafa;stroke-width:0.50331587" />
      <line
         id="line891"
         y2="156.60951"
         x2="31.107359"
         y1="151.49883"
         x1="31.107359"
         style="fill:none;stroke:#fafafa;stroke-width:0.50331587" />
      <line
         id="line893"
         y2="156.60951"
         x2="31.107359"
         y1="151.49883"
         x1="31.107359"
         style="fill:none;stroke:#fafafa;stroke-width:0.50331587" />
      <path
         id="path895"
         d="m 32.411202,153.72073 h 2.888781"
         inkscape:connector-curvature="0"
         style="fill:none;stroke:#fafafa;stroke-width:0.50331587" />
      <path
         id="path897"
         d="m 32.411202,153.72073 h 2.888781"
         inkscape:connector-curvature="0"
         style="fill:none;stroke:#fafafa;stroke-width:0.50331587" />
      <path
         id="path899"
         d="m 33.9667,155.05402 v -2.88854"
         inkscape:connector-curvature="0"
         style="fill:none;stroke:#fafafa;stroke-width:0.50331587" />
      <path
         id="path901"
         d="m 33.9667,155.05402 v -2.88854"
         inkscape:connector-curvature="0"
         style="fill:none;stroke:#fafafa;stroke-width:0.50331587" />
      <path
         id="path903"
         d="m 36.188588,151.72106 1.444516,2.22189 -1.444516,2.44435"
         inkscape:connector-curvature="0"
         style="fill:none;stroke:#fafafa;stroke-width:0.50331587" />
      <path
         id="path905"
         d="m 36.188588,151.72106 1.444516,2.22189 -1.444516,2.44435"
         inkscape:connector-curvature="0"
         style="fill:none;stroke:#fafafa;stroke-width:0.50331587" />
      <path
         id="path909"
         d="M 40.632867,153.72073 H 94.629602"
         inkscape:connector-curvature="0"
         style="fill:none;stroke:#eaa356;stroke-width:0.50331587" />
      <path
         id="path911"
         d="m 93.629513,152.49869 1.222303,1.11106 -1.222303,1.33329"
         inkscape:connector-curvature="0"
         style="fill:none;stroke:#eaa356;stroke-width:0.50331587" />
      <path
         id="path913"
         d="m 98.451787,153.3226 c -0.14295,0 -0.25519,0.0457 -0.33622,0.13716 -0.081,0.0899 -0.12759,0.21819 -0.13942,0.38479 h 0.94674 c -0.003,-0.1666 -0.0463,-0.29494 -0.13036,-0.38479 -0.0841,-0.0913 -0.1978,-0.13716 -0.34074,-0.13716 z m 0.0951,2.08348 c -0.39813,0 -0.70917,-0.10973 -0.9334,-0.32941 -0.22423,-0.2197 -0.33622,-0.531 -0.33622,-0.93341 0,-0.41447 0.10318,-0.73432 0.30979,-0.96008 0.20787,-0.22698 0.49451,-0.34049 0.86017,-0.34049 0.34955,0 0.6216,0.0994 0.81638,0.29848 0.19453,0.19905 0.29193,0.47411 0.29193,0.82518 v 0.32741 h -1.59476 c 0.007,0.19151 0.0642,0.34124 0.17037,0.44896 0.10595,0.10748 0.25493,0.16131 0.44669,0.16131 0.14898,0 0.28966,-0.0153 0.42254,-0.0463 0.13262,-0.0309 0.27128,-0.0806 0.41573,-0.14823 v 0.52193 c -0.11802,0.0589 -0.2441,0.10241 -0.37824,0.13061 -0.13413,0.0295 -0.29771,0.044 -0.49098,0.044 z"
         inkscape:connector-curvature="0"
         style="fill:#fafafa;stroke-width:0.25165793"
         sodipodi:nodetypes="sccccsccscscscccscccccc" />
      <path
         id="path22044"
         d="m 102.10428,153.05233 c 0,0.18632 -0.0563,0.3443 -0.16901,0.47487 -0.11268,0.13026 -0.27097,0.21998 -0.47486,0.26887 v 0.0123 c 0.24056,0.0301 0.42239,0.10342 0.5461,0.22028 0.12371,0.11537 0.18541,0.27156 0.18541,0.4686 0,0.28646 -0.10373,0.51002 -0.3118,0.6704 -0.20777,0.15888 -0.50466,0.23846 -0.89039,0.23846 -0.32342,0 -0.60989,-0.0536 -0.85998,-0.16096 v -0.53596 c 0.11566,0.0585 0.24264,0.10579 0.38095,0.14249 0.13862,0.0366 0.27603,0.0551 0.41166,0.0551 0.20807,0 0.36158,-0.0355 0.46055,-0.10613 0.0993,-0.0706 0.14874,-0.18392 0.14874,-0.34012 0,-0.14011 -0.0569,-0.23907 -0.1711,-0.2975 -0.11416,-0.0585 -0.296,-0.0877 -0.54609,-0.0877 h -0.22625 v -0.4829 h 0.23042 c 0.23072,0 0.39944,-0.0301 0.50526,-0.0897 0.10731,-0.0611 0.16097,-0.16514 0.16097,-0.31179 0,-0.22536 -0.1413,-0.33834 -0.42389,-0.33834 -0.0978,0 -0.19763,0.0164 -0.29957,0.0489 -0.10045,0.0328 -0.21254,0.0891 -0.33625,0.16933 l -0.29123,-0.43403 c 0.27156,-0.19584 0.59558,-0.29361 0.97207,-0.29361 0.30822,0 0.55146,0.0626 0.72942,0.1875 0.17915,0.12489 0.26887,0.29898 0.26887,0.52165 z"
         inkscape:connector-curvature="0"
         style="fill:#ffffff;stroke-width:0.29808795" />
      <g
         id="g1020"
         transform="matrix(1.1266318,0,0,1.1266318,-25.542424,-13.68432)">
        <g
           transform="translate(2.5078934e-6)"
           id="g1762">
          <g
             id="g3446"
             transform="matrix(0.84424048,0,0,0.84424048,13.854181,16.969098)" />
          <g
             transform="matrix(0.84424048,0,0,0.84424048,13.854181,16.71808)"
             id="g1580">
            <path
               style="fill:none;stroke:#eaa356;stroke-width:0.52916664"
               inkscape:connector-curvature="0"
               id="path1576"
               d="m 80.14715,137.93004 2.803525,2.5699" />
            <path
               d="m 80.14715,140.49994 2.803525,-2.5699"
               id="path1578"
               inkscape:connector-curvature="0"
               style="fill:none;stroke:#eaa356;stroke-width:0.52916664" />
          </g>
        </g>
      </g>
      <path
         sodipodi:nodetypes="cc"
         id="path923"
         d="M 67.617873,153.60958 V 137.64621"
         style="fill:none;stroke:#eaa356;stroke-width:0.50331587"
         inkscape:connector-curvature="0" />
      <g
         transform="matrix(0.95114813,0,0,0.95114813,-9.9204989,21.306654)"
         id="g1586">
        <path
           d="m 80.14715,137.93004 2.803525,2.5699"
           id="path1582"
           inkscape:connector-curvature="0"
           style="fill:none;stroke:#eaa356;stroke-width:0.52916664" />
        <path
           style="fill:none;stroke:#eaa356;stroke-width:0.52916664"
           inkscape:connector-curvature="0"
           id="path1584"
           d="m 80.14715,140.49994 2.803525,-2.5699" />
      </g>
      <g
         id="g1717"
         transform="matrix(0.95114813,0,0,0.95114813,-9.9472229,13.126012)">
        <path
           style="fill:none;stroke:#eaa356;stroke-width:0.52916664"
           inkscape:connector-curvature="0"
           id="path1713"
           d="m 80.14715,137.93004 2.803525,2.5699" />
        <path
           d="m 80.14715,140.49994 2.803525,-2.5699"
           id="path1715"
           inkscape:connector-curvature="0"
           style="fill:none;stroke:#eaa356;stroke-width:0.52916664" />
      </g>
    </g>
  </g>
</svg>
