<?xml version="1.0" encoding="UTF-8" standalone="no"?>
<!-- Created with Inkscape (http://www.inkscape.org/) -->

<svg
   xmlns:dc="http://purl.org/dc/elements/1.1/"
   xmlns:cc="http://creativecommons.org/ns#"
   xmlns:rdf="http://www.w3.org/1999/02/22-rdf-syntax-ns#"
   xmlns:svg="http://www.w3.org/2000/svg"
   xmlns="http://www.w3.org/2000/svg"
   xmlns:sodipodi="http://sodipodi.sourceforge.net/DTD/sodipodi-0.dtd"
   xmlns:inkscape="http://www.inkscape.org/namespaces/inkscape"
   width="386"
   height="113"
   viewBox="0 0 102.12916 29.897918"
   version="1.1"
   id="svg2705"
   inkscape:version="0.92.5 (2060ec1f9f, 2020-04-08)"
   sodipodi:docname="lc4_cir0004_circuit.svg">
  <defs
     id="defs2699" />
  <sodipodi:namedview
     id="base"
     pagecolor="#ffffff"
     bordercolor="#666666"
     borderopacity="1.0"
     inkscape:pageopacity="0.0"
     inkscape:pageshadow="2"
     inkscape:zoom="1.979899"
     inkscape:cx="180.28207"
     inkscape:cy="70.995272"
     inkscape:document-units="mm"
     inkscape:current-layer="g3401"
     showgrid="false"
     units="px"
     inkscape:window-width="1366"
     inkscape:window-height="704"
     inkscape:window-x="0"
     inkscape:window-y="27"
     inkscape:window-maximized="1" />
  <metadata
     id="metadata2702">
    <rdf:RDF>
      <cc:Work
         rdf:about="">
        <dc:format>image/svg+xml</dc:format>
        <dc:type
           rdf:resource="http://purl.org/dc/dcmitype/StillImage" />
        <dc:title></dc:title>
      </cc:Work>
    </rdf:RDF>
  </metadata>
  <g
     inkscape:label="Layer 1"
     inkscape:groupmode="layer"
     id="layer1"
     transform="translate(0,-267.10207)">
    <g
       id="g3401"
       transform="translate(-15.459226,136.2415)">
      <line
         style="fill:none;stroke:#fafafa;stroke-width:0.44674391"
         x1="35.088116"
         y1="143.81491"
         x2="35.088116"
         y2="148.35115"
         id="line238" />
      <line
         style="fill:none;stroke:#fafafa;stroke-width:0.44674391"
         x1="35.088116"
         y1="143.81491"
         x2="35.088116"
         y2="148.35115"
         id="line240" />
      <line
         style="fill:none;stroke:#fafafa;stroke-width:0.44674391"
         x1="35.088116"
         y1="143.81491"
         x2="35.088116"
         y2="148.35115"
         id="line242" />
      <line
         style="fill:none;stroke:#fafafa;stroke-width:0.44674391"
         x1="35.088116"
         y1="131.98088"
         x2="35.088116"
         y2="136.51714"
         id="line244" />
      <line
         style="fill:none;stroke:#fafafa;stroke-width:0.44674391"
         x1="35.088116"
         y1="131.98088"
         x2="35.088116"
         y2="136.51714"
         id="line246" />
      <line
         style="fill:none;stroke:#fafafa;stroke-width:0.44674391"
         x1="35.088116"
         y1="131.98088"
         x2="35.088116"
         y2="136.51714"
         id="line248" />
      <path
         style="fill:none;stroke:#fafafa;stroke-width:0.44674391"
         inkscape:connector-curvature="0"
         d="m 36.245409,134.34773 h 2.564086"
         id="path250" />
      <path
         style="fill:none;stroke:#fafafa;stroke-width:0.44674391"
         inkscape:connector-curvature="0"
         d="m 36.245409,134.34773 h 2.564086"
         id="path252" />
      <path
         style="fill:none;stroke:#fafafa;stroke-width:0.44674391"
         inkscape:connector-curvature="0"
         d="m 36.245409,145.78706 h 2.564086"
         id="path254" />
      <path
         style="fill:none;stroke:#fafafa;stroke-width:0.44674391"
         inkscape:connector-curvature="0"
         d="m 36.245409,145.78706 h 2.564086"
         id="path256" />
      <path
         style="fill:none;stroke:#fafafa;stroke-width:0.44674391"
         inkscape:connector-curvature="0"
         d="m 37.626071,135.53094 v -2.56387"
         id="path258" />
      <path
         style="fill:none;stroke:#fafafa;stroke-width:0.44674391"
         inkscape:connector-curvature="0"
         d="m 37.626071,135.53094 v -2.56387"
         id="path260" />
      <path
         style="fill:none;stroke:#fafafa;stroke-width:0.44674391"
         inkscape:connector-curvature="0"
         d="m 37.626071,146.97049 v -2.56387"
         id="path262" />
      <path
         style="fill:none;stroke:#fafafa;stroke-width:0.44674391"
         inkscape:connector-curvature="0"
         d="m 37.626071,146.97049 v -2.56387"
         id="path264" />
      <path
         style="fill:none;stroke:#fafafa;stroke-width:0.44674391"
         inkscape:connector-curvature="0"
         d="m 39.598222,132.37536 1.282155,1.97237 -1.282155,2.1694"
         id="path266" />
      <path
         style="fill:none;stroke:#fafafa;stroke-width:0.44674391"
         inkscape:connector-curvature="0"
         d="m 39.598222,132.37536 1.282155,1.97237 -1.282155,2.1694"
         id="path268" />
      <path
         style="fill:none;stroke:#fafafa;stroke-width:0.44674391"
         inkscape:connector-curvature="0"
         d="m 39.598222,144.01215 1.282155,1.97215 -1.282155,2.16961"
         id="path270" />
      <path
         style="fill:none;stroke:#fafafa;stroke-width:0.44674391"
         inkscape:connector-curvature="0"
         d="m 39.598222,144.01215 1.282155,1.97215 -1.282155,2.16961"
         id="path272" />
      <path
         style="fill:none;stroke:#eaa356;stroke-width:0.44674391"
         inkscape:connector-curvature="0"
         d="M 43.542971,134.24901 H 91.470552"
         id="path274" />
      <path
         style="fill:none;stroke:#eaa356;stroke-width:0.44674391"
         inkscape:connector-curvature="0"
         d="M 43.542971,145.78706 H 91.470552"
         id="path276" />
      <path
         style="fill:none;stroke:#eaa356;stroke-width:0.44674391"
         inkscape:connector-curvature="0"
         d="m 90.582872,133.26282 1.084918,0.98619 -1.084918,1.18342"
         id="path278" />
      <path
         style="fill:none;stroke:#eaa356;stroke-width:0.44674391"
         inkscape:connector-curvature="0"
         d="m 90.582872,144.70237 1.084918,0.98618 -1.084918,1.18343"
         id="path280" />
      <path
         style="fill:#fafafa;stroke-width:0.22337195"
         inkscape:connector-curvature="0"
         d="m 94.863126,133.99414 c -0.126876,0 -0.2265,0.0406 -0.298426,0.12174 -0.07192,0.0799 -0.113249,0.19366 -0.123748,0.34176 h 0.840326 c -0.0027,-0.1481 -0.0411,-0.26179 -0.115706,-0.34176 -0.07461,-0.0811 -0.175571,-0.12174 -0.302446,-0.12174 z m 0.08443,1.84952 c -0.353375,0 -0.629462,-0.0976 -0.828486,-0.29262 -0.199025,-0.19501 -0.298426,-0.47109 -0.298426,-0.82849 0,-0.36767 0.09158,-0.6518 0.274971,-0.85194 0.184506,-0.20171 0.438927,-0.30244 0.763486,-0.30244 0.310263,0 0.551729,0.0884 0.724619,0.26514 0.172663,0.17668 0.259113,0.42061 0.259113,0.73221 v 0.29061 h -1.41551 c 0.0065,0.16998 0.05696,0.30289 0.151223,0.39849 0.09404,0.0956 0.226275,0.14341 0.396485,0.14341 0.132236,0 0.257101,-0.0139 0.375041,-0.0413 0.117718,-0.0274 0.240795,-0.0712 0.369011,-0.13156 v 0.46327 c -0.104762,0.0525 -0.216671,0.0911 -0.335728,0.11593 -0.119058,0.0262 -0.264249,0.0393 -0.435799,0.0393 z m 2.728934,-0.0393 h -0.60668 v -1.66099 l 0.0059,-0.27275 0.0098,-0.29842 c -0.100735,0.10075 -0.170655,0.16686 -0.209963,0.19814 l -0.329937,0.26514 -0.292394,-0.36522 0.924536,-0.73623 h 0.498786 z"
         id="path314" />
      <path
         style="fill:#fafafa;stroke-width:0.22337195"
         inkscape:connector-curvature="0"
         d="m 94.863126,145.43368 c -0.126876,0 -0.2265,0.0406 -0.298426,0.12174 -0.07192,0.0798 -0.113249,0.19367 -0.123748,0.34154 h 0.840326 c -0.0027,-0.14787 -0.0411,-0.26179 -0.115706,-0.34154 -0.07461,-0.0811 -0.175571,-0.12174 -0.302446,-0.12174 z m 0.08443,1.8493 c -0.353375,0 -0.629462,-0.0974 -0.828486,-0.29239 -0.199025,-0.195 -0.298426,-0.47132 -0.298426,-0.82849 0,-0.36789 0.09158,-0.65179 0.274971,-0.85217 0.184506,-0.20147 0.438927,-0.30222 0.763486,-0.30222 0.310263,0 0.551729,0.0882 0.724619,0.26492 0.172663,0.17669 0.259113,0.42083 0.259113,0.73244 v 0.29061 h -1.41551 c 0.0065,0.16998 0.05696,0.30289 0.151223,0.3985 0.09404,0.0954 0.226275,0.14318 0.396485,0.14318 0.132236,0 0.257101,-0.0136 0.375041,-0.0411 0.117718,-0.0274 0.240795,-0.0715 0.369011,-0.13156 v 0.46327 c -0.104762,0.0522 -0.216671,0.0909 -0.335728,0.11593 -0.119058,0.0262 -0.264249,0.0391 -0.435799,0.0391 z m 3.235318,-0.0391 h -2.006321 v -0.42217 l 0.720374,-0.72842 c 0.213542,-0.21845 0.352926,-0.36968 0.418371,-0.45344 0.06543,-0.0851 0.11236,-0.16351 0.141174,-0.23566 0.02879,-0.0719 0.04331,-0.14653 0.04331,-0.22382 0,-0.11503 -0.03217,-0.20081 -0.09628,-0.2571 -0.06273,-0.0563 -0.147202,-0.0844 -0.253306,-0.0844 -0.111237,0 -0.219123,0.0255 -0.323885,0.0767 -0.104761,0.0509 -0.213989,0.12375 -0.327911,0.21779 l -0.329693,-0.39068 c 0.141394,-0.12039 0.258439,-0.20549 0.351365,-0.25508 0.09292,-0.0498 0.194327,-0.0878 0.30423,-0.11393 0.109895,-0.0274 0.232977,-0.0413 0.369229,-0.0413 0.179148,0 0.337519,0.0328 0.475113,0.0983 0.137375,0.0654 0.243926,0.15703 0.319874,0.27475 0.07598,0.11794 0.113914,0.25263 0.113914,0.40452 0,0.13224 -0.02347,0.25643 -0.07058,0.37303 -0.04601,0.11504 -0.11794,0.23364 -0.215999,0.35538 -0.09694,0.12174 -0.268266,0.29508 -0.514421,0.52024 l -0.369017,0.34734 v 0.0277 h 1.250438 z"
         id="path316" />
      <g
         id="g1738"
         transform="translate(1.5434642)">
        <rect
           id="rect290"
           rx="0.44674391"
           height="7.100369"
           width="6.9031539"
           y="142.23688"
           x="67.997215"
           style="fill:#eaa356;stroke-width:0.22337195" />
        <rect
           id="rect292"
           rx="0.44674391"
           height="7.100369"
           width="6.9031539"
           y="142.23688"
           x="67.997215"
           style="fill:#eaa356;stroke-width:0.22337195" />
        <rect
           id="rect294"
           rx="0.44674391"
           height="7.100369"
           width="6.9031539"
           y="142.23688"
           x="67.997215"
           style="fill:#eaa356;stroke-width:0.22337195" />
        <path
           id="path496"
           d="m 72.497269,147.15106 h -0.418823 v -1.14992 h -1.176277 v 1.14992 h -0.417035 v -2.55136 h 0.417035 v 1.0436 h 1.176277 v -1.0436 h 0.418823 z"
           inkscape:connector-curvature="0"
           style="fill:#fafafa;stroke-width:0.22337195" />
      </g>
      <g
         id="g1732"
         transform="translate(-0.69531289)">
        <rect
           id="rect302"
           rx="0.44674391"
           height="7.100369"
           width="6.9031539"
           y="142.23688"
           x="58.409958"
           style="fill:#eaa356;stroke-width:0.22337195" />
        <rect
           id="rect304"
           rx="0.44674391"
           height="7.100369"
           width="6.9031539"
           y="142.23688"
           x="58.409958"
           style="fill:#eaa356;stroke-width:0.22337195" />
        <path
           id="path502"
           d="m 61.081711,145.78648 h 0.289712 c 0.194334,0 0.335058,-0.0362 0.422397,-0.10833 0.08712,-0.0722 0.130896,-0.17915 0.130896,-0.32099 0,-0.1443 -0.04713,-0.24795 -0.141394,-0.31072 -0.09426,-0.0627 -0.236105,-0.0943 -0.425747,-0.0943 h -0.275864 z m 0,0.34555 v 1.01903 h -0.417037 v -2.55136 h 0.720822 c 0.329251,0 0.572949,0.0616 0.731096,0.18495 0.158148,0.1233 0.237445,0.3096 0.237445,0.55843 0,0.31764 -0.165295,0.54391 -0.495662,0.67883 l 0.720598,1.12915 h -0.474666 l -0.610699,-1.01903 z m 2.521422,1.01903 h -0.914932 v -0.15815 l 0.609583,-0.85172 h -0.572503 v -0.19634 h 0.860429 v 0.1787 l -0.596626,0.83116 h 0.614049 z"
           inkscape:connector-curvature="0"
           style="fill:#fafafa;stroke-width:0.22337195" />
        <path
           id="path504"
           d="m 62.138483,144.20434 v -0.21824 h 0.56044 v 0.21824 z m 1.302258,0.30423 c 0.106102,0 0.182049,-0.0306 0.22784,-0.0916 0.04669,-0.0619 0.07059,-0.16553 0.07215,-0.31094 v -0.013 c 0,-0.14988 -0.02435,-0.25688 -0.07326,-0.32076 -0.04869,-0.0648 -0.124865,-0.0972 -0.228956,-0.0972 -0.188972,0 -0.283683,0.14071 -0.283683,0.42217 0,0.13737 0.02301,0.24034 0.0688,0.30869 0.04579,0.0684 0.118164,0.10254 0.217117,0.10254 z m -0.06232,0.20728 c -0.152562,0 -0.27229,-0.0545 -0.358734,-0.16373 -0.08578,-0.109 -0.128662,-0.26134 -0.128662,-0.45702 0,-0.20126 0.04423,-0.3565 0.133129,-0.46572 0.08935,-0.10901 0.21399,-0.16352 0.373925,-0.16352 0.08734,0 0.159264,0.0156 0.216,0.0469 0.05741,0.0306 0.105432,0.0759 0.144075,0.13626 h 0.01296 c 0.01965,-0.0703 0.04445,-0.1242 0.07416,-0.16128 h 0.207289 c -0.01965,0.0597 -0.03552,0.13626 -0.04803,0.23007 -0.01228,0.0932 -0.01854,0.17625 -0.01854,0.24974 v 0.40899 c 0,0.0415 0.008,0.073 0.02412,0.0949 0.01586,0.0219 0.03842,0.0326 0.06746,0.0326 0.02256,0 0.0449,-0.003 0.06657,-0.0107 v 0.19411 c -0.01162,0.007 -0.03195,0.0138 -0.06098,0.0197 -0.02837,0.006 -0.05361,0.009 -0.07528,0.009 -0.06903,0 -0.122631,-0.0143 -0.160382,-0.0426 -0.03775,-0.0284 -0.06612,-0.0748 -0.0851,-0.13961 h -0.01742 c -0.08354,0.12152 -0.205727,0.18227 -0.366554,0.18227 z"
           inkscape:connector-curvature="0"
           style="fill:#ffffff;stroke-width:0.22337195" />
      </g>
      <line
         id="line889"
         y2="159.63818"
         x2="35.088116"
         y1="155.10193"
         x1="35.088116"
         style="fill:none;stroke:#fafafa;stroke-width:0.44674391" />
      <line
         id="line891"
         y2="159.63818"
         x2="35.088116"
         y1="155.10193"
         x1="35.088116"
         style="fill:none;stroke:#fafafa;stroke-width:0.44674391" />
      <line
         id="line893"
         y2="159.63818"
         x2="35.088116"
         y1="155.10193"
         x1="35.088116"
         style="fill:none;stroke:#fafafa;stroke-width:0.44674391" />
      <path
         id="path895"
         d="m 36.245409,157.07409 h 2.564086"
         inkscape:connector-curvature="0"
         style="fill:none;stroke:#fafafa;stroke-width:0.44674391" />
      <path
         id="path897"
         d="m 36.245409,157.07409 h 2.564086"
         inkscape:connector-curvature="0"
         style="fill:none;stroke:#fafafa;stroke-width:0.44674391" />
      <path
         id="path899"
         d="m 37.626071,158.25752 v -2.56387"
         inkscape:connector-curvature="0"
         style="fill:none;stroke:#fafafa;stroke-width:0.44674391" />
      <path
         id="path901"
         d="m 37.626071,158.25752 v -2.56387"
         inkscape:connector-curvature="0"
         style="fill:none;stroke:#fafafa;stroke-width:0.44674391" />
      <path
         id="path903"
         d="m 39.598222,155.29918 1.282155,1.97215 -1.282155,2.16961"
         inkscape:connector-curvature="0"
         style="fill:none;stroke:#fafafa;stroke-width:0.44674391" />
      <path
         id="path905"
         d="m 39.598222,155.29918 1.282155,1.97215 -1.282155,2.16961"
         inkscape:connector-curvature="0"
         style="fill:none;stroke:#fafafa;stroke-width:0.44674391" />
      <path
         id="path909"
         d="M 43.542971,157.07409 H 91.470552"
         inkscape:connector-curvature="0"
         style="fill:none;stroke:#eaa356;stroke-width:0.44674391" />
      <path
         id="path911"
         d="m 90.582872,155.9894 1.084918,0.98618 -1.084918,1.18343"
         inkscape:connector-curvature="0"
         style="fill:none;stroke:#eaa356;stroke-width:0.44674391" />
      <path
         id="path913"
         d="m 94.863126,156.72071 c -0.126876,0 -0.2265,0.0406 -0.298426,0.12174 -0.07192,0.0798 -0.113249,0.19367 -0.123748,0.34154 h 0.840326 c -0.0027,-0.14787 -0.0411,-0.26179 -0.115706,-0.34154 -0.07461,-0.081 -0.175571,-0.12174 -0.302446,-0.12174 z m 0.08443,1.8493 c -0.353375,0 -0.629462,-0.0974 -0.828486,-0.29239 -0.199025,-0.195 -0.298426,-0.47131 -0.298426,-0.82849 0,-0.36789 0.09158,-0.65179 0.274971,-0.85217 0.184506,-0.20147 0.438927,-0.30222 0.763486,-0.30222 0.310263,0 0.551729,0.0882 0.724619,0.26493 0.172663,0.17668 0.259113,0.42082 0.259113,0.73243 v 0.29061 h -1.41551 c 0.0065,0.16999 0.05696,0.30289 0.151223,0.3985 0.09404,0.0954 0.226275,0.14318 0.396485,0.14318 0.132236,0 0.257101,-0.0136 0.375041,-0.0411 0.117718,-0.0274 0.240795,-0.0715 0.369011,-0.13157 v 0.46327 c -0.104762,0.0523 -0.216671,0.0909 -0.335728,0.11593 -0.119058,0.0262 -0.264249,0.0391 -0.435799,0.0391 z"
         inkscape:connector-curvature="0"
         style="fill:#fafafa;stroke-width:0.22337195"
         sodipodi:nodetypes="sccccsccscscscccscccccc" />
      <g
         id="g1762"
         transform="translate(2.5078934e-6)">
        <g
           transform="matrix(0.84424048,0,0,0.84424048,13.854181,16.969098)"
           id="g3446">
          <path
             inkscape:connector-curvature="0"
             style="fill:none;stroke:#eaa356;stroke-width:0.52916664"
             d="M 81.520816,152.26662 V 138.89717"
             id="path276-2"
             sodipodi:nodetypes="cc" />
        </g>
        <g
           id="g1574"
           transform="matrix(0.84424048,0,0,0.84424048,13.854181,28.256129)">
          <path
             style="fill:none;stroke:#eaa356;stroke-width:0.52916664"
             inkscape:connector-curvature="0"
             id="path915"
             d="m 80.14715,137.93004 2.803525,2.5699" />
          <path
             d="m 80.14715,140.49994 2.803525,-2.5699"
             id="path1570"
             inkscape:connector-curvature="0"
             style="fill:none;stroke:#eaa356;stroke-width:0.52916664" />
        </g>
        <g
           id="g1580"
           transform="matrix(0.84424048,0,0,0.84424048,13.854181,16.71808)">
          <path
             d="m 80.14715,137.93004 2.803525,2.5699"
             id="path1576"
             inkscape:connector-curvature="0"
             style="fill:none;stroke:#eaa356;stroke-width:0.52916664" />
          <path
             style="fill:none;stroke:#eaa356;stroke-width:0.52916664"
             inkscape:connector-curvature="0"
             id="path1578"
             d="m 80.14715,140.49994 2.803525,-2.5699" />
        </g>
      </g>
      <g
         transform="matrix(0.84424048,0,0,0.84424048,-17.389491,28.256129)"
         id="g1726">
        <path
           inkscape:connector-curvature="0"
           style="fill:none;stroke:#eaa356;stroke-width:0.52916664"
           d="M 81.520816,152.49048 V 138.89717"
           id="path923"
           sodipodi:nodetypes="cc" />
        <g
           id="g1586"
           transform="translate(0,13.36945)">
          <path
             style="fill:none;stroke:#eaa356;stroke-width:0.52916664"
             inkscape:connector-curvature="0"
             id="path1582"
             d="m 80.14715,137.93004 2.803525,2.5699" />
          <path
             d="m 80.14715,140.49994 2.803525,-2.5699"
             id="path1584"
             inkscape:connector-curvature="0"
             style="fill:none;stroke:#eaa356;stroke-width:0.52916664" />
        </g>
        <g
           transform="translate(-0.0280965)"
           id="g1717">
          <path
             d="m 80.14715,137.93004 2.803525,2.5699"
             id="path1713"
             inkscape:connector-curvature="0"
             style="fill:none;stroke:#eaa356;stroke-width:0.52916664" />
          <path
             style="fill:none;stroke:#eaa356;stroke-width:0.52916664"
             inkscape:connector-curvature="0"
             id="path1715"
             d="m 80.14715,140.49994 2.803525,-2.5699" />
        </g>
      </g>
      <path
         id="path22044"
         d="m 98.105087,156.48082 c 0,0.16537 -0.05001,0.3056 -0.150019,0.42149 -0.100012,0.11562 -0.240506,0.19526 -0.421481,0.23865 v 0.0109 c 0.213519,0.0267 0.374915,0.0918 0.484717,0.19552 0.109802,0.1024 0.16457,0.24104 0.16457,0.41593 0,0.25426 -0.09207,0.4527 -0.276754,0.59505 -0.184414,0.14102 -0.447939,0.21166 -0.79031,0.21166 -0.287073,0 -0.541338,-0.0476 -0.763323,-0.14287 v -0.47572 c 0.102658,0.0519 0.215371,0.0939 0.338137,0.12647 0.123032,0.0325 0.245005,0.0489 0.36539,0.0489 0.184679,0 0.32094,-0.0315 0.408781,-0.0942 0.08811,-0.0627 0.132027,-0.16325 0.132027,-0.30189 0,-0.12436 -0.05053,-0.2122 -0.15187,-0.26406 -0.101336,-0.0519 -0.262732,-0.0778 -0.484717,-0.0778 h -0.200819 v -0.42862 h 0.204523 c 0.204788,0 0.354542,-0.0267 0.448469,-0.0796 0.09525,-0.0542 0.142875,-0.14658 0.142875,-0.27675 0,-0.20003 -0.125413,-0.30031 -0.376238,-0.30031 -0.08678,0 -0.175418,0.0146 -0.265906,0.0434 -0.08916,0.0291 -0.188648,0.0791 -0.29845,0.15029 l -0.258498,-0.38524 c 0.241036,-0.17383 0.528638,-0.26061 0.862806,-0.26061 0.27358,0 0.48948,0.0556 0.647436,0.16642 0.159014,0.11086 0.238654,0.26538 0.238654,0.46302 z"
         inkscape:connector-curvature="0"
         style="fill:#ffffff;stroke-width:0.26458332" />
    </g>
  </g>
</svg>
