<?xml version="1.0" encoding="UTF-8" standalone="no"?>
<!-- Created with Inkscape (http://www.inkscape.org/) -->

<svg
   xmlns:dc="http://purl.org/dc/elements/1.1/"
   xmlns:cc="http://creativecommons.org/ns#"
   xmlns:rdf="http://www.w3.org/1999/02/22-rdf-syntax-ns#"
   xmlns:svg="http://www.w3.org/2000/svg"
   xmlns="http://www.w3.org/2000/svg"
   xmlns:sodipodi="http://sodipodi.sourceforge.net/DTD/sodipodi-0.dtd"
   xmlns:inkscape="http://www.inkscape.org/namespaces/inkscape"
   width="386"
   height="113"
   viewBox="0 0 102.12916 29.897918"
   version="1.1"
   id="svg2705"
   inkscape:version="0.92.5 (2060ec1f9f, 2020-04-08)"
   sodipodi:docname="qm_d1_blue.svg">
  <defs
     id="defs2699" />
  <sodipodi:namedview
     id="base"
     pagecolor="#ffffff"
     bordercolor="#666666"
     borderopacity="1.0"
     inkscape:pageopacity="0.0"
     inkscape:pageshadow="2"
     inkscape:zoom="3.959798"
     inkscape:cx="78.046423"
     inkscape:cy="22.113167"
     inkscape:document-units="mm"
     inkscape:current-layer="g1385"
     showgrid="false"
     units="px"
     inkscape:window-width="1366"
     inkscape:window-height="704"
     inkscape:window-x="0"
     inkscape:window-y="27"
     inkscape:window-maximized="1" />
  <metadata
     id="metadata2702">
    <rdf:RDF>
      <cc:Work
         rdf:about="">
        <dc:format>image/svg+xml</dc:format>
        <dc:type
           rdf:resource="http://purl.org/dc/dcmitype/StillImage" />
        <dc:title />
      </cc:Work>
    </rdf:RDF>
  </metadata>
  <g
     inkscape:label="Layer 1"
     inkscape:groupmode="layer"
     id="layer1"
     transform="translate(0,-267.10207)">
    <g
       id="g3401"
       transform="translate(-15.459226,136.2415)">
      <g
         transform="translate(-6.4356503,6.8918681)"
         id="g1004"
         style="stroke:none">
        <g
           id="g1051">
          <g
             id="g1385"
             transform="translate(0,6.8020763)">
            <path
               d="m 43.185433,132.1127 h 45.07376"
               id="path426"
               inkscape:connector-curvature="0"
               style="fill:none;stroke:#2677b2;stroke-width:0.57890034;stroke-opacity:1" />
            <path
               d="m 46.595157,130.81307 1.839165,1.27648 -1.839165,1.53409"
               id="path432"
               inkscape:connector-curvature="0"
               style="fill:none;stroke:#2677b2;stroke-width:0.57890034;stroke-opacity:1" />
            <rect
               x="54.927559"
               y="127.91856"
               width="23.104115"
               height="8.3940554"
               rx="0.57890034"
               id="rect434"
               style="fill:#eaa356;stroke-width:0.28945017" />
            <rect
               x="54.927559"
               y="127.91856"
               width="23.104115"
               height="8.3940554"
               rx="0.57890034"
               id="rect436"
               style="fill:#eaa356;stroke-width:0.28945017" />
            <rect
               x="54.927559"
               y="127.91856"
               width="23.104115"
               height="8.3940554"
               rx="0.57890034"
               id="rect438"
               style="fill:#2677b2;stroke-width:0.28945017;fill-opacity:1" />
            <path
               d="m 87.879435,135.29955 v -6.22318 c 2.588263,0 7.385608,0.72362 7.575195,2.89451 0.189303,2.17087 -5.113422,3.18394 -7.575195,3.32867 z"
               id="path446"
               inkscape:connector-curvature="0"
               style="fill:#eaa356;stroke-width:0.28945017" />
            <path
               d="m 87.879435,135.29955 v -6.22318 c 2.588263,0 7.385608,0.72362 7.575195,2.89451 0.189303,2.17087 -5.113422,3.18394 -7.575195,3.32867 z"
               id="path448"
               inkscape:connector-curvature="0"
               style="fill:#2677b2;stroke-width:0.28945017;fill-opacity:1" />
            <path
               d="m 39.326484,133.12868 h -0.786147 v -2.15351 l 0.0078,-0.35313 0.01273,-0.38497 c -0.130541,0.13026 -0.221429,0.2142 -0.272372,0.25472 l -0.427229,0.34444 -0.379179,-0.4718 1.198323,-0.95518 h 0.646053 z"
               id="path454"
               inkscape:connector-curvature="0"
               style="fill:#fafafa;stroke-width:0.28945017"
               sodipodi:nodetypes="ccccccccccc" />
            <path
               d="m 57.957812,129.94472 v 4.19703"
               id="path458"
               inkscape:connector-curvature="0"
               style="fill:none;stroke:#fafafa;stroke-width:0.14472508" />
            <path
               d="m 75.380397,129.94472 v 4.19703"
               id="path460"
               inkscape:connector-curvature="0"
               style="fill:none;stroke:#fafafa;stroke-width:0.14472508" />
            <path
               d="m 61.021931,133.41812 h -1.870137 v -3.30552 h 1.870137 v 0.45733 h -1.329733 v 0.9002 h 1.246083 v 0.45154 h -1.246083 v 1.03623 h 1.329733 z m 1.382704,0 h -0.331999 v -1.33436 c 0,-0.1592 0.0037,-0.28655 0.01129,-0.37918 -0.0217,0.0232 -0.04863,0.0492 -0.08076,0.0753 -0.03097,0.029 -0.13662,0.11289 -0.316369,0.26051 l -0.167012,-0.2113 0.607845,-0.47759 h 0.277003 z"
               id="path464"
               inkscape:connector-curvature="0"
               style="fill:#fafafa;stroke-width:0.28945017" />
            <path
               d="m 71.627097,133.41812 h -1.870138 v -3.30552 h 1.870138 v 0.45733 h -1.329735 v 0.9002 h 1.246084 v 0.45154 h -1.246084 v 1.03623 h 1.329735 z m 1.382704,0 h -0.33229 v -1.33436 c 0,-0.1592 0.004,-0.28655 0.01158,-0.37918 -0.0217,0.0232 -0.04863,0.0492 -0.08076,0.0753 -0.03097,0.029 -0.136621,0.11289 -0.31666,0.26051 l -0.166723,-0.2113 0.607845,-0.47759 h 0.277005 z"
               id="path466"
               inkscape:connector-curvature="0"
               style="fill:#fafafa;stroke-width:0.28945017" />
            <path
               d="m 64.01803,129.94472 1.514983,2.06668 -1.514983,2.27507"
               id="path468"
               inkscape:connector-curvature="0"
               style="fill:none;stroke:#fafafa;stroke-width:0.14472508" />
            <path
               d="m 64.01803,129.94472 1.514983,2.06668 -1.514983,2.27507"
               id="path470"
               inkscape:connector-curvature="0"
               style="fill:none;stroke:#fafafa;stroke-width:0.14472508" />
            <path
               d="m 68.184087,129.94472 -1.514982,2.06668 1.514982,2.27507"
               id="path472"
               inkscape:connector-curvature="0"
               style="fill:none;stroke:#fafafa;stroke-width:0.14472508" />
            <path
               d="m 68.184087,129.94472 -1.514982,2.06668 1.514982,2.27507"
               id="path474"
               inkscape:connector-curvature="0"
               style="fill:none;stroke:#fafafa;stroke-width:0.14472508" />
          </g>
        </g>
      </g>
    </g>
  </g>
</svg>
