<?xml version="1.0" encoding="UTF-8" standalone="no"?>
<!-- Created with Inkscape (http://www.inkscape.org/) -->

<svg
   xmlns:dc="http://purl.org/dc/elements/1.1/"
   xmlns:cc="http://creativecommons.org/ns#"
   xmlns:rdf="http://www.w3.org/1999/02/22-rdf-syntax-ns#"
   xmlns:svg="http://www.w3.org/2000/svg"
   xmlns="http://www.w3.org/2000/svg"
   xmlns:sodipodi="http://sodipodi.sourceforge.net/DTD/sodipodi-0.dtd"
   xmlns:inkscape="http://www.inkscape.org/namespaces/inkscape"
   width="386"
   height="113"
   viewBox="0 0 102.12916 29.897918"
   version="1.1"
   id="svg2705"
   inkscape:version="0.92.5 (2060ec1f9f, 2020-04-08)"
   sodipodi:docname="qm_d3.svg">
  <defs
     id="defs2699" />
  <sodipodi:namedview
     id="base"
     pagecolor="#ffffff"
     bordercolor="#666666"
     borderopacity="1.0"
     inkscape:pageopacity="0.0"
     inkscape:pageshadow="2"
     inkscape:zoom="0.9899495"
     inkscape:cx="221.89665"
     inkscape:cy="-64.252058"
     inkscape:document-units="mm"
     inkscape:current-layer="g3401"
     showgrid="false"
     units="px"
     inkscape:window-width="1366"
     inkscape:window-height="704"
     inkscape:window-x="0"
     inkscape:window-y="27"
     inkscape:window-maximized="1" />
  <metadata
     id="metadata2702">
    <rdf:RDF>
      <cc:Work
         rdf:about="">
        <dc:format>image/svg+xml</dc:format>
        <dc:type
           rdf:resource="http://purl.org/dc/dcmitype/StillImage" />
        <dc:title></dc:title>
      </cc:Work>
    </rdf:RDF>
  </metadata>
  <g
     inkscape:label="Layer 1"
     inkscape:groupmode="layer"
     id="layer1"
     transform="translate(0,-267.10207)">
    <g
       id="g3401"
       transform="translate(-15.459226,136.2415)">
      <g
         style="stroke:none"
         id="g1249"
         transform="matrix(0.92896719,0,0,0.92896719,-10.170697,-19.009779)">
        <g
           id="g1789"
           transform="translate(0,-1.0864811e-6)">
          <path
             id="path314"
             d="m 35.907225,176.5679 c -0.126876,0 -0.2265,0.0406 -0.298426,0.12174 -0.07192,0.0799 -0.113249,0.19366 -0.123748,0.34176 h 0.840326 c -0.0027,-0.1481 -0.0411,-0.26179 -0.115706,-0.34176 -0.07461,-0.0811 -0.175571,-0.12174 -0.302446,-0.12174 z m 0.08443,1.84952 c -0.353375,0 -0.629462,-0.0976 -0.828486,-0.29262 -0.199025,-0.19501 -0.298426,-0.47109 -0.298426,-0.82849 0,-0.36767 0.09158,-0.6518 0.274971,-0.85194 0.184506,-0.20171 0.438927,-0.30244 0.763486,-0.30244 0.310263,0 0.551729,0.0884 0.724619,0.26514 0.172663,0.17668 0.259113,0.42061 0.259113,0.73221 v 0.29061 h -1.41551 c 0.0065,0.16998 0.05696,0.30289 0.151223,0.39849 0.09404,0.0956 0.226275,0.14341 0.396485,0.14341 0.132236,0 0.257101,-0.0139 0.375041,-0.0413 0.117718,-0.0274 0.240795,-0.0712 0.369011,-0.13156 v 0.46327 c -0.104762,0.0525 -0.216671,0.0911 -0.335728,0.11593 -0.119058,0.0262 -0.264249,0.0393 -0.435799,0.0393 z m 2.728934,-0.0393 h -0.60668 v -1.66099 l 0.0059,-0.27275 0.0098,-0.29842 c -0.100735,0.10075 -0.170655,0.16686 -0.209963,0.19814 l -0.329937,0.26514 -0.292394,-0.36522 0.924536,-0.73623 h 0.498786 z"
             inkscape:connector-curvature="0"
             style="fill:#fafafa;stroke-width:0.22337195"
             transform="matrix(1.0764643,0,0,1.0764643,10.948392,-23.944538)" />
          <path
             style="fill:none;stroke:#eaa356;stroke-width:0.52916664"
             inkscape:connector-curvature="0"
             id="path426"
             d="M 56.573441,166.70576 H 97.774887" />
          <path
             style="fill:none;stroke:#eaa356;stroke-width:0.52916664"
             inkscape:connector-curvature="0"
             id="path432"
             d="m 59.690233,165.4283 1.681162,1.16682 -1.681162,1.40229" />
          <rect
             style="fill:#eaa356;stroke-width:0.26458332"
             id="rect434"
             rx="0.52916664"
             height="7.6729169"
             width="21.119226"
             y="162.87193"
             x="67.306793" />
          <rect
             style="fill:#eaa356;stroke-width:0.26458332"
             id="rect436"
             rx="0.52916664"
             height="7.6729169"
             width="21.119226"
             y="162.87193"
             x="67.306793" />
          <rect
             style="fill:#eaa356;stroke-width:0.26458332"
             id="rect438"
             rx="0.52916664"
             height="7.6729169"
             width="21.119226"
             y="162.87193"
             x="67.306793" />
          <path
             style="fill:#eaa356;stroke-width:0.26458332"
             inkscape:connector-curvature="0"
             id="path446"
             d="m 97.427754,169.61883 v -5.68855 c 2.365904,0 6.751106,0.66146 6.924406,2.64584 0.17304,1.98437 -4.674125,2.91041 -6.924406,3.04271 z" />
          <path
             style="fill:#eaa356;stroke-width:0.26458332"
             inkscape:connector-curvature="0"
             id="path448"
             d="m 97.427754,169.61883 v -5.68855 c 2.365904,0 6.751106,0.66146 6.924406,2.64584 0.17304,1.98437 -4.674125,2.91041 -6.924406,3.04271 z" />
          <path
             style="fill:none;stroke:#fafafa;stroke-width:0.13229166"
             inkscape:connector-curvature="0"
             id="path458"
             d="m 70.076716,164.72403 v 3.83646" />
          <path
             style="fill:none;stroke:#fafafa;stroke-width:0.13229166"
             inkscape:connector-curvature="0"
             id="path460"
             d="m 86.002516,164.72403 v 3.83646" />
          <path
             style="fill:#fafafa;stroke-width:0.26458332"
             inkscape:connector-curvature="0"
             id="path464"
             d="m 72.877595,167.89903 h -1.709473 v -3.02154 h 1.709473 v 0.41804 H 71.6621 v 0.82286 h 1.139031 v 0.41275 H 71.6621 v 0.94721 h 1.215495 z m 1.263915,0 h -0.303477 v -1.21972 c 0,-0.14553 0.0034,-0.26194 0.01032,-0.34661 -0.01984,0.0212 -0.04445,0.045 -0.07382,0.0688 -0.02831,0.0265 -0.124883,0.10319 -0.28919,0.23813 l -0.152664,-0.19315 0.555625,-0.43656 h 0.253206 z" />
          <path
             style="fill:#fafafa;stroke-width:0.26458332"
             inkscape:connector-curvature="0"
             id="path466"
             d="m 82.571664,167.89903 h -1.709473 v -3.02154 h 1.709473 v 0.41804 h -1.215496 v 0.82286 H 82.4952 v 0.41275 h -1.139032 v 0.94721 h 1.215496 z m 1.263915,0 h -0.303742 v -1.21972 c 0,-0.14553 0.0037,-0.26194 0.01058,-0.34661 -0.01984,0.0212 -0.04445,0.045 -0.07382,0.0688 -0.02831,0.0265 -0.124884,0.10319 -0.289455,0.23813 l -0.1524,-0.19315 0.555625,-0.43656 h 0.253207 z" />
          <path
             style="fill:none;stroke:#fafafa;stroke-width:0.13229166"
             inkscape:connector-curvature="0"
             id="path468"
             d="m 75.616297,164.72403 1.38483,1.88913 -1.38483,2.07962" />
          <path
             style="fill:none;stroke:#fafafa;stroke-width:0.13229166"
             inkscape:connector-curvature="0"
             id="path470"
             d="m 75.616297,164.72403 1.38483,1.88913 -1.38483,2.07962" />
          <path
             style="fill:none;stroke:#fafafa;stroke-width:0.13229166"
             inkscape:connector-curvature="0"
             id="path472"
             d="m 79.424445,164.72403 -1.384829,1.88913 1.384829,2.07962" />
          <path
             style="fill:none;stroke:#fafafa;stroke-width:0.13229166"
             inkscape:connector-curvature="0"
             id="path474"
             d="m 79.424445,164.72403 -1.384829,1.88913 1.384829,2.07962" />
        </g>
        <g
           id="g1770"
           transform="translate(0,-1.7217032)">
          <path
             id="path316"
             d="m 35.907225,188.00744 c -0.126876,0 -0.2265,0.0406 -0.298426,0.12174 -0.07192,0.0798 -0.113249,0.19367 -0.123748,0.34154 h 0.840326 c -0.0027,-0.14787 -0.0411,-0.26179 -0.115706,-0.34154 -0.07461,-0.0811 -0.175571,-0.12174 -0.302446,-0.12174 z m 0.08443,1.8493 c -0.353375,0 -0.629462,-0.0974 -0.828486,-0.29239 -0.199025,-0.195 -0.298426,-0.47132 -0.298426,-0.82849 0,-0.36789 0.09158,-0.65179 0.274971,-0.85217 0.184506,-0.20147 0.438927,-0.30222 0.763486,-0.30222 0.310263,0 0.551729,0.0882 0.724619,0.26492 0.172663,0.17669 0.259113,0.42083 0.259113,0.73244 v 0.29061 h -1.41551 c 0.0065,0.16998 0.05696,0.30289 0.151223,0.3985 0.09404,0.0954 0.226275,0.14318 0.396485,0.14318 0.132236,0 0.257101,-0.0136 0.375041,-0.0411 0.117718,-0.0274 0.240795,-0.0715 0.369011,-0.13156 v 0.46327 c -0.104762,0.0522 -0.216671,0.0909 -0.335728,0.11593 -0.119058,0.0262 -0.264249,0.0391 -0.435799,0.0391 z m 3.235318,-0.0391 h -2.006321 v -0.42217 l 0.720374,-0.72842 c 0.213542,-0.21845 0.352926,-0.36968 0.418371,-0.45344 0.06543,-0.0851 0.11236,-0.16351 0.141174,-0.23566 0.02879,-0.0719 0.04331,-0.14653 0.04331,-0.22382 0,-0.11503 -0.03217,-0.20081 -0.09628,-0.2571 -0.06273,-0.0563 -0.147202,-0.0844 -0.253306,-0.0844 -0.111237,0 -0.219123,0.0255 -0.323885,0.0767 -0.104761,0.0509 -0.213989,0.12375 -0.327911,0.21779 l -0.329693,-0.39068 c 0.141394,-0.12039 0.258439,-0.20549 0.351365,-0.25508 0.09292,-0.0498 0.194327,-0.0878 0.30423,-0.11393 0.109895,-0.0274 0.232977,-0.0413 0.369229,-0.0413 0.179148,0 0.337519,0.0328 0.475113,0.0983 0.137375,0.0654 0.243926,0.15703 0.319874,0.27475 0.07598,0.11794 0.113914,0.25263 0.113914,0.40452 0,0.13224 -0.02347,0.25643 -0.07058,0.37303 -0.04601,0.11504 -0.11794,0.23364 -0.215999,0.35538 -0.09694,0.12174 -0.268266,0.29508 -0.514421,0.52024 l -0.369017,0.34734 v 0.0277 h 1.250438 z"
             inkscape:connector-curvature="0"
             style="fill:#fafafa;stroke-width:0.22337195"
             transform="matrix(1.0764643,0,0,1.0764643,10.948392,-23.944538)" />
          <path
             style="fill:none;stroke:#eaa356;stroke-width:0.52916664"
             inkscape:connector-curvature="0"
             id="path428"
             d="M 56.574235,179.5407 H 97.775416" />
          <path
             style="fill:none;stroke:#eaa356;stroke-width:0.52916664"
             inkscape:connector-curvature="0"
             id="path430"
             d="m 59.690233,178.26324 1.681162,1.16681 -1.681162,1.40229" />
          <rect
             style="fill:#eaa356;stroke-width:0.26458332"
             id="rect440"
             rx="0.52916664"
             height="7.6729169"
             width="21.119226"
             y="175.30734"
             x="67.306793" />
          <rect
             style="fill:#eaa356;stroke-width:0.26458332"
             id="rect442"
             rx="0.52916664"
             height="7.6729169"
             width="21.119226"
             y="175.30734"
             x="67.306793" />
          <rect
             style="fill:#eaa356;stroke-width:0.26458332"
             id="rect444"
             rx="0.52916664"
             height="7.6729169"
             width="21.119226"
             y="175.30734"
             x="67.306793" />
          <path
             style="fill:#eaa356;stroke-width:0.26458332"
             inkscape:connector-curvature="0"
             id="path450"
             d="m 97.427754,182.31883 v -5.68855 c 2.365904,0 6.751106,0.66146 6.924406,2.64584 0.17304,1.98437 -4.674125,2.91041 -6.924406,3.04271 z" />
          <path
             style="fill:#eaa356;stroke-width:0.26458332"
             inkscape:connector-curvature="0"
             id="path452"
             d="m 97.427754,182.31883 v -5.68855 c 2.365904,0 6.751106,0.66146 6.924406,2.64584 0.17304,1.98437 -4.674125,2.91041 -6.924406,3.04271 z" />
          <path
             style="fill:none;stroke:#fafafa;stroke-width:0.13229166"
             inkscape:connector-curvature="0"
             id="path462"
             d="m 70.076716,177.68862 v 3.83646" />
          <path
             style="fill:none;stroke:#fafafa;stroke-width:0.13229166"
             inkscape:connector-curvature="0"
             id="path476"
             d="m 70.076716,177.68862 v 3.83646" />
          <path
             style="fill:none;stroke:#fafafa;stroke-width:0.13229166"
             inkscape:connector-curvature="0"
             id="path478"
             d="m 86.002516,177.68862 v 3.83646" />
          <path
             style="fill:#fafafa;stroke-width:0.26458332"
             inkscape:connector-curvature="0"
             id="path480"
             d="m 72.877595,180.86362 h -1.709473 v -3.02154 h 1.709473 v 0.41804 H 71.6621 v 0.82285 h 1.139031 v 0.41275 H 71.6621 v 0.94721 h 1.215495 z m 1.652852,0 h -1.280318 v -0.23019 l 0.487098,-0.48948 c 0.143668,-0.14817 0.238918,-0.25135 0.285485,-0.31221 0.04736,-0.0635 0.08176,-0.12171 0.103188,-0.17462 0.0217,-0.0556 0.03254,-0.11377 0.03254,-0.17463 0,-0.0847 -0.02593,-0.15346 -0.07752,-0.20108 -0.05106,-0.0503 -0.121443,-0.0741 -0.211931,-0.0741 -0.0725,0 -0.14261,0.0132 -0.210608,0.0397 -0.0672,0.0265 -0.145256,0.0741 -0.233892,0.14552 l -0.164042,-0.20108 c 0.10504,-0.0873 0.207169,-0.15081 0.306123,-0.18785 0.09922,-0.037 0.204523,-0.0556 0.316442,-0.0556 0.175948,0 0.316706,0.045 0.42254,0.13759 0.106098,0.0926 0.159014,0.21431 0.159014,0.37041 0,0.0847 -0.01561,0.16669 -0.04657,0.24342 -0.03016,0.0767 -0.07699,0.15346 -0.140759,0.23548 -0.06297,0.082 -0.16801,0.19315 -0.315383,0.33073 l -0.328083,0.3175 v 0.0132 h 0.896672 z" />
          <path
             style="fill:#fafafa;stroke-width:0.26458332"
             inkscape:connector-curvature="0"
             id="path482"
             d="m 82.571664,180.86362 h -1.709473 v -3.02154 h 1.709473 v 0.41804 h -1.215496 v 0.82285 H 82.4952 v 0.41275 h -1.139032 v 0.94721 h 1.215496 z m 1.652852,0 h -1.280319 v -0.23019 l 0.487098,-0.48948 c 0.143669,-0.14817 0.238919,-0.25135 0.285486,-0.31221 0.04736,-0.0635 0.08176,-0.12171 0.103187,-0.17462 0.0217,-0.0556 0.03228,-0.11377 0.03228,-0.17463 0,-0.0847 -0.02566,-0.15346 -0.07752,-0.20108 -0.0508,-0.0503 -0.121444,-0.0741 -0.211667,-0.0741 -0.0725,0 -0.142611,0.0132 -0.210608,0.0397 -0.0672,0.0265 -0.145257,0.0741 -0.233892,0.14552 l -0.164042,-0.20108 c 0.10504,-0.0873 0.207169,-0.15081 0.306123,-0.18785 0.09895,-0.037 0.204523,-0.0556 0.316442,-0.0556 0.175683,0 0.316706,0.045 0.422539,0.13759 0.105834,0.0926 0.159015,0.21431 0.159015,0.37041 0,0.0847 -0.01561,0.16669 -0.04657,0.24342 -0.03016,0.0767 -0.07699,0.15346 -0.140758,0.23548 -0.06297,0.082 -0.16801,0.19315 -0.315383,0.33073 l -0.328084,0.3175 v 0.0132 h 0.896673 z" />
          <path
             style="fill:none;stroke:#fafafa;stroke-width:0.13229166"
             inkscape:connector-curvature="0"
             id="path484"
             d="m 75.616297,177.68862 1.38483,1.88912 -1.38483,2.07963" />
          <path
             style="fill:none;stroke:#fafafa;stroke-width:0.13229166"
             inkscape:connector-curvature="0"
             id="path486"
             d="m 75.616297,177.68862 1.38483,1.88912 -1.38483,2.07963" />
          <path
             style="fill:none;stroke:#fafafa;stroke-width:0.13229166"
             inkscape:connector-curvature="0"
             id="path488"
             d="m 79.424445,177.68862 -1.384829,1.88912 1.384829,2.07963" />
          <path
             style="fill:none;stroke:#fafafa;stroke-width:0.13229166"
             inkscape:connector-curvature="0"
             id="path490"
             d="m 79.424445,177.68862 -1.384829,1.88912 1.384829,2.07963" />
        </g>
        <g
           id="g1750"
           transform="translate(0,-2.848145)">
          <path
             sodipodi:nodetypes="sccccsccscscscccscccccc"
             style="fill:#fafafa;stroke-width:0.22337195"
             inkscape:connector-curvature="0"
             d="m 35.907225,199.29447 c -0.126876,0 -0.2265,0.0406 -0.298426,0.12174 -0.07192,0.0798 -0.113249,0.19367 -0.123748,0.34154 h 0.840326 c -0.0027,-0.14787 -0.0411,-0.26179 -0.115706,-0.34154 -0.07461,-0.081 -0.175571,-0.12174 -0.302446,-0.12174 z m 0.08443,1.8493 c -0.353375,0 -0.629462,-0.0974 -0.828486,-0.29239 -0.199025,-0.195 -0.298426,-0.47131 -0.298426,-0.82849 0,-0.36789 0.09158,-0.65179 0.274971,-0.85217 0.184506,-0.20147 0.438927,-0.30222 0.763486,-0.30222 0.310263,0 0.551729,0.0882 0.724619,0.26493 0.172663,0.17668 0.259113,0.42082 0.259113,0.73243 v 0.29061 h -1.41551 c 0.0065,0.16999 0.05696,0.30289 0.151223,0.3985 0.09404,0.0954 0.226275,0.14318 0.396485,0.14318 0.132236,0 0.257101,-0.0136 0.375041,-0.0411 0.117718,-0.0274 0.240795,-0.0715 0.369011,-0.13157 v 0.46327 c -0.104762,0.0523 -0.216671,0.0909 -0.335728,0.11593 -0.119058,0.0262 -0.264249,0.0391 -0.435799,0.0391 z"
             id="path913"
             transform="matrix(1.0764643,0,0,1.0764643,10.948392,-23.944538)" />
          <path
             style="fill:#ffffff;stroke-width:0.26458332"
             inkscape:connector-curvature="0"
             d="m 39.149186,199.05458 c 0,0.16537 -0.05001,0.3056 -0.150019,0.42149 -0.100012,0.11562 -0.240506,0.19526 -0.421481,0.23865 v 0.0109 c 0.213519,0.0267 0.374915,0.0918 0.484717,0.19552 0.109802,0.1024 0.16457,0.24104 0.16457,0.41593 0,0.25426 -0.09207,0.4527 -0.276754,0.59505 -0.184414,0.14102 -0.447939,0.21166 -0.79031,0.21166 -0.287073,0 -0.541338,-0.0476 -0.763323,-0.14287 v -0.47572 c 0.102658,0.0519 0.215371,0.0939 0.338137,0.12647 0.123032,0.0325 0.245005,0.0489 0.36539,0.0489 0.184679,0 0.32094,-0.0315 0.408781,-0.0942 0.08811,-0.0627 0.132027,-0.16325 0.132027,-0.30189 0,-0.12436 -0.05053,-0.2122 -0.15187,-0.26406 -0.101336,-0.0519 -0.262732,-0.0778 -0.484717,-0.0778 h -0.200819 v -0.42862 h 0.204523 c 0.204788,0 0.354542,-0.0267 0.448469,-0.0796 0.09525,-0.0542 0.142875,-0.14658 0.142875,-0.27675 0,-0.20003 -0.125413,-0.30031 -0.376238,-0.30031 -0.08678,0 -0.175418,0.0146 -0.265906,0.0434 -0.08916,0.0291 -0.188648,0.0791 -0.29845,0.15029 l -0.258498,-0.38524 c 0.241036,-0.17383 0.528638,-0.26061 0.862806,-0.26061 0.27358,0 0.48948,0.0556 0.647436,0.16642 0.159014,0.11086 0.238654,0.26538 0.238654,0.46302 z"
             id="path22044"
             transform="matrix(1.0764643,0,0,1.0764643,10.948392,-23.944538)" />
          <g
             transform="translate(0,-2.5893549)"
             id="g1719">
            <path
               style="fill:none;stroke:#eaa356;stroke-width:0.52916664"
               inkscape:connector-curvature="0"
               id="path1069"
               d="M 56.574235,193.97019 H 97.775416" />
            <path
               style="fill:none;stroke:#eaa356;stroke-width:0.52916664"
               inkscape:connector-curvature="0"
               id="path1071"
               d="m 59.690233,192.69273 1.681162,1.16681 -1.681162,1.40229" />
            <rect
               style="fill:#eaa356;stroke-width:0.26458332"
               id="rect1073"
               rx="0.52916664"
               height="7.6729169"
               width="21.119226"
               y="189.73685"
               x="67.306793" />
            <rect
               style="fill:#eaa356;stroke-width:0.26458332"
               id="rect1075"
               rx="0.52916664"
               height="7.6729169"
               width="21.119226"
               y="189.73685"
               x="67.306793" />
            <rect
               style="fill:#eaa356;stroke-width:0.26458332"
               id="rect1077"
               rx="0.52916664"
               height="7.6729169"
               width="21.119226"
               y="189.73685"
               x="67.306793" />
            <path
               style="fill:#eaa356;stroke-width:0.26458332"
               inkscape:connector-curvature="0"
               id="path1079"
               d="m 97.427754,196.74832 v -5.68855 c 2.365904,0 6.751106,0.66146 6.924406,2.64584 0.17304,1.98437 -4.674125,2.91041 -6.924406,3.04271 z" />
            <path
               style="fill:#eaa356;stroke-width:0.26458332"
               inkscape:connector-curvature="0"
               id="path1081"
               d="m 97.427754,196.74832 v -5.68855 c 2.365904,0 6.751106,0.66146 6.924406,2.64584 0.17304,1.98437 -4.674125,2.91041 -6.924406,3.04271 z" />
            <path
               style="fill:none;stroke:#fafafa;stroke-width:0.13229166"
               inkscape:connector-curvature="0"
               id="path1083"
               d="m 70.076716,192.11811 v 3.83646" />
            <path
               style="fill:none;stroke:#fafafa;stroke-width:0.13229166"
               inkscape:connector-curvature="0"
               id="path1085"
               d="m 70.076716,192.11811 v 3.83646" />
            <path
               style="fill:none;stroke:#fafafa;stroke-width:0.13229166"
               inkscape:connector-curvature="0"
               id="path1087"
               d="m 86.002516,192.11811 v 3.83646" />
            <path
               style="fill:#fafafa;stroke-width:0.26458332"
               inkscape:connector-curvature="0"
               id="path1089"
               d="m 72.877595,195.29311 h -1.709473 v -3.02154 h 1.709473 v 0.41804 H 71.6621 v 0.82285 h 1.139031 v 0.41275 H 71.6621 v 0.94721 h 1.215495 z"
               sodipodi:nodetypes="ccccccccccccc" />
            <path
               style="fill:#fafafa;stroke-width:0.26458332"
               inkscape:connector-curvature="0"
               id="path1091"
               d="m 82.571664,195.29311 h -1.709473 v -3.02154 h 1.709473 v 0.41804 h -1.215496 v 0.82285 H 82.4952 v 0.41275 h -1.139032 v 0.94721 h 1.215496 z"
               sodipodi:nodetypes="ccccccccccccc" />
            <path
               style="fill:none;stroke:#fafafa;stroke-width:0.13229166"
               inkscape:connector-curvature="0"
               id="path1093"
               d="m 75.616297,192.11811 1.38483,1.88912 -1.38483,2.07963" />
            <path
               style="fill:none;stroke:#fafafa;stroke-width:0.13229166"
               inkscape:connector-curvature="0"
               id="path1095"
               d="m 75.616297,192.11811 1.38483,1.88912 -1.38483,2.07963" />
            <path
               style="fill:none;stroke:#fafafa;stroke-width:0.13229166"
               inkscape:connector-curvature="0"
               id="path1097"
               d="m 79.424445,192.11811 -1.384829,1.88912 1.384829,2.07963" />
            <path
               style="fill:none;stroke:#fafafa;stroke-width:0.13229166"
               inkscape:connector-curvature="0"
               id="path1099"
               d="m 79.424445,192.11811 -1.384829,1.88912 1.384829,2.07963" />
            <g
               transform="matrix(0.11061621,0,0,0.11061621,73.102322,191.9532)"
               id="g1122"
               style="fill:#ffffff">
              <path
                 inkscape:connector-curvature="0"
                 d="m 1.509,25.549 2.109,-0.281 c 0.242,1.195 0.654,2.057 1.236,2.584 0.582,0.527 1.291,0.791 2.127,0.791 0.992,0 1.83,-0.344 2.514,-1.031 0.684,-0.687 1.025,-1.539 1.025,-2.555 0,-0.969 -0.316,-1.768 -0.949,-2.396 -0.633,-0.628 -1.438,-0.943 -2.414,-0.943 -0.398,0 -0.895,0.078 -1.488,0.234 L 5.903,20.1 c 0.141,0.016 0.254,0.023 0.34,0.023 0.898,0 1.707,-0.234 2.426,-0.703 0.719,-0.469 1.078,-1.191 1.078,-2.168 0,-0.773 -0.262,-1.414 -0.785,-1.922 -0.523,-0.508 -1.199,-0.762 -2.027,-0.762 -0.82,0 -1.504,0.258 -2.051,0.773 -0.547,0.515 -0.898,1.289 -1.055,2.32 L 1.72,17.288 c 0.258,-1.414 0.844,-2.51 1.758,-3.287 0.914,-0.777 2.051,-1.166 3.41,-1.166 0.938,0 1.801,0.201 2.59,0.604 0.789,0.403 1.393,0.951 1.811,1.646 0.418,0.695 0.627,1.434 0.627,2.215 0,0.742 -0.199,1.418 -0.598,2.027 -0.399,0.609 -0.988,1.094 -1.77,1.453 1.016,0.234 1.805,0.721 2.367,1.459 0.562,0.738 0.844,1.662 0.844,2.771 0,1.5 -0.547,2.771 -1.641,3.814 -1.094,1.043 -2.477,1.564 -4.148,1.564 -1.508,0 -2.76,-0.449 -3.756,-1.348 C 2.218,28.141 1.649,26.979 1.509,25.549 Z"
                 id="path1120"
                 style="fill:#ffffff" />
            </g>
            <g
               style="fill:#ffffff"
               id="g1697"
               transform="matrix(0.11061621,0,0,0.11061621,73.102322,191.9532)">
              <path
                 style="fill:#ffffff"
                 id="path1695"
                 d="m 88.983199,25.549 2.109,-0.281 c 0.242,1.195 0.654,2.057 1.236,2.584 0.582,0.527 1.291,0.791 2.127,0.791 0.992,0 1.83,-0.344 2.514,-1.031 0.684,-0.687 1.025,-1.539 1.025,-2.555 0,-0.969 -0.316,-1.768 -0.949,-2.396 -0.633,-0.628 -1.438,-0.943 -2.414,-0.943 -0.398,0 -0.895,0.078 -1.488,0.234 l 0.234,-1.852 c 0.141,0.016 0.254,0.023 0.34,0.023 0.898,0 1.707,-0.234 2.426,-0.703 0.719,-0.469 1.078,-1.191 1.078,-2.168 0,-0.773 -0.262,-1.414 -0.785,-1.922 -0.523,-0.508 -1.199,-0.762 -2.027,-0.762 -0.82,0 -1.504,0.258 -2.051,0.773 -0.547,0.515 -0.898,1.289 -1.055,2.32 l -2.109,-0.373 c 0.258,-1.414 0.844,-2.51 1.758,-3.287 0.914,-0.777 2.051,-1.166 3.41,-1.166 0.938,0 1.801,0.201 2.59,0.604 0.789,0.403 1.393,0.951 1.811,1.646 0.418,0.695 0.627,1.434 0.627,2.215 0,0.742 -0.199,1.418 -0.598,2.027 -0.399,0.609 -0.988,1.094 -1.77,1.453 1.016,0.234 1.805,0.721 2.367,1.459 0.562,0.738 0.844001,1.662 0.844001,2.771 0,1.5 -0.547001,2.771 -1.641001,3.814 -1.094,1.043 -2.477,1.564 -4.148,1.564 -1.508,0 -2.76,-0.449 -3.756,-1.348 -0.996,-0.899 -1.565,-2.061 -1.705,-3.491 z"
                 inkscape:connector-curvature="0" />
            </g>
          </g>
        </g>
      </g>
    </g>
  </g>
</svg>
